<svg xmlns="http://www.w3.org/2000/svg" viewBox="0 0 750 500"><path d="M703.33 347c0 .14-148.4.26-331.41.26s-331.44-.13-331.44-.26 148.36-.26 331.44-.26 331.41.11 331.41.26ZM689.1 461.1c0 .14-142 .26-317.18.26s-317.21-.12-317.21-.26 142-.26 317.21-.26 317.18.16 317.18.26Z" style="fill:#263238"/><rect x="163.9" y="46.99" width="443.49" height="293.28" rx="14.57" style="fill:#e0e0e0"/><path d="m592.82 340.27.95-.06a7 7 0 0 0 1.15-.13 9.42 9.42 0 0 0 1.59-.33 13.52 13.52 0 0 0 4.19-1.85 14.33 14.33 0 0 0 4.41-4.49 15.07 15.07 0 0 0 1.59-3.41 15.91 15.91 0 0 0 .62-4.18v-34.11c0-36.65 0-89.69-.08-155.22v-71.9a24.75 24.75 0 0 0-.53-6.83 14.36 14.36 0 0 0-9.1-9.74 14 14 0 0 0-1.68-.48c-.57-.12-1.15-.2-1.73-.27-1.17-.08-2.36-.07-3.56-.06H178.52a14.37 14.37 0 0 0-13.74 10.23 15.6 15.6 0 0 0-.6 4.52v262.63a19.5 19.5 0 0 0 .3 4 14.49 14.49 0 0 0 3.63 6.92 14 14 0 0 0 3.07 2.45 15.9 15.9 0 0 0 1.74.9 15 15 0 0 0 1.86.62c2.52.74 5.19.46 7.83.51h198.14l155.2.09 42.2.05h14.73-14.73l-42.2.05-155.2.08H178.61a15 15 0 0 1-4-.52 16.62 16.62 0 0 1-1.92-.64 18.12 18.12 0 0 1-1.8-.94 14.23 14.23 0 0 1-3.16-2.53 14.55 14.55 0 0 1-2.37-3.3 15.9 15.9 0 0 1-1.39-3.84 20 20 0 0 1-.31-4.08V62a15.75 15.75 0 0 1 .62-4.67 14.89 14.89 0 0 1 14.24-10.6h412.07c1.2 0 2.38 0 3.59.07a18 18 0 0 1 1.79.27 14.91 14.91 0 0 1 11.09 10.53l.22.85c.06.29.09.58.14.87a12.94 12.94 0 0 1 .16 1.75v75.32c0 65.53-.07 118.57-.09 155.22v34.11a15.8 15.8 0 0 1-.64 4.22 14.77 14.77 0 0 1-1.61 3.47 14.31 14.31 0 0 1-4.46 4.51 13.59 13.59 0 0 1-4.21 1.83 9.8 9.8 0 0 1-1.6.32 6.85 6.85 0 0 1-1.16.11Z" style="fill:#263238"/><path d="M609.26 347h-444.9a17.8 17.8 0 0 1-17.79-17.8v-7.86h480.49v7.86a17.8 17.8 0 0 1-17.8 17.8Z" style="fill:#e0e0e0"/><path d="M609.26 347h.58a16.68 16.68 0 0 0 1.71-.15l1.27-.2 1.51-.39c.55-.16 1.11-.4 1.73-.62s1.25-.57 1.9-.94a18.62 18.62 0 0 0 4-3.07 17.78 17.78 0 0 0 5-12v-8.26l.1.09-462.67.17h-17.82l.26-.26v6.25a20.85 20.85 0 0 0 .6 6.12 17.48 17.48 0 0 0 6.85 9.82 18.24 18.24 0 0 0 11.49 3.21h150.67l152.72.06 102.58.08 27.83.05H609.26 571.74l-102.58.08-152.72.06H165.77A18.76 18.76 0 0 1 154 344a18 18 0 0 1-7-10.12 21.6 21.6 0 0 1-.62-6.25v-6.51h18.08l462.67.16h.09v8.37a17.81 17.81 0 0 1-5.22 12.01 18.85 18.85 0 0 1-4 3.08c-.66.37-1.31.65-1.91.93s-1.2.46-1.75.61l-1.52.38-1.27.19a13.15 13.15 0 0 1-1.72.12Z" style="fill:#263238"/><path style="fill:#263238" d="m341.93 321.33 5.96 9.48h83.9l5.53-9.48h-95.39z"/><rect x="184.42" y="67.03" width="402.07" height="238.49" rx="8.48" style="fill:#455a64"/><path d="M577.83 305.52a9.15 9.15 0 0 0 3.18-.64 8.55 8.55 0 0 0 3.25-2.29 8.67 8.67 0 0 0 2.14-5c.06-8.42 0-20.87 0-36.89 0-32 0-78.4-.09-135.68v-47.9a15.56 15.56 0 0 0-.14-2.91 8.4 8.4 0 0 0-2.83-4.94 8.51 8.51 0 0 0-5.37-2H193.11a8.44 8.44 0 0 0-6.81 3.46 8.16 8.16 0 0 0-1.5 3.62 33.53 33.53 0 0 0-.12 4V294.24c0 1.19 0 2.42.06 3.56a8.41 8.41 0 0 0 6.5 7.27 15.41 15.41 0 0 0 3.48.21h197.7l135.68.08 36.89.05h12.86-12.86l-36.89.05-135.68.08h-197.7a15.47 15.47 0 0 1-3.58-.23 8.91 8.91 0 0 1-6.88-7.68c-.11-1.24 0-2.41-.06-3.61V78.4a33.48 33.48 0 0 1 .12-4.11 8.68 8.68 0 0 1 1.6-3.85 8.93 8.93 0 0 1 7.23-3.67H578a8.86 8.86 0 0 1 8.6 7.31 16.66 16.66 0 0 1 .14 3v47.94c0 57.28-.06 103.64-.08 135.68 0 16 0 28.46-.09 36.9a8.69 8.69 0 0 1-5.47 7.33 8.73 8.73 0 0 1-2.38.56Z" style="fill:#263238"/><path d="M333.5 126.06v2.29H324V116h9.32v2.29h-6.48V121h5.72v2.22h-5.72v2.85ZM345.26 122.93v5.42h-2.75v-5c0-1.53-.7-2.24-1.92-2.24s-2.27.81-2.27 2.55v4.69h-2.74v-9.47h2.62V120a4.15 4.15 0 0 1 3.13-1.25c2.24-.02 3.93 1.25 3.93 4.18ZM353.85 127.89a3.87 3.87 0 0 1-2.23.6c-2.24 0-3.54-1.14-3.54-3.4v-3.89h-1.46v-2.11h1.46v-2.31h2.74v2.31h2.36v2.11h-2.36v3.86a1.11 1.11 0 0 0 1.19 1.25 1.83 1.83 0 0 0 1.1-.36ZM364.33 124.39h-7.16a2.52 2.52 0 0 0 2.71 1.9 3.19 3.19 0 0 0 2.37-.92l1.47 1.59a5 5 0 0 1-3.91 1.53c-3.28 0-5.41-2.06-5.41-4.88a4.83 4.83 0 0 1 5.05-4.88 4.69 4.69 0 0 1 4.93 4.92c0 .21-.03.51-.05.74Zm-7.2-1.61h4.67a2.27 2.27 0 0 0-2.33-2 2.24 2.24 0 0 0-2.34 2ZM372.1 118.73v2.54h-.62a2.33 2.33 0 0 0-2.52 2.64v4.47h-2.74v-9.47h2.62v1.25a3.82 3.82 0 0 1 3.26-1.43ZM384.9 124v4.37h-2.85V124l-4.77-8h3l3.3 5.48 3.29-5.48h2.8ZM388.93 123.61a5.22 5.22 0 1 1 5.22 4.88 4.88 4.88 0 0 1-5.22-4.88Zm7.63 0a2.43 2.43 0 1 0-2.41 2.63 2.39 2.39 0 0 0 2.41-2.63ZM410.72 118.88v9.47h-2.61v-1.13a3.83 3.83 0 0 1-2.94 1.27c-2.38 0-4.05-1.34-4.05-4.26v-5.35h2.75v4.94c0 1.59.7 2.29 1.92 2.29s2.18-.81 2.18-2.55v-4.68ZM419.15 118.73v2.54h-.61a2.32 2.32 0 0 0-2.52 2.64v4.47h-2.75v-9.47h2.62v1.25a3.82 3.82 0 0 1 3.26-1.43ZM425.26 122.19c0-3.67 2.85-6.38 6.75-6.38s6.74 2.7 6.74 6.38-2.87 6.37-6.74 6.37-6.75-2.71-6.75-6.37Zm10.6 0a3.86 3.86 0 1 0-3.85 3.94 3.76 3.76 0 0 0 3.85-3.94ZM443.28 118.35h-3.95V116h10.74v2.33h-3.94v10h-2.85ZM462.3 120.5c0 2.74-2.06 4.45-5.36 4.45h-2.48v3.4h-2.85V116h5.33c3.3 0 5.36 1.73 5.36 4.5Zm-2.89 0c0-1.36-.88-2.15-2.63-2.15h-2.32v4.28h2.32c1.75 0 2.63-.8 2.63-2.13Z" style="fill:#fff"/><g style="opacity:.2"><rect x="277.94" y="153.78" width="31.29" height="42.63" rx="5.47" style="fill:#fff"/></g><g style="opacity:.2"><rect x="317.31" y="153.78" width="31.29" height="42.63" rx="5.47" style="fill:#fff"/></g><g style="opacity:.2"><rect x="356.69" y="153.78" width="31.29" height="42.63" rx="5.47" style="fill:#fff"/></g><g style="opacity:.2"><rect x="396.06" y="153.78" width="31.29" height="42.63" rx="5.47" style="fill:#fff"/></g><g style="opacity:.2"><rect x="435.43" y="153.78" width="31.29" height="42.63" rx="5.47" style="fill:#fff"/></g><g style="opacity:.2"><rect x="474.8" y="153.78" width="31.29" height="42.63" rx="5.47" style="fill:#fff"/></g><path d="m296.85 175.27 3.75 2-1.68 2.82-3.78-2.24.06 4.16H292v-4.19l-3.78 2.27-1.65-2.82 3.74-2-3.74-2.06 1.65-2.82 3.78 2.27v-4.19h3.23l-.06 4.19 3.78-2.27 1.68 2.82Z" style="fill:#263238"/><rect x="342.78" y="222.58" width="98.48" height="28.71" rx="13.03" style="fill:#4f52ee"/><path d="M364.5 236.26a4.46 4.46 0 0 1 7.72-2.76l-1.2 1.11a2.61 2.61 0 0 0-2-.94 2.59 2.59 0 0 0 0 5.18 2.6 2.6 0 0 0 2-1l1.2 1.11a4.45 4.45 0 0 1-7.72-2.74ZM372.67 237.19a3.43 3.43 0 1 1 3.43 3.21 3.21 3.21 0 0 1-3.43-3.21Zm5 0a1.6 1.6 0 1 0-1.58 1.73 1.57 1.57 0 0 0 1.59-1.73ZM387.07 236.74v3.56h-1.8V237c0-1-.47-1.47-1.26-1.47s-1.5.53-1.5 1.68v3.07h-1.8v-6.22h1.72v.73a2.75 2.75 0 0 1 2.06-.82 2.44 2.44 0 0 1 2.58 2.77ZM392.71 240a2.54 2.54 0 0 1-1.47.4 2.05 2.05 0 0 1-2.32-2.24v-2.55h-1v-1.39h1v-1.51h1.8v1.51h1.55v1.39h-1.55v2.53a.73.73 0 0 0 .78.82 1.24 1.24 0 0 0 .73-.23ZM393.51 232.21a1 1 0 0 1 1.12-1 1 1 0 0 1 1.12 1 1.13 1.13 0 0 1-2.24 0Zm.22 1.87h1.8v6.22h-1.8ZM403.57 236.74v3.56h-1.8V237c0-1-.47-1.47-1.26-1.47s-1.5.53-1.5 1.68v3.07h-1.8v-6.22h1.72v.73A2.75 2.75 0 0 1 401 234a2.44 2.44 0 0 1 2.57 2.74ZM411.47 234.08v6.22h-1.71v-.74a2.51 2.51 0 0 1-1.93.84 2.48 2.48 0 0 1-2.66-2.8v-3.52H407v3.25c0 1 .46 1.51 1.26 1.51s1.44-.54 1.44-1.68v-3.08ZM419.21 237.7h-4.71a1.65 1.65 0 0 0 1.78 1.25 2.13 2.13 0 0 0 1.56-.6l1 1a3.63 3.63 0 0 1-6.12-2.2A3.17 3.17 0 0 1 416 234a3.08 3.08 0 0 1 3.24 3.23c0 .13-.02.32-.03.47Zm-4.73-1h3.06a1.48 1.48 0 0 0-1.53-1.3 1.46 1.46 0 0 0-1.53 1.25Z" style="fill:#fff"/><path d="M394.48 57.1a4.42 4.42 0 1 1-4.41-4.42 4.41 4.41 0 0 1 4.41 4.42ZM556.69 81.44V77.2a.87.87 0 0 1 .83-.91h6.37a.87.87 0 0 1 .83.91v4.24a.87.87 0 0 1-.83.91h-6.37a.87.87 0 0 1-.83-.91Z" style="fill:#263238"/><path d="M568.77 83.79h-12.58a1.13 1.13 0 0 1-1.12-1.13v-6.93a1.12 1.12 0 0 1 1.12-1.12h12.4a1 1 0 0 1 1 1v1.28a.16.16 0 0 0 .16.16h1.36a.67.67 0 0 1 .67.67V80a.83.83 0 0 1-.83.83h-1a.17.17 0 0 0-.17.17v1.77a1 1 0 0 1-1.01 1.02Zm-12.58-8.68a.62.62 0 0 0-.62.62v6.93a.63.63 0 0 0 .62.63h12.58a.53.53 0 0 0 .52-.53V81a.67.67 0 0 1 .67-.67h1a.33.33 0 0 0 .33-.33v-2.26a.18.18 0 0 0-.17-.17h-1.36a.67.67 0 0 1-.66-.66v-1.28a.52.52 0 0 0-.53-.52ZM172.67 201.81a8.39 8.39 0 0 0-7.6-5.72c.88-2.47-.81-5.32-3.21-6.36a9.33 9.33 0 0 0-7.58.55c-1.67.79-3.23 1.89-5 2.3-2.37.54-4.82-.21-7.24-.29a13.55 13.55 0 0 0-12.17 7.09c-.81 1.53-1.31 3.22-2.2 4.71-.72 1.19-1.66 2.23-2.37 3.43a10.25 10.25 0 0 0 .82 11.31l34.09-7.83a8.18 8.18 0 0 0 12.46-9.17Z" style="fill:#263238"/><path style="fill:#ffbf9d" d="m251.2 327.33-32.87-3.26-1.9 17.07 37.12-1.29-2.35-12.52z"/><path d="M276.17 337.33a1.85 1.85 0 0 1-1.9.74 2.2 2.2 0 0 1-.44-.17c-1-.49-.55-2.58-.55-2.58l-4.82-1.58s-7.08 3.12-9.8 5.51-8.2-.76-8.2-.76l-.36-10.86 10.4-6.79s-.64.41.23-1 3.64-.41 3.64-.41c.57-.69 2.48-.67 2.48-.67l7.83 2.18a5.52 5.52 0 0 1 3.6 3.15l2.53 5.87s1.18 4.13.75 5a1.61 1.61 0 0 1-2 .76s-.8 2.46-1.47 2.45a5.56 5.56 0 0 1-1.9-.79Z" style="fill:#ffbf9d"/><path d="M260.67 337.83a3.36 3.36 0 0 0 .54-.29l1.5-.86a54.92 54.92 0 0 1 5.82-2.79h-.12l4.81 1.62-.14-.24a6.19 6.19 0 0 0-.1 1.23 2.29 2.29 0 0 0 .37 1.27 1.28 1.28 0 0 0 .61.41 1.78 1.78 0 0 0 .69.15 2.07 2.07 0 0 0 1.34-.49 2.13 2.13 0 0 0 .26-.26l.06-.07-.31.06.15.09a5.76 5.76 0 0 0 .6.33 4.67 4.67 0 0 0 .65.27 1.89 1.89 0 0 0 .36.1.84.84 0 0 0 .47 0 1.56 1.56 0 0 0 .59-.58 5.71 5.71 0 0 0 .35-.64 12.25 12.25 0 0 0 .54-1.35l-.32.15a1.9 1.9 0 0 0 1.94-.33 1.57 1.57 0 0 0 .5-.94 4.62 4.62 0 0 0 0-1 27 27 0 0 0-.8-3.77l-1.35-3.13-.85-2a10.18 10.18 0 0 0-1-1.95 5.34 5.34 0 0 0-1.6-1.47 7.08 7.08 0 0 0-2-.74l-7.39-2h-.06a7.66 7.66 0 0 0-1.37.14 2.27 2.27 0 0 0-1.28.62h.29a2.77 2.77 0 0 0-2.58-.26 3.25 3.25 0 0 0-1.59 1.82l.08-.1-7.17 4.65-1.93 1.29a5.6 5.6 0 0 0-.66.48 4.19 4.19 0 0 0 .72-.39l2-1.2 7.25-4.5v-.06a2.88 2.88 0 0 1 1.39-1.58 2.38 2.38 0 0 1 2.18.25l.16.1.13-.14a1.9 1.9 0 0 1 1-.46 6.59 6.59 0 0 1 1.27-.12l7.37 2.08a6.61 6.61 0 0 1 1.85.69 4.84 4.84 0 0 1 1.44 1.34 9.12 9.12 0 0 1 .92 1.85c.29.66.57 1.32.86 2l1.35 3.13a26.47 26.47 0 0 1 .79 3.69 4.29 4.29 0 0 1 0 .87 1.07 1.07 0 0 1-.34.64 1.43 1.43 0 0 1-1.43.24l-.24-.08-.08.23a9.61 9.61 0 0 1-.51 1.29 2.45 2.45 0 0 1-.68 1 .85.85 0 0 1-.21 0l-.29-.08c-.2-.07-.4-.16-.6-.25a6.28 6.28 0 0 1-.57-.31l-.14-.08-.31.06v.06a2 2 0 0 1-.21.2 1.61 1.61 0 0 1-1 .39 1.41 1.41 0 0 1-.54-.11.75.75 0 0 1-.42-.27 3.06 3.06 0 0 1-.22-2.14v-.19l-.17-.05-4.82-1.56h-.12a48.07 48.07 0 0 0-5.78 2.94c-.65.39-1.14.71-1.47.94a3.28 3.28 0 0 0-.43.16Z" style="fill:#ff9a6c"/><path d="M265.28 322.43a10.06 10.06 0 0 0 2.44 1.16 25.64 25.64 0 0 0 6.51 1.52l-.24-.22c.08.42.15.85.26 1.29a19.88 19.88 0 0 0 3.06 6.92 16.51 16.51 0 0 0 1.44 1.78c.37.4.6.59.63.57s-.74-.95-1.76-2.56a22.08 22.08 0 0 1-2.85-6.83c-.1-.42-.18-.85-.25-1.25v-.21h-.2a31 31 0 0 1-6.44-1.33 23.66 23.66 0 0 0-2.6-.84Z" style="fill:#ff9a6c"/><path d="M272.12 328.27a13 13 0 0 0 4.24 8.75c.13-.11-1.33-1.77-2.49-4.19s-1.59-4.59-1.75-4.56Z" style="fill:#ff9a6c"/><path d="M249.39 335s.07.08.23.19a7.11 7.11 0 0 0 .74.43 8.83 8.83 0 0 0 3.09.86 8.73 8.73 0 0 0 4.78-.93 9.14 9.14 0 0 0 4.21-4.48l-.32.15a20.6 20.6 0 0 0 5.73 1.18 19.84 19.84 0 0 0 2.18 0 6.62 6.62 0 0 0 2.14-.35 1.65 1.65 0 0 0 .91-.75 1.53 1.53 0 0 0 .05-1.17 1.51 1.51 0 0 0-.79-.84l-.88-.38c-2.33-1-4.48-1.73-6.29-2.32s-3.31-1-4.34-1.26a7.92 7.92 0 0 0-1.63-.33 13.71 13.71 0 0 0 1.57.53c1 .32 2.48.79 4.28 1.42s3.91 1.43 6.22 2.42l.87.38a1 1 0 0 1 .51.55 1 1 0 0 1 0 .77 1.14 1.14 0 0 1-.65.5 6.15 6.15 0 0 1-2 .3h-2.13a20.47 20.47 0 0 1-5.59-1.14l-.23-.08-.09.22a8.82 8.82 0 0 1-4 4.3 8.7 8.7 0 0 1-4.55 1 9.4 9.4 0 0 1-3-.7c-.66-.26-1-.47-1.02-.47Z" style="fill:#ff9a6c"/><path d="M144.58 285.09A14.91 14.91 0 0 1 130 270.16l-.62-49.51c-.58-13.29 6.46-24.72 19.39-24.94h1.2c12.05.51 21.69 10.44 22.16 22.83.44 11.53.91 22.66.59 28.82-.67 12.76-13.28 14-13.28 14v8.5a14.91 14.91 0 0 1-14.83 15.16Z" style="fill:#ffbf9d"/><path d="M159.44 261.51a29.36 29.36 0 0 1-15.95-5.6s3.5 9.76 15.92 9.13Z" style="fill:#ff9a6c"/><path d="M167.56 229.93a1.82 1.82 0 0 1-1.78 1.77A1.72 1.72 0 0 1 164 230a1.79 1.79 0 0 1 1.78-1.77 1.73 1.73 0 0 1 1.78 1.7ZM169.27 224.11c-.23.23-1.53-.85-3.44-.92s-3.34.84-3.54.59.15-.53.77-1a4.81 4.81 0 0 1 2.85-.77 4.55 4.55 0 0 1 2.72 1c.57.56.75.99.64 1.1ZM150.25 229.93a1.8 1.8 0 0 1-1.78 1.77 1.73 1.73 0 0 1-1.76-1.72 1.8 1.8 0 0 1 1.78-1.77 1.72 1.72 0 0 1 1.76 1.72ZM150.57 223.77c-.23.23-1.54-.85-3.44-.92s-3.34.84-3.54.59.14-.53.77-1a4.81 4.81 0 0 1 2.85-.77 4.6 4.6 0 0 1 2.72 1c.56.56.75 1 .64 1.1ZM156.8 239.13a12.41 12.41 0 0 1 3.12-.44c.49 0 1-.11 1.05-.45a2.64 2.64 0 0 0-.27-1.5c-.41-1.23-.84-2.52-1.28-3.87-1.79-5.52-3-10-2.84-10.11s1.84 4.33 3.62 9.85c.43 1.36.84 2.65 1.22 3.89a2.93 2.93 0 0 1 .18 2 1.23 1.23 0 0 1-.83.69 3.27 3.27 0 0 1-.83.09 12.39 12.39 0 0 1-3.14-.15ZM151.43 217.67c-.28.49-2.11-.12-4.36-.26s-4.14.13-4.35-.4c-.09-.25.31-.68 1.12-1a7.08 7.08 0 0 1 3.37-.54 7.16 7.16 0 0 1 3.26 1c.75.47 1.08.96.96 1.2ZM169.59 218.35c-.41.44-2-.07-3.82-.14s-3.45.21-3.8-.27c-.16-.23.1-.67.8-1.07a6.22 6.22 0 0 1 6.15.33c.64.47.85.94.67 1.15Z" style="fill:#263238"/><path d="M130 230.14c-.21-.1-8.42-2.95-8.5 5.78s8.46 7 8.48 6.77.02-12.55.02-12.55Z" style="fill:#ffbf9d"/><path d="M127.43 239.35s-.15.11-.4.22a1.44 1.44 0 0 1-1.11 0c-.89-.35-1.64-1.82-1.66-3.4a5 5 0 0 1 .43-2.17 1.74 1.74 0 0 1 1.12-1.16.74.74 0 0 1 .87.43c.12.24.06.42.11.43s.18-.14.11-.5a.9.9 0 0 0-.33-.55 1 1 0 0 0-.81-.23 2.09 2.09 0 0 0-1.56 1.33 5.3 5.3 0 0 0-.53 2.43c0 1.76.9 3.42 2.12 3.8a1.56 1.56 0 0 0 1.35-.22c.27-.2.32-.39.29-.41Z" style="fill:#ff9a6c"/><path d="M136.1 208.34a6.22 6.22 0 0 1 4.24-4.84 8.67 8.67 0 0 1 5.73.07c4.79 1.74 13 4.35 15.09 2.68 3.06-2.4 3.8-4 3.8-4l1.69 1.84c1.37-.78-2.75-5.36-6.13-6.94-5.1-2.38-12.89-3.85-17.6-2.48-5.67 1.65-10.38 4.54-13.23 9.85a35.13 35.13 0 0 0-3.75 17.53c0 1.85-.29 7.15 1.49 7.56 1.39.31 3.16.93 3.06 3.59a3.7 3.7 0 0 0 .88 2.67c1.55 1.7 3.45.1 4.33-1.5 1.87-3.42 2.08-7.5 2.24-11.42a26.27 26.27 0 0 0-.53-8.31 26.12 26.12 0 0 1-1.37-5.36 4.52 4.52 0 0 1 .06-.94ZM157.13 243.85c.05.13-.34.46-1.13.63a4.51 4.51 0 0 1-3.07-.48 4.66 4.66 0 0 1-2.08-2.31c-.3-.75-.25-1.25-.11-1.29s.93 1.66 2.72 2.63 3.59.53 3.67.82Z" style="fill:#263238"/><path d="m166 360.35-40.62-8.94-26.11-64.69S64.38 294.46 58.63 314c-5 16.85-15.26 91.33 8.1 137.24a35.29 35.29 0 0 0 31.5 19.14H276a44.07 44.07 0 0 0 43.8-39.16c1-9 1.7-17.53 1.56-23.09l-28.54-21.9Z" style="fill:#455a64"/><path d="M274.6 382.85c12.51 16.34 27.73 31 45.93 40.62l.87-22.18-33.62-23.93Z" style="opacity:.30000000000000004"/><path d="M140.43 274.14c0 1.18 9.24 5 13.41 3.32 6.36-2.54 5.57-7.53 5.57-7.53l3.53 3.72 35.37 53.9 26.29 17.35-42.08 13.33-44.12-50.68Z" style="fill:#f5f5f5"/><path d="m129.28 256.05-.93 1.74-4.2 7.83-17.47 11.14 35.93 42.71L159 358.23l39.3 12.3s-18.7-28.75-24.51-43.45-6.4-14-11.7-24.78a241.83 241.83 0 0 1-9.6-23.3ZM213.46 333l7.71 7.19 2.18 4.44-28.66-13.33-20.69-29s-7.37-16.35-9.9-22.21c-2.67-6.16-4.66-9.65-4.66-9.65v-4.86l10.43 9.42 8.71 2.59 14.56 23Z" style="fill:#4f52ee"/><path d="M204.63 305.88s-3.48-7.42-6.32-13.59c-6.4-13.9-21.49-15.22-21.49-15.22l16.68 46.26 20.43 14.49s5.82 2 6.55 0c0 0 4.25-15.34 4.12-15.4s-14.54-4.37-14.54-4.37l-5.8-13" style="fill:#4f52ee"/><path d="m235.36 291.44-19.85 33.07 20.79-.61 18.33-30.64a1.77 1.77 0 0 0-1.52-2.68h-16.23a1.77 1.77 0 0 0-1.52.86Z" style="fill:#263238"/><path d="m159 328.84 49.69-5.91 8.35-14.63 6.54-3.59a3.25 3.25 0 0 1 3.49.22l.62.45 4.85-.61a3.82 3.82 0 0 1 2.39.47l3.44 2a1.66 1.66 0 0 1 .82 1.42 1.65 1.65 0 0 1-1.95 1.62l-3.34-.61-5.12 1.67s3.3.35 3.72 2.85-1.25 2.56-1.25 2.56 3.47 2 1 5c0 0 2.9 1.93-.35 5.59-2.19 2.48-18 10.56-18 10.56L159 358.23Z" style="fill:#ffbf9d"/><path d="M232.17 321.73s.37 0 .81.45a2.62 2.62 0 0 1 .53 2.45 7.27 7.27 0 0 1-2.14 3.06 26.64 26.64 0 0 1-3.49 2.88 47.1 47.1 0 0 1-7.17 3.95 18.2 18.2 0 0 1-3.13 1.27 25.3 25.3 0 0 1 3-1.6 59.26 59.26 0 0 0 7-4.05 28.25 28.25 0 0 0 3.46-2.8 7.09 7.09 0 0 0 2.11-2.81 2.46 2.46 0 0 0-.32-2.22 3.17 3.17 0 0 0-.66-.58ZM227.51 305.51a7 7 0 0 1-2.48.94 7 7 0 0 1-2.62.44 6.83 6.83 0 0 1 2.48-.94 7 7 0 0 1 2.62-.44ZM233.91 309.63a14 14 0 0 1-3.45 1.42 13.8 13.8 0 0 1-3.62.93 13.18 13.18 0 0 1 3.45-1.42 13.34 13.34 0 0 1 3.62-.93ZM228 316.26c-.15 0-.22-.45-.39-.94s-.37-.87-.26-1 .55.2.75.81-.01 1.15-.1 1.13ZM229.65 322c-.15 0-.09-.75-.3-1.56s-.57-1.43-.46-1.53.73.44 1 1.4-.11 1.69-.24 1.69Z" style="fill:#ff9a6c"/><path d="M108.08 275.87c-1.66 1-15.71 10.6-13.66 26.32s33.15 51.26 39.64 51.94l24.95 4.1v-29.39l-12-.68-15.68-30.76Z" style="fill:#4f52ee"/><path d="M159 327.42a4.86 4.86 0 0 1-.89.08l-2.52.1-8.94.2h-.12l-.08-.1-6.32-8.5c-3.77-5.09-7.15-9.72-9.58-13.09l-2.85-4a11.08 11.08 0 0 1-1-1.52 11.59 11.59 0 0 1 1.16 1.39l3 3.9c2.51 3.3 6 7.9 9.71 13l6.27 8.53-.2-.1H158.1a3.68 3.68 0 0 1 .9.11ZM152.94 282.84a6 6 0 0 1-.49-.89l-1.23-2.58h.27a31.49 31.49 0 0 0-2.41 4.15 36.49 36.49 0 0 1-3.13 5.5l-.2.28-.21-.27c-1.62-2-3.47-4.11-5.46-6.28-4.35-4.73-8.51-8.83-11.48-11.83l-3.51-3.57a11 11 0 0 1-1.22-1.36 12 12 0 0 1 1.38 1.21l3.63 3.44c3 2.93 7.25 7 11.62 11.73 2 2.18 3.84 4.32 5.45 6.33h-.42a39.71 39.71 0 0 0 3.16-5.4 27.89 27.89 0 0 1 2.55-4.13l.16-.22.1.24c.45 1.08.82 1.95 1.1 2.64a4.17 4.17 0 0 1 .34 1.01ZM170 275.32a4.83 4.83 0 0 1 .75 1.48 39.25 39.25 0 0 1 1.31 4.13l.34 1.22-.78-1a33.72 33.72 0 0 0-3.66-3.87c-1.16-1.06-2.29-2-3.32-2.94l.42-.16a42.81 42.81 0 0 0-.15 4.93 5.24 5.24 0 0 1-.25 1.93c-.06 0 0-.71-.07-1.92a32.09 32.09 0 0 1 0-5l.05-.47.37.31c1 .87 2.2 1.84 3.37 2.92a29.43 29.43 0 0 1 3.68 4l-.44.21c-.43-1.73-.78-3.17-1.1-4.16a11.85 11.85 0 0 1-.52-1.61ZM206.09 323.24a9.85 9.85 0 0 1-1.19-1.1l-3.07-3.14c-1.29-1.35-2.82-2.86-4.5-4.73-.77-1-1.45-2.07-2.25-3.12a21 21 0 0 1-2.08-3.62c-1.19-2.58-2.09-5.13-2.9-7.44s-1.52-4.4-2.17-6.12-1.25-3.1-1.71-4a12.39 12.39 0 0 1-.72-1.44s.11.1.26.32a9.64 9.64 0 0 1 .65 1 33.58 33.58 0 0 1 1.89 4c.71 1.72 1.46 3.79 2.29 6.09s1.74 4.83 2.92 7.38a21.48 21.48 0 0 0 2 3.53c.81 1.07 1.49 2.18 2.22 3.13 1.57 1.79 3.14 3.41 4.37 4.77l2.95 3.25a9.53 9.53 0 0 1 1.04 1.24ZM220.51 339.83l94.32-2.65a10.63 10.63 0 0 1 4.36.81c3.43 1.46 9.6 5.21 13.83 14.19 6.13 13 34.73 68 34.73 68L338.83 435l-35.47-65.8L194 359.9l1.27-8.74Z" style="fill:#263238"/><path d="m330.24 423.41 15.07 25.87 1 6.54a7.32 7.32 0 0 0 8.35 6.13l45.87-7a3.57 3.57 0 0 0 2.83-4.9 3.1 3.1 0 0 0-2.18-1.78c-3.84-1-33.44-11.85-33.44-11.85l-12.34-24.76Z" style="fill:#e0e0e0"/><path d="M342.87 429.4a28.29 28.29 0 0 1-3.39-4.16 27.07 27.07 0 0 1-3-4.47 28.63 28.63 0 0 1 3.38 4.16 27.56 27.56 0 0 1 3.01 4.47ZM351.87 425.78a18.19 18.19 0 0 1-3.16-4.36 18.72 18.72 0 0 1-2.24-4.9c.14-.07 1.2 2.09 2.69 4.64s2.84 4.53 2.71 4.62ZM358.16 461.12c-.1 0-.34-.89-1-2.24a13.35 13.35 0 0 0-8.93-7c-1.47-.35-2.42-.36-2.42-.46a5.65 5.65 0 0 1 2.51 0 12.26 12.26 0 0 1 9.23 7.25 5.88 5.88 0 0 1 .61 2.45ZM389.07 456.67a3.84 3.84 0 0 1-.73-1.71 8 8 0 0 1 .22-4.51 10.82 10.82 0 0 1 2.39-3.81 4.74 4.74 0 0 1 1.42-1.2c.06.07-.41.6-1.1 1.48a13.85 13.85 0 0 0-2.14 3.73 8.92 8.92 0 0 0-.37 4.22 11.89 11.89 0 0 1 .31 1.8Z" style="fill:#263238"/><path d="M191.63 352.7s97.33-9.76 102.06-9.37c8.73.72 24.83 14.49 53.4 33.67a263.19 263.19 0 0 1 41 34.45l-9.13 20.84s-64-23.33-74.05-31.72c-8.34-7-23.56-16.9-23.56-16.9l-37.54.38-27.91 2.46a41 41 0 0 1-36.18-15.93l-10.83-14.15Z" style="fill:#263238"/><path d="M280.88 383.38s.16.09.45.29l1.31.9 5.05 3.55c4.39 3.13 10.83 7.63 18.73 13.6.5.37 1 .8 1.5 1.13l1.61 1c1.16.58 2.32 1.22 3.55 1.79l3.76 1.75 4 1.75q8.11 3.51 17.49 7.32c12.48 5.07 26.48 10.58 41.59 16.39l-.33.15 8.27-21 .06.3-11.36-11.58c-2.67-2.31-5.53-4.77-8.45-7.2a597.48 597.48 0 0 0-54.56-40 53.2 53.2 0 0 0-8.26-5.81 41.19 41.19 0 0 0-8.83-3.84c-.76-.2-1.52-.36-2.27-.55l-2.27-.35-2.27-.12h-11l-29.39-.06-19.08-.08h-6.3a3.72 3.72 0 0 1-.44 0h6.74l19.08-.07 29.39-.06h11l2.31.11 2.32.35c.76.19 1.53.35 2.3.56a41 41 0 0 1 8.94 3.86 52.81 52.81 0 0 1 8.36 5.86 589.19 589.19 0 0 1 54.64 40c2.93 2.43 5.79 4.89 8.46 7.21l11.36 11.59.12.13-.06.17-8.3 21-.09.24-.24-.09c-15.11-5.83-29.11-11.37-41.58-16.47-6.23-2.55-12.07-5-17.47-7.37l-4-1.77-3.8-1.96c-1.22-.59-2.39-1.23-3.55-1.82l-1.65-1c-.54-.33-1-.76-1.5-1.13-7.86-6-14.28-10.55-18.63-13.73l-5-3.61-1.28-.94c-.31-.27-.43-.39-.43-.39Z" style="fill:#455a64"/><path d="m358.26 427 27 10.61 4.49 4.86a7.33 7.33 0 0 0 10.36.4l34.06-31.52a3.58 3.58 0 0 0-.4-5.65 3.12 3.12 0 0 0-2.8-.25c-3.73 1.34-34.34 8.91-34.34 8.91L376.1 398Z" style="fill:#e0e0e0"/><path d="M358.26 427s.09-.17.29-.51l.91-1.5c.81-1.35 2-3.3 3.51-5.8 3.08-5.07 7.52-12.35 13-21.29l.11-.19.18.14 20.53 16.32h-.21l18.26-4.6 9.65-2.51c1.63-.44 3.28-.87 4.92-1.35l1.22-.38a5 5 0 0 1 1.32-.31 3.4 3.4 0 0 1 2.55 1 3.84 3.84 0 0 1 .37 5 7 7 0 0 1-.92 1l-.93.86-1.85 1.71-7.26 6.71-13.73 12.68-6.39 5.9-3.06 2.83a10.67 10.67 0 0 1-1.62 1.29 7.53 7.53 0 0 1-9.17-1c-1.72-1.79-3.28-3.54-4.81-5.19h.07c-8.33-3.32-15.07-6-19.76-7.88l-5.32-2.15-1.38-.56-.45-.19s.18.05.51.18l1.41.53 5.4 2.08 19.72 7.65c1.54 1.64 3.13 3.4 4.81 5.15a7.13 7.13 0 0 0 6.9 1.69 7 7 0 0 0 1.77-.79 9.92 9.92 0 0 0 1.54-1.25c1-.93 2-1.88 3.06-2.83q3.1-2.88 6.38-5.92c4.36-4 8.95-8.3 13.71-12.7q3.56-3.31 7.25-6.72l1.85-1.71a21 21 0 0 0 1.78-1.74 3.34 3.34 0 0 0-.3-4.34 2.86 2.86 0 0 0-2.17-.82 4.33 4.33 0 0 0-1.18.29l-1.25.38c-1.65.48-3.29.91-4.93 1.35l-9.66 2.5-18.26 4.57h-.12l-.09-.07L376 398.15h.29l-13.09 21.06-3.63 5.79-1 1.51c-.18.3-.31.49-.31.49Z" style="fill:#263238"/><path d="M402.51 440.22c-.07.07-.78-.55-2.11-1.28a13.33 13.33 0 0 0-11.32-.81c-1.41.53-2.21 1.05-2.27 1a5.92 5.92 0 0 1 2.11-1.37 12.26 12.26 0 0 1 11.7.84 5.59 5.59 0 0 1 1.89 1.62ZM425.63 419.23a4.1 4.1 0 0 1-1.57-1 8 8 0 0 1-2.33-3.86 10.93 10.93 0 0 1-.16-4.5 4.53 4.53 0 0 1 .51-1.78 7.33 7.33 0 0 1-.08 1.83 13.32 13.32 0 0 0 .31 4.29 8.9 8.9 0 0 0 2.06 3.71c.75.8 1.32 1.22 1.26 1.31Z" style="fill:#263238"/><path d="M264.33 383.39c-2.09-9.91-6.36-20.05-14.81-25.62-6.41-4.24-14.34-5.28-22-6.22L68.06 331.94c-1.43 25.13 9.33 56.41 20.31 79.07 1.7 3.52 3.67 7.12 6.93 9.27 4 2.62 9.08 2.59 13.84 2.47 53.65-1.37 107.32-3.65 160.67-9.52-3-9.67-3.4-19.94-5.48-29.84Z" style="fill:#455a64"/><path d="M126.73 339.15a12.39 12.39 0 0 1-1.88-.12l-5.1-.55c-4.3-.5-10.23-1.23-16.77-2.13s-12.46-1.81-16.72-2.56c-2.14-.38-3.86-.69-5-1a12.44 12.44 0 0 1-1.83-.45 12.47 12.47 0 0 1 1.87.23l5.06.78c4.28.64 10.19 1.49 16.73 2.39l16.75 2.29 5.08.73a11.8 11.8 0 0 1 1.81.39ZM127.55 470.33a1.89 1.89 0 0 1-.16-.31c-.12-.23-.26-.54-.44-.92l-1.62-3.57-1.17-2.53c-.4-1-.79-2-1.24-3.14-.86-2.25-1.94-4.79-2.86-7.7-.48-1.44-1-2.95-1.51-4.53s-1-3.26-1.45-5c-1-3.43-1.86-7.17-2.78-11.09a181.52 181.52 0 0 1-3.61-52.12c.37-4 .66-7.82 1.22-11.36.27-1.77.45-3.49.75-5.13s.6-3.2.88-4.7c.51-3 1.23-5.67 1.77-8 .29-1.18.53-2.27.8-3.27s.56-1.9.8-2.72c.47-1.61.85-2.87 1.11-3.76l.31-1a1.68 1.68 0 0 1 .12-.33 1.26 1.26 0 0 1-.07.34l-.25 1-1 3.78-.75 2.73c-.25 1-.48 2.11-.75 3.28-.52 2.36-1.21 5-1.69 8-.26 1.49-.55 3.06-.84 4.69s-.46 3.35-.71 5.12c-.55 3.53-.82 7.34-1.18 11.34a186.86 186.86 0 0 0 3.6 52c.91 3.91 1.7 7.65 2.73 11.07.49 1.72.9 3.39 1.41 5s1 3.09 1.48 4.53c.89 2.91 1.94 5.45 2.77 7.72.44 1.13.81 2.19 1.2 3.15l1.12 2.59 1.52 3.61.39.95a1.43 1.43 0 0 1 .1.28Z" style="fill:#263238"/><path d="M125.86 419.66a34.61 34.61 0 0 1-6.27 0 35 35 0 0 1-6.26-.57 35.92 35.92 0 0 1 6.28 0 35.76 35.76 0 0 1 6.25.57ZM124.41 427a19.76 19.76 0 0 1-6.44-1.69 19.55 19.55 0 0 1-5.8-3.27c.09-.14 2.63 1.39 6 2.75s6.27 1.99 6.24 2.21ZM110.44 376.88a8.32 8.32 0 0 1-4.15 1.27 8.49 8.49 0 0 1-4.32-.45c0-.17 1.93.12 4.27-.11s4.14-.86 4.2-.71ZM113.63 374.48a7.09 7.09 0 0 1-4.58-.58 7 7 0 0 1-3.6-2.89 23.56 23.56 0 0 0 3.82 2.37c2.28.99 4.36.92 4.36 1.1ZM169.78 203.16a6.94 6.94 0 0 0-4.77-4.24 11.91 11.91 0 0 0-6.56.24l-20.72 4.74c3 2 9.17 3.88 12.71 4.26 5.17.55 8.81.6 11.89-1.18a3.88 3.88 0 0 0 5.45 2 5 5 0 0 0 2-5.82ZM376.79 420.52a41.33 41.33 0 0 1-12-4.52c.06-.14 2.7 1 6 2.24s6.04 2.14 6 2.28ZM381.35 411.66a57.77 57.77 0 0 1-5.31-2.51 54.74 54.74 0 0 1-5.27-2.58 24.1 24.1 0 0 1 5.5 2.11 23.16 23.16 0 0 1 5.08 2.98Z" style="fill:#263238"/><path d="m216.31 348.91 41.77.51 50.44-10a4 4 0 0 0 3.13-3.28l6.86-45.42a3.35 3.35 0 0 0-3.85-3.8l-51.55 8.39a3.36 3.36 0 0 0-2.79 2.89l-5.75 46.19-38.2-.19a2.36 2.36 0 0 0-2.36 2.35 2.35 2.35 0 0 0 2.3 2.36Z" style="fill:#e0e0e0"/><path d="M216.31 348.91a1.71 1.71 0 0 1-.79-.13 2.36 2.36 0 0 1-1.51-1.73 2.42 2.42 0 0 1 2-2.89c1.53-.06 3.26 0 5.24 0l33.31.08-.18.16c1.64-13.29 3.59-29 5.74-46.48a3.62 3.62 0 0 1 2.21-2.61 8.12 8.12 0 0 1 1.68-.35l1.66-.28 6.73-1.09 13.87-2.27 14.37-2.32 7.34-1.19 3.71-.61 1.86-.3a9.23 9.23 0 0 1 1.94-.21 3.64 3.64 0 0 1 3.15 2.51 4.29 4.29 0 0 1 .06 2.07l-.3 1.94q-.58 3.88-1.16 7.71c-.77 5.09-1.53 10.12-2.28 15.05s-1.48 9.76-2.19 14.5l-.54 3.52c-.09.59-.17 1.17-.26 1.75a5.21 5.21 0 0 1-.49 1.77 4.19 4.19 0 0 1-2.83 2.19l-3.38.67-47.15 9.28-30.62-.45-8.27-.15L217 349h-.73 2.88l8.28.05 30.62.29 47.13-9.4 3.37-.68a3.68 3.68 0 0 0 2.5-1.93 4.51 4.51 0 0 0 .43-1.62l.27-1.75c.17-1.17.35-2.35.53-3.53l2.18-14.5q1.11-7.39 2.27-15 .57-3.82 1.16-7.71l.29-1.94a3.65 3.65 0 0 0 0-1.83 3.1 3.1 0 0 0-2.69-2.15 9 9 0 0 0-1.81.2l-1.87.31-3.7.6-7.35 1.19-14.36 2.34-13.87 2.25-6.73 1.09-1.66.27a7.58 7.58 0 0 0-1.59.33 3.08 3.08 0 0 0-1.9 2.25c-2.2 17.42-4.18 33.15-5.85 46.43v.16h-.17l-33.31-.24c-2 0-3.73-.06-5.22 0a2.28 2.28 0 0 0-1.64 1.08 2.3 2.3 0 0 0 1.13 3.33 3.06 3.06 0 0 0 .72.02Z" style="fill:#263238"/><path d="M264.78 296.77c.14 0-1.24 12.07-3.09 26.93s-3.46 26.89-3.61 26.87 1.25-12.07 3.1-26.93 3.46-26.89 3.6-26.87Z" style="fill:#263238"/><path d="M287.2 315.52c-1.05 2.19-.47 4.65 1.29 5.5s4-.25 5.09-2.44.47-4.65-1.29-5.49-4.04.24-5.09 2.43ZM306.18 218.45H210a5 5 0 0 0-5 5v43.82a5 5 0 0 0 5 5h40.35l8.57 11 7.15-11h40.12a5 5 0 0 0 5-5v-43.81a5 5 0 0 0-5.01-5.01Z" style="fill:#fff"/><path d="M306.18 218.45h.48a4.75 4.75 0 0 1 1.37.31 4.94 4.94 0 0 1 1.89 1.28 5 5 0 0 1 1.31 2.86c.09 4.77.07 11.71.1 20.5v22.71a12.42 12.42 0 0 1-.1 2.18 5.05 5.05 0 0 1-.91 2.05 5.19 5.19 0 0 1-3.95 2.13h-40.36l.2-.11-7.14 11-.19.29-.21-.27-8.58-11 .2.1h-40.9a5.27 5.27 0 0 1-4.54-4.07 9.36 9.36 0 0 1-.13-2.09v-42.86a5.24 5.24 0 0 1 2.85-4.66 5.16 5.16 0 0 1 1.8-.55c.63-.06 1.21 0 1.81 0h47.71l34.59.08 9.4.05H306.16 302.88l-9.4.05-34.59.08H209.44a4.48 4.48 0 0 0-1.63.5 4.77 4.77 0 0 0-2.58 4.23v42.89a9.17 9.17 0 0 0 .12 2 4.77 4.77 0 0 0 2.25 3.05 4.6 4.6 0 0 0 1.84.61c.64.06 1.36 0 2 0h39l.07.1 8.57 11h-.4l7.15-11 .07-.11H306.37a4.81 4.81 0 0 0 4.5-3.84 12.24 12.24 0 0 0 .1-2.11v-22.71c0-8.78.07-15.75 0-20.49a5 5 0 0 0-3.08-4.08 6 6 0 0 0-1.71-.1Z" style="fill:#263238"/><rect x="221.7" y="228.03" width="12.14" height="9.4" rx="1.28" style="fill:#4f52ee"/><path d="m221.9 228.28 4.62 4.93a1.87 1.87 0 0 0 1 .69 1.46 1.46 0 0 0 1.35-.52c.84-.86 1.64-1.75 2.46-2.62s1.56-1.65 2.33-2.48a.13.13 0 0 0-.18-.18l-4.41 4.7a3.87 3.87 0 0 1-.7.7c-.66.42-1.22 0-1.66-.47-.84-.88-1.67-1.77-2.5-2.66l-2.12-2.27c-.11-.11-.29.06-.18.18Z" style="fill:#fff"/><path d="m221.85 237.37 3.71-4.22.52-.59c.11-.12-.07-.3-.17-.18-1.24 1.41-2.48 2.81-3.71 4.22l-.53.59c-.1.12.07.3.18.18ZM233.65 237l-3.47-4-.5-.58c-.11-.13-.28 0-.18.17l3.47 4c.17.2.34.39.5.59s.29-.06.18-.18Z" style="fill:#fff"/><path d="M242.8 235.93v-3.11l-1.53 2.56h-.54l-1.52-2.5v3.05h-1.13v-5.19h1L241 234l1.91-3.23h1v5.19ZM249 234.26h-3a1.06 1.06 0 0 0 1.14.8 1.34 1.34 0 0 0 1-.38l.62.67a2.1 2.1 0 0 1-1.65.64 2.07 2.07 0 0 1-2.28-2.05 2 2 0 0 1 2.13-2.06A2 2 0 0 1 249 234v.26Zm-3-.67h2a1 1 0 0 0-2 0ZM249.36 235.56l.39-.83a2.69 2.69 0 0 0 1.38.39c.54 0 .74-.15.74-.37 0-.65-2.41 0-2.41-1.58 0-.75.68-1.29 1.84-1.29a3.33 3.33 0 0 1 1.54.35l-.39.82a2.28 2.28 0 0 0-1.15-.29c-.52 0-.74.16-.74.37 0 .68 2.41 0 2.41 1.59 0 .74-.69 1.27-1.88 1.27a3.36 3.36 0 0 1-1.73-.43ZM253.3 235.56l.38-.83a2.75 2.75 0 0 0 1.39.39c.53 0 .73-.15.73-.37 0-.65-2.41 0-2.41-1.58 0-.75.68-1.29 1.85-1.29a3.26 3.26 0 0 1 1.53.35l-.38.82a2.31 2.31 0 0 0-1.15-.29c-.52 0-.74.16-.74.37 0 .68 2.41 0 2.41 1.59 0 .74-.69 1.27-1.89 1.27a3.35 3.35 0 0 1-1.72-.43ZM261.15 233.65v2.28h-1.09v-.5a1.29 1.29 0 0 1-1.21.56c-.94 0-1.49-.52-1.49-1.21s.49-1.19 1.71-1.19h.93c0-.5-.3-.79-.92-.79a1.93 1.93 0 0 0-1.15.37l-.41-.81a3.05 3.05 0 0 1 1.72-.48c1.2 0 1.91.57 1.91 1.77Zm-1.16 1v-.41h-.79c-.54 0-.72.2-.72.47s.25.48.66.48a.85.85 0 0 0 .86-.52ZM266.35 231.94v3.32a2 2 0 0 1-2.24 2.17 3.32 3.32 0 0 1-2-.55l.46-.83a2.42 2.42 0 0 0 1.41.45c.82 0 1.17-.37 1.17-1.09v-.17a1.61 1.61 0 0 1-1.26.5 1.93 1.93 0 1 1 0-3.86 1.61 1.61 0 0 1 1.32.57v-.51Zm-1.14 1.87a1.05 1.05 0 1 0-1 1 1 1 0 0 0 1-1ZM271.31 234.26h-3a1.06 1.06 0 0 0 1.14.8 1.33 1.33 0 0 0 1-.38l.62.67a2.1 2.1 0 0 1-1.65.64 2.07 2.07 0 0 1-2.27-2.05 2 2 0 0 1 2.12-2.06 2 2 0 0 1 2.08 2.07c-.02.05-.03.22-.04.31Zm-3-.67h2a1 1 0 0 0-2 0ZM271.71 235.56l.39-.83a2.72 2.72 0 0 0 1.39.39c.53 0 .73-.15.73-.37 0-.65-2.41 0-2.41-1.58 0-.75.68-1.29 1.85-1.29a3.29 3.29 0 0 1 1.53.35l-.38.82a2.33 2.33 0 0 0-1.15-.29c-.52 0-.75.16-.75.37 0 .68 2.41 0 2.41 1.59 0 .74-.68 1.27-1.88 1.27a3.39 3.39 0 0 1-1.73-.43ZM277.89 233.34a2.84 2.84 0 1 1 2.84 2.68 2.69 2.69 0 0 1-2.84-2.68Zm4.46 0a1.63 1.63 0 1 0-1.62 1.66 1.59 1.59 0 0 0 1.62-1.66ZM285.47 231.72h-1.66v-1h4.52v1h-1.66v4.21h-1.2ZM293.48 232.62c0 1.16-.87 1.88-2.26 1.88h-1v1.43H289v-5.19h2.24c1.37 0 2.24.72 2.24 1.88Zm-1.22 0c0-.57-.37-.9-1.1-.9h-1v1.8h1c.73 0 1.1-.33 1.1-.9ZM221 251.11c0-4.9 2.72-7.68 6.36-7.68s6.37 2.78 6.37 7.68-2.7 7.68-6.37 7.68S221 256 221 251.11Zm9.27 0c0-3.37-1.19-4.77-2.91-4.77s-2.88 1.4-2.88 4.77 1.19 4.77 2.88 4.77 2.92-1.4 2.92-4.77ZM247.84 254.23c0 2.8-2.5 4.56-6.27 4.56s-6.24-1.76-6.24-4.56a3.78 3.78 0 0 1 2.25-3.5 3.44 3.44 0 0 1-1.72-3c0-2.61 2.33-4.25 5.71-4.25s5.74 1.64 5.74 4.25a3.44 3.44 0 0 1-1.74 3 3.75 3.75 0 0 1 2.27 3.5Zm-3.47-.11c0-1.31-1.09-2.12-2.8-2.12s-2.76.81-2.76 2.12 1.06 2.15 2.76 2.15 2.8-.83 2.8-2.15Zm-5.09-6.3c0 1.13.89 1.83 2.29 1.83s2.33-.7 2.33-1.83-.9-1.82-2.33-1.82-2.29.66-2.29 1.82ZM261.85 254.23c0 2.8-2.51 4.56-6.28 4.56s-6.24-1.76-6.24-4.56a3.78 3.78 0 0 1 2.25-3.5 3.44 3.44 0 0 1-1.72-3c0-2.61 2.34-4.25 5.71-4.25s5.75 1.64 5.75 4.25a3.46 3.46 0 0 1-1.74 3 3.76 3.76 0 0 1 2.27 3.5Zm-3.48-.11c0-1.31-1.08-2.12-2.8-2.12s-2.76.81-2.76 2.12 1.06 2.15 2.76 2.15 2.8-.83 2.8-2.15Zm-5.09-6.3c0 1.13.89 1.83 2.29 1.83s2.33-.7 2.33-1.83-.9-1.82-2.33-1.82-2.29.66-2.29 1.82ZM269.15 243.69v14.85h-3.44v-12.09h-3v-2.76ZM282.83 255.74v2.8h-11.22v-2.23l5.72-5.41c1.32-1.25 1.55-2 1.55-2.74 0-1.16-.8-1.84-2.37-1.84a3.64 3.64 0 0 0-3.08 1.48l-2.5-1.61a6.9 6.9 0 0 1 5.9-2.76c3.3 0 5.51 1.7 5.51 4.39 0 1.45-.4 2.76-2.48 4.69l-3.42 3.23ZM295.22 254c0 2.5-1.93 4.79-6.15 4.79a10.23 10.23 0 0 1-5.67-1.59l1.34-2.63a7.18 7.18 0 0 0 4.24 1.34c1.72 0 2.78-.7 2.78-1.91s-.83-1.83-2.78-1.83h-1.57v-2.27l3.06-3.45h-6.32v-2.76h10.39v2.23l-3.35 3.81c2.67.43 4.03 2.08 4.03 4.27Z" style="fill:#263238"/></svg>