<svg xmlns="http://www.w3.org/2000/svg" viewBox="0 0 500 500"><path d="m295.61 250.06 5.06-2.92s37.88-81.45 40.38-86.54-2-7.68-6.87-4.88L81.6 301.36c-4.85 2.8-6.37 6.64-10.68 15s-39.24 82-39.24 82a4.64 4.64 0 0 0 1.83 5.44L102 443.45l264.18-152.53Z" style="fill:#455a64"/><path d="M74.09 318.4c-3.27 6.35-39.54 82.38-39.54 82.38l269.32-155.49s37.68-77.39 40.35-82.66-2-7.68-6.87-4.89L84.77 303.39c-4.85 2.79-7.4 8.67-10.68 15.01Z" style="fill:#263238"/><path style="fill:#37474f" d="M298.75 248.26 34.55 400.78l69.47 40.12 264.2-152.52-69.47-40.12z"/><path d="M328.1 62.23 73.57 208.91c-5.58 3.23-7.32 8.44-6.34 15.32l30.12 211.39c1 6.87 6.46 10.89 12 7.67L361.67 297.7c5.58-3.22 9.31-11.41 8.33-18.28L340 68.84c-1-6.84-6.31-9.84-11.9-6.61Z" style="fill:#4f52ee"/><path d="M345.26 66.71a7.85 7.85 0 0 0-6.86.86L86.11 213.17a17 17 0 0 0-6.44 7.39l-8.14-3.46c1.79-3.9 4.91-5.33 7.59-6.89l252.27-145.6a7.77 7.77 0 0 1 7.12-.73Z" style="fill:#37474f"/><path d="M105.54 445.42c-2.5-1-4.36-3.62-4.9-7.4L70.79 228.49c-.62-4.29-.82-8.14.74-11.39l8.14 3.45q-.32.67-.6 1.38c-.15.38-.28.76-.4 1.14a1.09 1.09 0 0 0 0 .17 12.44 12.44 0 0 0-.39 1.32c-.12.46-.22.93-.29 1.38a7.67 7.67 0 0 0-.15 1 16.32 16.32 0 0 0 0 4.47L107.8 442c.54 3.82 2.44 6.44 5 7.45Z" style="fill:#263238"/><path d="M338.39 67.58 83.86 214.27c-5.58 3.22-7.32 8.44-6.34 15.31L107.79 442c1 6.87 6.31 9.83 11.89 6.61L372 303.05c5.58-3.22 9.31-11.41 8.32-18.28l-30-210.58c-1.02-6.87-6.32-9.83-11.93-6.61Z" style="fill:#455a64"/><path d="M356.47 302.08 131.28 432c-2.89 1.67-5.65.14-6.16-3.43l-29.7-208.36c-.51-3.56 1.42-7.81 4.31-9.48L324.92 80.78c2.89-1.67 5.65-.13 6.16 3.43l29.7 208.4c.51 3.56-1.42 7.8-4.31 9.47Z" style="fill:#37474f"/><path d="M359.64 298.59a8.62 8.62 0 0 1-3.17 3.49L131.29 432c-2.77 1.61-5.43.25-6.08-3l225.18-129.93a8.76 8.76 0 0 0 3.35-3.85Z" style="fill:#263238"/><path d="m95.42 220.21 29.7 208.39c0 .15 0 .28.08.42l225.19-129.95c2.89-1.67 4.82-5.92 4.31-9.48L324.92 80.78l-225.19 130c-2.89 1.62-4.82 5.87-4.31 9.43Z" style="fill:#fafafa"/><path d="M106.9 349.25a5 5 0 0 1-2.16 4.76c-1.46.84-2.85.07-3.1-1.72a5 5 0 0 1 2.17-4.76c1.45-.84 2.84-.07 3.09 1.72ZM97.06 300.45a3.93 3.93 0 0 0-1.69 3.71l4.92 34.31c.2 1.39 1.28 2 2.41 1.34a3.93 3.93 0 0 0 1.69-3.71l-4.92-34.31c-.2-1.39-1.28-1.99-2.41-1.34Z" style="fill:#263238"/><path d="M336.17 91.67a1.82 1.82 0 0 0-.14-.39s0 0 0-.08a1.38 1.38 0 0 0-.16-.37 2.4 2.4 0 0 0-.37-.53 1.24 1.24 0 0 0-.19-.21 1.22 1.22 0 0 0-.17-.15 2 2 0 0 0-.36-.26 2.53 2.53 0 0 0-.45-.19A4 4 0 0 0 331 90L111.84 216.15c-2.52 1.45-4.26 4.83-3.59 9.53l28.29 197.58c-.29-2 .11.72.11.73l.13.92a3.25 3.25 0 0 0 2.13 2.47l.23.11a1.82 1.82 0 0 0 .28.11 1.94 1.94 0 0 0 .43.11 3.49 3.49 0 0 0 .64 0 3.24 3.24 0 0 0 1.58-.46l.12-.07 4.35-2.51L361.22 301a8.13 8.13 0 0 0 3.88-7.51l-28.83-201.3a4 4 0 0 0-.1-.52Z" style="fill:#fafafa"/><path d="M333.25 90.61a1.86 1.86 0 0 1 .61.1l.16.06h.07l.1.07.12.12.12.13.07.07.22.41.05.06a.62.62 0 0 0 0 .1 4 4 0 0 1 .08.4L363.8 293.7a6.85 6.85 0 0 1-3.23 6.19L145.9 423.56l-4.24 2.44h-.06l-.11.08h-.07a2.09 2.09 0 0 1-.94.3h-.61l-.18-.08-.12-.06h-.13a1.93 1.93 0 0 1-1.32-1.43l-.14-.93v-.05c-.05-.28-.08-.53-.12-.76l-28.31-197.58c-.64-4.43 1.1-7.14 2.94-8.21L331.65 91.09a3.32 3.32 0 0 1 1.6-.48m0-1.31a4.56 4.56 0 0 0-2.25.7L111.84 216.15c-2.52 1.45-4.26 4.83-3.59 9.53l28.27 197.46a487.675 487.675 0 0 0 .13.85l.13.92a3.25 3.25 0 0 0 2.13 2.47l.23.11a1.82 1.82 0 0 0 .28.11 1.94 1.94 0 0 0 .43.11 3.39 3.39 0 0 0 .54.05h.1a3.24 3.24 0 0 0 1.58-.46l.12-.07 4.35-2.51L361.22 301a8.13 8.13 0 0 0 3.88-7.51l-28.83-201.3a4 4 0 0 0-.1-.52 1.82 1.82 0 0 0-.14-.39s0 0 0-.08a1.38 1.38 0 0 0-.16-.37 2.4 2.4 0 0 0-.37-.53 1.24 1.24 0 0 0-.19-.21 1.22 1.22 0 0 0-.17-.15 2 2 0 0 0-.36-.26 2.53 2.53 0 0 0-.45-.19 3.1 3.1 0 0 0-1-.16ZM136.52 423.14v.12-.12Z" style="fill:#4f52ee"/><path d="M334.26 89.46A4 4 0 0 0 331 90L111.84 216.15a8.17 8.17 0 0 0-3.88 7.51l1.17 8.19-6.73-2.85-1.15-8.09a8.12 8.12 0 0 1 3.86-7.5L324.29 87.17a3.83 3.83 0 0 1 3.53-.4c.95.42 5.32 2.23 6.44 2.69Z" style="fill:#4f52ee"/><path d="M336.26 92.17c-.4-2.67-2.75-3.66-5.26-2.21L111.83 216.15a8.16 8.16 0 0 0-3.87 7.51l1.18 8.19 228.3-131.45Z" style="fill:#4f52ee"/><g style="opacity:.2"><path d="M331 90 111.84 216.15a8.25 8.25 0 0 0-3 3.28l-6.69-2.85a7.94 7.94 0 0 1 3-3.22L324.29 87.17a3.83 3.83 0 0 1 3.53-.4c.95.43 5.32 2.25 6.42 2.69A3.92 3.92 0 0 0 331 90Z" style="fill:#fff"/></g><path d="m102.4 229-1.16-8.11a7.31 7.31 0 0 1 .89-4.28l6.71 2.83a7.15 7.15 0 0 0-.87 4.26l1.17 8.18Z" style="opacity:.15"/><path d="M316.33 102.94a3.71 3.71 0 0 0-1.6 3.5c.19 1.32 1.21 1.89 2.28 1.27a3.71 3.71 0 0 0 1.6-3.5c-.19-1.32-1.21-1.89-2.28-1.27ZM323.31 98.9a3.72 3.72 0 0 0-1.6 3.51c.19 1.32 1.21 1.89 2.28 1.27a3.72 3.72 0 0 0 1.6-3.51c-.19-1.32-1.21-1.89-2.28-1.27ZM330.29 94.86a3.72 3.72 0 0 0-1.6 3.51c.19 1.32 1.21 1.89 2.28 1.27a3.72 3.72 0 0 0 1.6-3.51c-.19-1.32-1.21-1.88-2.28-1.27Z" style="fill:#fafafa"/><path d="m138.93 427.39-.29-.11-5.55-2.36a5.2 5.2 0 0 1-3-3.16 4.61 4.61 0 0 1-.14-.62L102.4 229l6.73 2.9 27.64 193.06a3.13 3.13 0 0 0 1.88 2.35Z" style="fill:#4f52ee"/><path d="m138.93 427.39-.29-.11-5.55-2.36a5.2 5.2 0 0 1-3-3.16 4.61 4.61 0 0 1-.14-.62L102.4 229l6.73 2.9 27.64 193.06a3.13 3.13 0 0 0 1.87 2.35Z" style="fill:#fff;opacity:.5"/><path style="fill:#e0e0e0" d="m228.24 192.8-100.31 57.91-2.47-17.26 100.31-57.91 2.47 17.26zM125.46 264.92a1.14 1.14 0 0 1-.57-2.13l206.66-119.32a1.15 1.15 0 0 1 1.56.42 1.13 1.13 0 0 1-.42 1.56L126 264.77a1.18 1.18 0 0 1-.54.15ZM175.78 251.68l-39.48 22.79c-1.44.83-2.81.06-3.07-1.71l-.07-.48a5 5 0 0 1 2.15-4.71l39.48-22.79c1.44-.84 2.81-.07 3.06 1.7l.07.48a5 5 0 0 1-2.14 4.72ZM250.77 208.38l-39.48 22.79c-1.44.83-2.81.07-3.06-1.7l-.07-.48a5 5 0 0 1 2.14-4.72l39.48-22.79c1.44-.83 2.81-.07 3.07 1.7l.06.48a5 5 0 0 1-2.14 4.72ZM325.76 165.08l-39.48 22.79c-1.44.83-2.81.07-3.06-1.7l-.07-.48a5 5 0 0 1 2.15-4.69l39.47-22.79c1.44-.83 2.81-.06 3.07 1.71l.07.48a5 5 0 0 1-2.15 4.68ZM238.8 302.86l-95.15 54.93-9.15-63.86 95.15-54.94 9.15 63.87z"/><path d="m198.65 289.2-20.1-4.39a2.26 2.26 0 0 0-2.71 2.53l4.23 29.53a2.25 2.25 0 0 0 4.13.88l15.88-25.15a2.25 2.25 0 0 0-1.43-3.4Z" style="fill:#fafafa"/><path d="m291.86 211-49.8 28.75c-1.52.88-3 .07-3.25-1.81l-.07-.5a5.3 5.3 0 0 1 2.27-5l49.8-28.75c1.53-.88 3-.07 3.25 1.81l.07.5a5.3 5.3 0 0 1-2.27 5ZM240.49 250.76a1.14 1.14 0 0 1-.58-2.13l94.18-54.38a1.14 1.14 0 1 1 1.14 2l-94.17 54.35a1.1 1.1 0 0 1-.57.16ZM241.8 259.92a1.12 1.12 0 0 1-1-.57 1.14 1.14 0 0 1 .42-1.56l94.17-54.37a1.14 1.14 0 1 1 1.14 2l-94.17 54.37a1.18 1.18 0 0 1-.56.13ZM243.11 269.09a1.16 1.16 0 0 1-1-.57 1.13 1.13 0 0 1 .42-1.56L307 229.75a1.14 1.14 0 0 1 1.15 2l-64.45 37.21a1.18 1.18 0 0 1-.59.13ZM244.42 278.26a1.15 1.15 0 0 1-.57-2.14L338 221.75a1.16 1.16 0 0 1 1.57.42 1.15 1.15 0 0 1-.42 1.56L245 278.1a1.07 1.07 0 0 1-.58.16ZM245.73 287.42a1.14 1.14 0 0 1-.57-2.13l94.18-54.37a1.14 1.14 0 1 1 1.14 2l-94.17 54.37a1.19 1.19 0 0 1-.58.13ZM247.05 296.59a1.14 1.14 0 0 1-.58-2.13l39.68-22.91a1.14 1.14 0 1 1 1.14 2l-39.67 22.91a1.18 1.18 0 0 1-.57.13ZM247.67 364.81l-5.54-38.71-95.15 54.93 5.54 38.72 95.15-54.94z" style="fill:#e0e0e0"/><path d="M212.55 379.71a2.26 2.26 0 0 0-1.43-3.41L191 371.92a2.25 2.25 0 0 0-2.71 2.52l3.26 22.76 15.63-9Z" style="fill:#fafafa"/><path d="m304.33 298.09-49.8 28.76c-1.52.88-3 .07-3.25-1.81l-.07-.51a5.27 5.27 0 0 1 2.28-5l49.79-28.76c1.53-.88 3-.07 3.25 1.81l.08.51a5.29 5.29 0 0 1-2.28 5ZM253 337.86a1.12 1.12 0 0 1-1-.57 1.14 1.14 0 0 1 .41-1.56l94.18-54.37a1.14 1.14 0 1 1 1.14 2l-94.17 54.37a1.18 1.18 0 0 1-.56.13ZM254.27 347a1.15 1.15 0 0 1-1-.57 1.13 1.13 0 0 1 .42-1.56l94.17-54.38a1.15 1.15 0 0 1 1.56.42 1.14 1.14 0 0 1-.41 1.56l-94.18 54.38a1.18 1.18 0 0 1-.56.15ZM255.58 356.19a1.14 1.14 0 0 1-.57-2.13l64.44-37.21a1.16 1.16 0 0 1 1.57.42 1.15 1.15 0 0 1-.42 1.56L256.15 356a1.06 1.06 0 0 1-.57.19ZM258 157.23a1.14 1.14 0 0 1-.58-2.13l59.15-34.1a1.14 1.14 0 0 1 1.14 2l-59.12 34.12a1.1 1.1 0 0 1-.59.11ZM259.33 166.39a1.12 1.12 0 0 1-1-.57 1.14 1.14 0 0 1 .42-1.56l59.12-34.12a1.14 1.14 0 1 1 1.14 2l-59.11 34.1a1.18 1.18 0 0 1-.57.15ZM260.64 175.56a1.16 1.16 0 0 1-1-.57 1.14 1.14 0 0 1 .42-1.56l59.11-34.13a1.14 1.14 0 0 1 1.15 2l-59.12 34.13a1.16 1.16 0 0 1-.56.13Z" style="fill:#e0e0e0"/><path d="M126.6 243.15a3.9 3.9 0 0 1 .2-.47 4 4 0 0 0-.2.47Z" style="fill:#ebebeb"/><path d="M331.86 125.31a1.3 1.3 0 0 0-1.23-.74 2.2 2.2 0 0 0-1 .31L128.17 241.2a3.7 3.7 0 0 0-1.37 1.48l-7.07-3a3.72 3.72 0 0 1 1.31-1.41l201.5-116.32a5.61 5.61 0 0 1 4.43-.19l2.38 1a4.75 4.75 0 0 1 2.51 2.55Z" style="fill:#37474f;opacity:.5"/><g style="opacity:.9"><path d="M152 407.91a5.76 5.76 0 0 1-4.43.21l-2.36-1.12a4.71 4.71 0 0 1-2.69-3.17l-23.22-162.2a3.3 3.3 0 0 1 .43-2l7.09 3a3.18 3.18 0 0 0-.39 1.89l23.24 162.34a1.44 1.44 0 0 0 2.33 1.05Z" style="fill:#263238"/></g><g style="opacity:.85"><path d="M330.62 124.58a2.06 2.06 0 0 0-.95.3L128.17 241.2a3.68 3.68 0 0 0-1.74 3.37l23.24 162.34a1.35 1.35 0 0 0 1.41 1.3 2.06 2.06 0 0 0 .95-.3l201.5-116.32a3.66 3.66 0 0 0 1.74-3.37L332 125.88a1.36 1.36 0 0 0-1.41-1.3Z" style="fill:#37474f"/></g><path d="m330.49 126.08 23.22 162.2a2.53 2.53 0 0 1-1.13 2.19L151.21 406.72 128 244.51a2.5 2.5 0 0 1 1.13-2.18l201.36-116.25m.13-1.5a2.06 2.06 0 0 0-.95.3L128.17 241.2a3.68 3.68 0 0 0-1.74 3.37l23.24 162.34a1.35 1.35 0 0 0 1.41 1.3 2.06 2.06 0 0 0 .95-.3l201.5-116.32a3.66 3.66 0 0 0 1.74-3.37L332 125.88a1.36 1.36 0 0 0-1.41-1.3Z" style="fill:#455a64"/><path d="M198.66 221.79a6.85 6.85 0 0 1 2.47-.92 4.8 4.8 0 0 1 2.06.1 3.26 3.26 0 0 1 1.48.89 2.7 2.7 0 0 1 .71 1.42.84.84 0 0 1-.07.46.7.7 0 0 1-.28.34l-2.68 1.55a.84.84 0 0 1-.87.07l-.23-.14a1.14 1.14 0 0 0-.43-.15 1.9 1.9 0 0 0-.66 0 2.9 2.9 0 0 0-.92.38 6.32 6.32 0 0 0-.74.49 4.19 4.19 0 0 0-.61.57 2.29 2.29 0 0 0-.39.65 1.4 1.4 0 0 0-.08.73.69.69 0 0 0 .28.52 1.25 1.25 0 0 0 .72.09 7.77 7.77 0 0 0 1.28-.29l2-.61a8.63 8.63 0 0 1 2.06-.43 3.21 3.21 0 0 1 1.56.26 2.48 2.48 0 0 1 1 1 5.35 5.35 0 0 1 .57 1.89 6.56 6.56 0 0 1-.14 2.57 9 9 0 0 1-1.07 2.49 11.77 11.77 0 0 1-1.85 2.25 13 13 0 0 1-2.47 1.84 8.21 8.21 0 0 1-2.6 1 5.1 5.1 0 0 1-2.15-.06 3.32 3.32 0 0 1-1.54-.93 3.11 3.11 0 0 1-.76-1.6.89.89 0 0 1 .08-.47.66.66 0 0 1 .27-.33l2.68-1.55a1 1 0 0 1 .46-.17.84.84 0 0 1 .37.07l.29.19a1.51 1.51 0 0 0 .51.21 1.86 1.86 0 0 0 .75 0 3 3 0 0 0 1.06-.42 8 8 0 0 0 1.77-1.33 1.72 1.72 0 0 0 .58-1.46.53.53 0 0 0-.36-.48 1.85 1.85 0 0 0-.86 0 12.13 12.13 0 0 0-1.42.37c-.58.19-1.25.4-2 .63a4 4 0 0 1-3.34-.08 3.88 3.88 0 0 1-1.47-2.9 6.62 6.62 0 0 1 .1-2.29 9.22 9.22 0 0 1 .91-2.41 10.37 10.37 0 0 1 1.66-2.25 10.09 10.09 0 0 1 2.31-1.76ZM210.24 234.46a.4.4 0 0 1-.42 0 .49.49 0 0 1-.23-.39l-2.33-16.27a1 1 0 0 1 .1-.57.82.82 0 0 1 .36-.43l2.67-1.55a.42.42 0 0 1 .42 0 .47.47 0 0 1 .23.39l2.33 16.27a1 1 0 0 1-.09.57.92.92 0 0 1-.36.43ZM220.22 213.7a4.1 4.1 0 0 0-1.81 2 4.43 4.43 0 0 0-.3 1.19 8.24 8.24 0 0 0-.05 1.22c0 .24 0 .55.08.94s.1.79.16 1.2.13.81.2 1.2.12.68.17.89a4.06 4.06 0 0 0 .35 1 1.75 1.75 0 0 0 .58.67 1.38 1.38 0 0 0 .87.2 2.93 2.93 0 0 0 1.19-.43 5.1 5.1 0 0 0 1-.73 4 4 0 0 0 .75-1 3.54 3.54 0 0 0 .43-1.18 4.07 4.07 0 0 0 0-1.4l-1.72 1a.4.4 0 0 1-.42 0 .46.46 0 0 1-.23-.38l-.39-2.67a1.07 1.07 0 0 1 .1-.57.92.92 0 0 1 .36-.43l4.95-2.86a.42.42 0 0 1 .42 0 .49.49 0 0 1 .23.38l.46 3.23a9.43 9.43 0 0 1-.08 3.18 11 11 0 0 1-1 3 11.61 11.61 0 0 1-1.82 2.53 10.76 10.76 0 0 1-2.44 1.93 6.77 6.77 0 0 1-2.7 1 3.92 3.92 0 0 1-2.19-.33 3.82 3.82 0 0 1-1.57-1.45 7.13 7.13 0 0 1-.88-2.35c-.12-.67-.24-1.4-.35-2.19s-.21-1.55-.29-2.29a9.89 9.89 0 0 1 .12-2.91 11.13 11.13 0 0 1 .94-2.91 11.41 11.41 0 0 1 1.76-2.61 10.57 10.57 0 0 1 2.56-2.07 7.16 7.16 0 0 1 2.66-1 4.58 4.58 0 0 1 2.13.19 3.49 3.49 0 0 1 1.49 1 3.26 3.26 0 0 1 .75 1.51.67.67 0 0 1-.07.47.81.81 0 0 1-.3.35l-2.72 1.57a.48.48 0 0 1-.51.05l-.41-.26a1.86 1.86 0 0 0-.89-.38 2.63 2.63 0 0 0-1.57.5ZM240.18 217.18a.66.66 0 0 1-.59.09.79.79 0 0 1-.33-.19l-5.91-5.91 1.21 8.51a1 1 0 0 1-.09.58.84.84 0 0 1-.36.42l-2.68 1.55a.38.38 0 0 1-.42 0 .49.49 0 0 1-.23-.38l-2.33-16.27a1 1 0 0 1 .1-.58.84.84 0 0 1 .36-.42l2.12-1.23a.69.69 0 0 1 .6-.1 1.14 1.14 0 0 1 .32.19l5.92 5.91-1.22-8.51a1.08 1.08 0 0 1 .1-.57.92.92 0 0 1 .36-.43l2.68-1.54a.39.39 0 0 1 .41 0 .51.51 0 0 1 .24.39l2.33 16.31a1.07 1.07 0 0 1-.1.57.92.92 0 0 1-.36.43ZM259.28 187.06a.42.42 0 0 1 .42 0 .51.51 0 0 1 .23.38l1.44 10.05a11.32 11.32 0 0 1 0 3.34 10.72 10.72 0 0 1-1 3 10.5 10.5 0 0 1-1.78 2.51 11 11 0 0 1-2.45 1.92 7.78 7.78 0 0 1-2.6 1 3.42 3.42 0 0 1-3.75-1.75 7.68 7.68 0 0 1-.89-2.82l-1.44-10.05a1.08 1.08 0 0 1 .1-.57.92.92 0 0 1 .36-.43l2.68-1.54a.39.39 0 0 1 .41 0 .51.51 0 0 1 .24.39l1.42 10a2.85 2.85 0 0 0 .94 2c.49.34 1.14.27 2-.2a3.81 3.81 0 0 0 1.7-1.92 5.25 5.25 0 0 0 .27-2.71l-1.43-9.95a1.1 1.1 0 0 1 .1-.58.94.94 0 0 1 .36-.42ZM269 181.48a8.42 8.42 0 0 1 2.41-1 3.36 3.36 0 0 1 1.93.09 2.87 2.87 0 0 1 1.41 1.19 6 6 0 0 1 .76 2.34 8.92 8.92 0 0 1 0 2.83 8.19 8.19 0 0 1-.87 2.49 9.1 9.1 0 0 1-1.62 2.13 10.69 10.69 0 0 1-2.3 1.74L268 194.8l.73 5.14a1 1 0 0 1-.09.57.92.92 0 0 1-.36.43l-2.68 1.55a.42.42 0 0 1-.42 0 .47.47 0 0 1-.23-.39l-2.33-16.27a1 1 0 0 1 .09-.57.92.92 0 0 1 .36-.43Zm-1.49 9.39 2.52-1.45a3.8 3.8 0 0 0 1.35-1.29 2.65 2.65 0 0 0 .35-1.84q-.15-1.06-.78-1.2a2.08 2.08 0 0 0-1.49.35l-2.52 1.45ZM173.76 270.11c0 .36.08.7.13 1s.1.64.16 1a1.81 1.81 0 0 0 .72 1.32 1.32 1.32 0 0 0 1.4-.15 3.13 3.13 0 0 0 .76-.59 2.69 2.69 0 0 0 .72-1.37 4.3 4.3 0 0 0 .08-.69.52.52 0 0 1 .07-.25.42.42 0 0 1 .15-.15l.44-.26a.16.16 0 0 1 .16 0 .2.2 0 0 1 .09.15 3.52 3.52 0 0 1 0 .95 5 5 0 0 1-.35 1.15 5.13 5.13 0 0 1-.74 1.16 4.16 4.16 0 0 1-1.19 1 2.65 2.65 0 0 1-1.15.4 1.64 1.64 0 0 1-.94-.18 1.79 1.79 0 0 1-.69-.7 3.43 3.43 0 0 1-.4-1.17c-.12-.69-.22-1.39-.3-2.11a5.55 5.55 0 0 1 0-1.41 4.93 4.93 0 0 1 1.15-2.49 4.08 4.08 0 0 1 1.08-.89 2.92 2.92 0 0 1 1.27-.44 1.73 1.73 0 0 1 .93.21 1.7 1.7 0 0 1 .6.59 2.14 2.14 0 0 1 .28.76.47.47 0 0 1 0 .23.44.44 0 0 1-.14.16l-.44.26a.33.33 0 0 1-.17 0 .18.18 0 0 1-.12-.14 2.09 2.09 0 0 0-.32-.46.89.89 0 0 0-.39-.33 1 1 0 0 0-.58-.07 2.27 2.27 0 0 0-.8.31 2.86 2.86 0 0 0-1.23 1.37 3.82 3.82 0 0 0-.24 1.83ZM181.83 264.35a.17.17 0 0 1 .19 0 .21.21 0 0 1 .11.18l.06.38a.44.44 0 0 1-.05.27.42.42 0 0 1-.17.2l-.56.32a1.82 1.82 0 0 0-.91 2l.5 3.47a.52.52 0 0 1-.05.27.42.42 0 0 1-.17.2l-.35.21a.21.21 0 0 1-.2 0 .25.25 0 0 1-.11-.18l-.79-5.54a.43.43 0 0 1 0-.27.42.42 0 0 1 .17-.2l.36-.21a.2.2 0 0 1 .2 0 .25.25 0 0 1 .1.18l.06.37a2.34 2.34 0 0 1 .39-.79 2.31 2.31 0 0 1 .68-.57ZM183 266.4a4.37 4.37 0 0 1 .06-1.14 4.46 4.46 0 0 1 .34-1.09 3.88 3.88 0 0 1 .59-.95 3.37 3.37 0 0 1 .84-.71 2.29 2.29 0 0 1 1-.33 1.32 1.32 0 0 1 .79.2 1.72 1.72 0 0 1 .58.7 4 4 0 0 1 .33 1.15v.32a.43.43 0 0 1 0 .27.45.45 0 0 1-.17.21l-3.36 1.91v.06a1.27 1.27 0 0 0 .58 1 1 1 0 0 0 1-.11 2.46 2.46 0 0 0 .77-.64 3.18 3.18 0 0 0 .37-.66.9.9 0 0 1 .12-.21.63.63 0 0 1 .17-.14l.29-.16a.21.21 0 0 1 .2 0 .17.17 0 0 1 .1.18 2.22 2.22 0 0 1-.09.57 3.13 3.13 0 0 1-.33.7 4.06 4.06 0 0 1-.58.74 4.32 4.32 0 0 1-.87.66 1.89 1.89 0 0 1-.9.29 1.37 1.37 0 0 1-.75-.18 1.73 1.73 0 0 1-.58-.59 3 3 0 0 1-.37-.95 6.34 6.34 0 0 1-.13-1.1Zm.86-.46 2.71-1.56a1.16 1.16 0 0 0-.54-.94 1.07 1.07 0 0 0-1 .14 1.81 1.81 0 0 0-.51.41 2.83 2.83 0 0 0-.38.57 2.49 2.49 0 0 0-.21.67 2.18 2.18 0 0 0 0 .72ZM188.5 265.5a2.57 2.57 0 0 1 0-.92 3.29 3.29 0 0 1 .34-.85 4.2 4.2 0 0 1 .58-.77 6.75 6.75 0 0 1 .73-.68l1.32-1.06v-.15c-.06-.41-.21-.65-.46-.73a1.06 1.06 0 0 0-.84.17 1.63 1.63 0 0 0-.62.56 2.8 2.8 0 0 0-.3.66 1 1 0 0 1-.11.21 1 1 0 0 1-.18.14l-.29.16a.19.19 0 0 1-.2 0 .21.21 0 0 1-.11-.19 1.71 1.71 0 0 1 .1-.63 2.89 2.89 0 0 1 .33-.72 4.31 4.31 0 0 1 .54-.69 3.27 3.27 0 0 1 .69-.55 2.5 2.5 0 0 1 .83-.31 1.25 1.25 0 0 1 .7.09 1.18 1.18 0 0 1 .52.5 2.37 2.37 0 0 1 .29.92l.52 3.62a.51.51 0 0 1 0 .27.43.43 0 0 1-.17.2l-.36.21a.21.21 0 0 1-.2 0 .26.26 0 0 1-.11-.18l-.07-.49a1.6 1.6 0 0 1-.21.56 3.7 3.7 0 0 1-.38.53 4 4 0 0 1-.46.46 4.87 4.87 0 0 1-.47.34 2.06 2.06 0 0 1-.71.26 1.1 1.1 0 0 1-.58 0 .81.81 0 0 1-.42-.34 1.25 1.25 0 0 1-.24-.6Zm1.87-.37a2.47 2.47 0 0 0 .61-.5 2.61 2.61 0 0 0 .45-.65 2.41 2.41 0 0 0 .24-.73 2.55 2.55 0 0 0 0-.78v-.3l-1.11.89a4.39 4.39 0 0 0-.91.93 1.26 1.26 0 0 0-.26.88.62.62 0 0 0 .08.24.46.46 0 0 0 .2.16.48.48 0 0 0 .3 0 1.26 1.26 0 0 0 .4-.14ZM195.3 261a2.15 2.15 0 0 0 .09.4.7.7 0 0 0 .17.27.39.39 0 0 0 .28.08 1.17 1.17 0 0 0 .42-.16l.51-.3a.21.21 0 0 1 .2 0 .21.21 0 0 1 .11.18v.38a.43.43 0 0 1 0 .27.38.38 0 0 1-.17.2l-.61.35c-.56.33-1 .38-1.29.17a1.9 1.9 0 0 1-.6-1.33l-.44-3.07-.71.41a.21.21 0 0 1-.2 0 .21.21 0 0 1-.11-.18l-.05-.38a.49.49 0 0 1 .21-.47l.72-.41-.28-1.94a.51.51 0 0 1 0-.27.49.49 0 0 1 .17-.2l.36-.21a.21.21 0 0 1 .2 0 .23.23 0 0 1 .11.18l.27 1.94 1.23-.71a.21.21 0 0 1 .2 0 .22.22 0 0 1 .1.18l.06.38a.51.51 0 0 1 0 .27.49.49 0 0 1-.17.2l-1.23.71ZM197.39 258.07a4.59 4.59 0 0 1 .4-2.24 3.88 3.88 0 0 1 .59-1 3.14 3.14 0 0 1 .84-.7 2.29 2.29 0 0 1 1-.33 1.26 1.26 0 0 1 .79.19 1.79 1.79 0 0 1 .58.7 4.11 4.11 0 0 1 .33 1.16v.32a.44.44 0 0 1 0 .27.42.42 0 0 1-.17.2l-3.32 1.91v.08a1.29 1.29 0 0 0 .58 1 1.05 1.05 0 0 0 1-.12 2.33 2.33 0 0 0 .77-.64 3.18 3.18 0 0 0 .37-.66 1.72 1.72 0 0 1 .12-.21.5.5 0 0 1 .17-.13l.29-.17a.21.21 0 0 1 .2 0c.07 0 .1.09.1.19a2.21 2.21 0 0 1-.09.56 2.94 2.94 0 0 1-.33.7 4.17 4.17 0 0 1-.58.74 4 4 0 0 1-.87.66 1.92 1.92 0 0 1-.9.3 1.28 1.28 0 0 1-.75-.19 1.64 1.64 0 0 1-.58-.59 3 3 0 0 1-.37-.95 6.36 6.36 0 0 1-.17-1.05Zm.86-.46L201 256a1.16 1.16 0 0 0-.54-.95 1.09 1.09 0 0 0-1 .14 2.24 2.24 0 0 0-.51.41 2.83 2.83 0 0 0-.38.57 2.72 2.72 0 0 0-.24 1.39ZM205.29 255.8a2.58 2.58 0 0 1 0-.92 3.06 3.06 0 0 1 .33-.85 4.14 4.14 0 0 1 .58-.76 7.94 7.94 0 0 1 .73-.69l1.32-1.05v-.16q-.09-.6-.45-.72a1.06 1.06 0 0 0-.85.16 1.71 1.71 0 0 0-.62.56 3.11 3.11 0 0 0-.3.67.75.75 0 0 1-.11.2.54.54 0 0 1-.18.14l-.29.17a.21.21 0 0 1-.2 0 .19.19 0 0 1-.1-.18 1.68 1.68 0 0 1 .09-.63 2.89 2.89 0 0 1 .33-.72 3.9 3.9 0 0 1 .54-.69 3 3 0 0 1 .69-.55 2.36 2.36 0 0 1 .83-.31 1.24 1.24 0 0 1 .7.08 1.19 1.19 0 0 1 .52.5 2.43 2.43 0 0 1 .29.92l.52 3.63a.45.45 0 0 1 0 .27.42.42 0 0 1-.17.2l-.36.2a.17.17 0 0 1-.19 0 .19.19 0 0 1-.11-.18l-.07-.48a1.92 1.92 0 0 1-.22.55 2.72 2.72 0 0 1-.38.53 4.09 4.09 0 0 1-.46.47 3.73 3.73 0 0 1-.47.33 2.1 2.1 0 0 1-.71.27 1.1 1.1 0 0 1-.58 0 .82.82 0 0 1-.41-.33 1.47 1.47 0 0 1-.24-.63Zm1.87-.37a2.48 2.48 0 0 0 .62-.5 2.52 2.52 0 0 0 .44-.64 2.47 2.47 0 0 0 .24-.74 2.27 2.27 0 0 0 0-.78v-.29l-1.11.88a4.43 4.43 0 0 0-.91.94 1.25 1.25 0 0 0-.26.88.46.46 0 0 0 .09.23.43.43 0 0 0 .19.16.48.48 0 0 0 .3 0 1.09 1.09 0 0 0 .4-.14ZM218 250.13a.23.23 0 0 1-.24 0 .7.7 0 0 1-.19-.15l-4-4 .84 5.84a.44.44 0 0 1-.05.27.38.38 0 0 1-.17.2l-.39.23a.21.21 0 0 1-.2 0 .25.25 0 0 1-.11-.19l-1.1-7.67a.44.44 0 0 1 .05-.27.42.42 0 0 1 .17-.2l.34-.2a.23.23 0 0 1 .24 0 .9.9 0 0 1 .19.15l4 4-.84-5.85a.44.44 0 0 1 .05-.27.42.42 0 0 1 .17-.2l.39-.23a.21.21 0 0 1 .2 0 .26.26 0 0 1 .11.18l1.1 7.68a.56.56 0 0 1-.05.27.42.42 0 0 1-.17.2ZM219.43 245.34a4.37 4.37 0 0 1 .06-1.14 4.54 4.54 0 0 1 .34-1.1 3.82 3.82 0 0 1 .59-.94 3.17 3.17 0 0 1 .84-.71 2.29 2.29 0 0 1 1-.33 1.27 1.27 0 0 1 .79.2 1.75 1.75 0 0 1 .58.69 4.21 4.21 0 0 1 .33 1.16l.05.32a.52.52 0 0 1-.05.27.38.38 0 0 1-.17.2l-3.32 1.92v.12a1.27 1.27 0 0 0 .58 1 1.07 1.07 0 0 0 1-.11 2.35 2.35 0 0 0 .77-.65 2.89 2.89 0 0 0 .37-.65.9.9 0 0 1 .12-.21.51.51 0 0 1 .17-.14l.29-.17a.21.21 0 0 1 .2 0 .17.17 0 0 1 .1.18 1.85 1.85 0 0 1-.09.57 3.86 3.86 0 0 1-.32.7 4.72 4.72 0 0 1-.59.73 4 4 0 0 1-.87.67 2 2 0 0 1-.9.29 1.37 1.37 0 0 1-.75-.18 1.73 1.73 0 0 1-.58-.59 3.1 3.1 0 0 1-.37-1 6.1 6.1 0 0 1-.17-1.1Zm.86-.46 2.71-1.56a1.14 1.14 0 0 0-.54-.94 1.07 1.07 0 0 0-1.05.14 1.81 1.81 0 0 0-.51.41 2.76 2.76 0 0 0-.38.56 2.56 2.56 0 0 0-.21.68 2.16 2.16 0 0 0 0 .72ZM229.86 241.22l.51-4.59a.79.79 0 0 1 .08-.25.47.47 0 0 1 .2-.22l.35-.16a.17.17 0 0 1 .18 0 .22.22 0 0 1 .09.17.31.31 0 0 1 0 .1l-.69 6.31a2.21 2.21 0 0 1-.07.3.39.39 0 0 1-.18.2l-.3.18c-.08 0-.15.05-.2 0a.73.73 0 0 1-.14-.16l-1.69-3.33-.59 4.61a1.32 1.32 0 0 1-.08.3.39.39 0 0 1-.17.21l-.3.17a.17.17 0 0 1-.2 0 .54.54 0 0 1-.14-.18l-2.25-4.61v-.09a.51.51 0 0 1 0-.24.45.45 0 0 1 .15-.18l.32-.18q.15-.09.24 0a.3.3 0 0 1 .13.12l1.65 3.35.59-4.64a1.4 1.4 0 0 1 .06-.24.41.41 0 0 1 .2-.21l.21-.13c.1-.05.17-.06.22 0a.41.41 0 0 1 .12.14ZM239 236l-3.35 1.93-.28 1.87a1.13 1.13 0 0 1-.07.26.63.63 0 0 1-.26.25l-.36.21a.15.15 0 0 1-.16 0 .2.2 0 0 1-.09-.15.8.8 0 0 1 0-.19l1.29-8.86a1.33 1.33 0 0 1 .11-.34.56.56 0 0 1 .27-.3l.58-.33a.27.27 0 0 1 .3 0 .52.52 0 0 1 .18.18l3.43 6.14a.37.37 0 0 1 .07.14.6.6 0 0 1 0 .22.37.37 0 0 1-.14.16l-.36.21c-.13.07-.22.09-.28 0a.35.35 0 0 1-.14-.13Zm-3.17.67 2.68-1.55-1.94-3.47ZM241.81 233.51a2.12 2.12 0 0 0 .28.72 1 1 0 0 0 .4.36.8.8 0 0 0 .46.07 1.3 1.3 0 0 0 .49-.17 2.47 2.47 0 0 0 .76-.67 2.5 2.5 0 0 0 .41-1 1.06 1.06 0 0 1 .1-.34.44.44 0 0 1 .17-.16l.29-.17a.18.18 0 0 1 .2 0 .21.21 0 0 1 .11.18 2.34 2.34 0 0 1-.06.71 3.75 3.75 0 0 1-.33.87 4.74 4.74 0 0 1-.6.88 3.32 3.32 0 0 1-.91.74 2.28 2.28 0 0 1-1 .33 1.32 1.32 0 0 1-.77-.18 1.6 1.6 0 0 1-.57-.61 2.78 2.78 0 0 1-.33-1c0-.12-.06-.28-.09-.46s0-.35 0-.49a5.8 5.8 0 0 1 0-1.18 4.53 4.53 0 0 1 .32-1.12 3.8 3.8 0 0 1 .6-1 3.18 3.18 0 0 1 .91-.75 2.19 2.19 0 0 1 1-.34 1.73 1.73 0 0 1 .74.1 1.25 1.25 0 0 1 .51.39 1.52 1.52 0 0 1 .24.54.54.54 0 0 1 0 .27.51.51 0 0 1-.18.2l-.29.17a.28.28 0 0 1-.19 0 .42.42 0 0 1-.17-.18.83.83 0 0 0-.62-.42 1.53 1.53 0 0 0-.82.25 2.14 2.14 0 0 0-.84.93 3.13 3.13 0 0 0-.24.73 3 3 0 0 0 0 .9 4.86 4.86 0 0 0 .02.9ZM247.16 230.42a2.12 2.12 0 0 0 .28.72 1 1 0 0 0 .4.36.82.82 0 0 0 .47.07 1.32 1.32 0 0 0 .48-.17 2.6 2.6 0 0 0 .76-.67 2.36 2.36 0 0 0 .41-1 1.28 1.28 0 0 1 .1-.34.52.52 0 0 1 .17-.16l.29-.17a.21.21 0 0 1 .2 0 .22.22 0 0 1 .11.19 2.34 2.34 0 0 1-.06.71 3.35 3.35 0 0 1-.33.87 4.3 4.3 0 0 1-.6.88 3.43 3.43 0 0 1-.9.74 2.38 2.38 0 0 1-1 .33 1.41 1.41 0 0 1-.78-.18 1.6 1.6 0 0 1-.57-.61 3.35 3.35 0 0 1-.33-1c0-.12 0-.28-.08-.46s-.05-.35-.06-.49a5.8 5.8 0 0 1 0-1.18 4.52 4.52 0 0 1 .31-1.12 3.8 3.8 0 0 1 .6-1 3.54 3.54 0 0 1 .97-.74 2.29 2.29 0 0 1 1-.33 1.59 1.59 0 0 1 .74.1 1.18 1.18 0 0 1 .51.39 1.45 1.45 0 0 1 .24.54.45.45 0 0 1 0 .27.51.51 0 0 1-.18.2l-.28.17a.3.3 0 0 1-.19 0 .38.38 0 0 1-.18-.18.81.81 0 0 0-.61-.42 1.51 1.51 0 0 0-.82.25 2 2 0 0 0-.47.37 2.89 2.89 0 0 0-.38.56 3.68 3.68 0 0 0-.24.73 3.3 3.3 0 0 0 0 .9 4.86 4.86 0 0 0 .02.87ZM253.4 222.9a2.32 2.32 0 0 1 1-.34 1.33 1.33 0 0 1 .77.14 1.58 1.58 0 0 1 .58.57 3.7 3.7 0 0 1 .36 1v.25c0 .1 0 .2.05.3s0 .21 0 .31v.25a6 6 0 0 1-.06 1.21 4 4 0 0 1-.33 1.09 4.14 4.14 0 0 1-.62.94 3.39 3.39 0 0 1-.9.73 2.33 2.33 0 0 1-.95.34 1.35 1.35 0 0 1-.78-.14 1.55 1.55 0 0 1-.57-.57 3 3 0 0 1-.36-1 1.14 1.14 0 0 1 0-.23 2.87 2.87 0 0 1-.05-.31V226.87a4.36 4.36 0 0 1 .05-1.2 4 4 0 0 1 .34-1.1 3.89 3.89 0 0 1 .61-.94 3.39 3.39 0 0 1 .86-.73Zm1.94 2.89c0-.14 0-.31-.05-.5s-.06-.36-.09-.5a2.69 2.69 0 0 0-.22-.59 1 1 0 0 0-.35-.38.83.83 0 0 0-.48-.11 1.4 1.4 0 0 0-.6.21 2 2 0 0 0-.57.47 2.35 2.35 0 0 0-.38.6 3.2 3.2 0 0 0-.19.69 4.54 4.54 0 0 0 0 .74c0 .15 0 .32.05.51s.06.36.09.49a2.42 2.42 0 0 0 .23.59 1 1 0 0 0 .34.38.85.85 0 0 0 .48.11 1.35 1.35 0 0 0 .6-.21 2 2 0 0 0 .57-.47 2.35 2.35 0 0 0 .38-.6 2.72 2.72 0 0 0 .19-.69 3.67 3.67 0 0 0 0-.74ZM256.93 221.34a.43.43 0 0 1 0-.27.38.38 0 0 1 .17-.2l.36-.21a.21.21 0 0 1 .2 0 .24.24 0 0 1 .11.18l.44 3.14a1.64 1.64 0 0 0 .53 1.17 1 1 0 0 0 1-.11 2.12 2.12 0 0 0 .89-1 2.85 2.85 0 0 0 .15-1.57l-.45-3.13a.51.51 0 0 1 0-.27.43.43 0 0 1 .17-.2l.36-.21a.18.18 0 0 1 .2 0 .21.21 0 0 1 .11.18l.79 5.54a.46.46 0 0 1-.05.27.41.41 0 0 1-.16.2l-.36.2a.18.18 0 0 1-.2 0 .24.24 0 0 1-.11-.18l-.05-.37a3.69 3.69 0 0 1-.44.86 2.67 2.67 0 0 1-.89.79 2.14 2.14 0 0 1-.86.29 1.23 1.23 0 0 1-.72-.15 1.4 1.4 0 0 1-.53-.59 3 3 0 0 1-.31-1ZM268 221a.45.45 0 0 1 0 .27.42.42 0 0 1-.17.2l-.36.2a.19.19 0 0 1-.19 0 .22.22 0 0 1-.11-.19l-.45-3.13c-.09-.61-.27-1-.56-1.16a1 1 0 0 0-1.05.12 2.18 2.18 0 0 0-.92 1 2.79 2.79 0 0 0-.17 1.58l.44 3.13a.43.43 0 0 1 0 .27.38.38 0 0 1-.17.2l-.36.21a.19.19 0 0 1-.19 0 .21.21 0 0 1-.11-.18l-.8-5.54a.5.5 0 0 1 0-.26.41.41 0 0 1 .17-.21l.36-.2a.17.17 0 0 1 .19 0 .21.21 0 0 1 .11.18l.05.37a3.76 3.76 0 0 1 .47-.87 2.89 2.89 0 0 1 .91-.81 2.18 2.18 0 0 1 .87-.29 1.19 1.19 0 0 1 .73.14 1.38 1.38 0 0 1 .55.59 3 3 0 0 1 .32 1ZM270.37 217.67a2.15 2.15 0 0 0 .09.4.6.6 0 0 0 .17.27.36.36 0 0 0 .28.08 1.25 1.25 0 0 0 .42-.16l.51-.3a.2.2 0 0 1 .2 0 .27.27 0 0 1 .1.18l.06.38a.44.44 0 0 1-.05.27.34.34 0 0 1-.17.2l-.6.36c-.56.32-1 .37-1.3.16a1.86 1.86 0 0 1-.59-1.32l-.44-3.08-.72.41a.17.17 0 0 1-.19 0 .21.21 0 0 1-.11-.18L268 215a.44.44 0 0 1 0-.27.42.42 0 0 1 .17-.2l.71-.41-.28-1.94a.52.52 0 0 1 .05-.27.42.42 0 0 1 .17-.2l.36-.21a.19.19 0 0 1 .19 0 .25.25 0 0 1 .11.18l.28 1.94 1.22-.71a.21.21 0 0 1 .2 0 .25.25 0 0 1 .11.18l.05.38a.43.43 0 0 1 0 .27.45.45 0 0 1-.17.21l-1.22.7ZM275.47 208.92a.51.51 0 0 1 0 .27.42.42 0 0 1-.17.2l-.55.32a.21.21 0 0 1-.2 0 .21.21 0 0 1-.11-.18l-.1-.68a.52.52 0 0 1 .05-.27.42.42 0 0 1 .17-.2l.55-.32a.21.21 0 0 1 .2 0 .24.24 0 0 1 .1.18Zm.92 7.17a.43.43 0 0 1 0 .27.42.42 0 0 1-.17.2l-.36.21a.19.19 0 0 1-.19 0 .25.25 0 0 1-.11-.18l-.8-5.54a.54.54 0 0 1 0-.27.42.42 0 0 1 .17-.2l.36-.2a.17.17 0 0 1 .19 0 .25.25 0 0 1 .11.19ZM280.5 212.22a.43.43 0 0 0-.16-.32.49.49 0 0 0-.34-.08 2.87 2.87 0 0 0-.54.1l-.76.22a1.35 1.35 0 0 1-1.19 0 1.36 1.36 0 0 1-.47-.92 2.38 2.38 0 0 1 0-.75 2.69 2.69 0 0 1 .26-.77 3.17 3.17 0 0 1 .53-.72 3.35 3.35 0 0 1 .8-.62 2.73 2.73 0 0 1 .85-.35 1.54 1.54 0 0 1 .64 0 .93.93 0 0 1 .43.22.79.79 0 0 1 .2.37.45.45 0 0 1 0 .27.51.51 0 0 1-.18.2l-.32.19a.38.38 0 0 1-.14 0 .23.23 0 0 1-.17 0 .6.6 0 0 0-.42-.13 1.64 1.64 0 0 0-.7.26 2.29 2.29 0 0 0-.69.61 1 1 0 0 0-.19.72.5.5 0 0 0 .13.32.39.39 0 0 0 .28.09 1.59 1.59 0 0 0 .48-.08l.74-.21a2.49 2.49 0 0 1 .79-.12 1.08 1.08 0 0 1 .54.14.77.77 0 0 1 .33.36 1.63 1.63 0 0 1 .17.54 2.06 2.06 0 0 1-.05.77 2.77 2.77 0 0 1-.31.81 3.46 3.46 0 0 1-.58.77 3.28 3.28 0 0 1-.82.64 2.6 2.6 0 0 1-.86.35 1.9 1.9 0 0 1-.67 0 .94.94 0 0 1-.47-.22.64.64 0 0 1-.21-.37.42.42 0 0 1 0-.27.46.46 0 0 1 .18-.21l.35-.2.13-.06a.18.18 0 0 1 .17.06.71.71 0 0 0 .48.16 1.66 1.66 0 0 0 .72-.27 2.32 2.32 0 0 0 .42-.3 3 3 0 0 0 .34-.38 1.44 1.44 0 0 0 .22-.4.87.87 0 0 0 .06-.42ZM288.13 200.66a.19.19 0 0 1 .19 0 .19.19 0 0 1 .11.18l.07.43a.52.52 0 0 1-.05.27.42.42 0 0 1-.17.2l-3.17 1.83.39 2.75 3-1.72a.18.18 0 0 1 .2 0 .24.24 0 0 1 .11.18l.06.42a.52.52 0 0 1-.05.27.45.45 0 0 1-.17.21l-3 1.72.45 3.11a.44.44 0 0 1-.05.27.38.38 0 0 1-.17.2l-.39.23a.21.21 0 0 1-.2 0 .28.28 0 0 1-.11-.18l-1.1-7.68a.56.56 0 0 1 .05-.27.42.42 0 0 1 .17-.2ZM292.19 200.63a.18.18 0 0 1 .2 0 .21.21 0 0 1 .11.18l.06.38a.52.52 0 0 1-.05.27.42.42 0 0 1-.17.2l-.56.32a1.82 1.82 0 0 0-.91 2l.49 3.47a.45.45 0 0 1 0 .27.42.42 0 0 1-.17.2l-.36.2a.17.17 0 0 1-.19 0 .25.25 0 0 1-.11-.19l-.8-5.53a.52.52 0 0 1 .05-.27.42.42 0 0 1 .17-.2l.36-.21a.19.19 0 0 1 .19 0 .23.23 0 0 1 .11.18l.05.37a2.77 2.77 0 0 1 .39-.79 2.29 2.29 0 0 1 .68-.57ZM293.31 202.68a4.86 4.86 0 0 1 .07-1.14 4.46 4.46 0 0 1 .34-1.09 3.44 3.44 0 0 1 .59-.95 3.17 3.17 0 0 1 .84-.71 2.29 2.29 0 0 1 1-.33 1.29 1.29 0 0 1 .78.2 1.69 1.69 0 0 1 .59.69 4.21 4.21 0 0 1 .33 1.16v.32a.43.43 0 0 1 0 .27.45.45 0 0 1-.17.21l-3.32 1.91v.07a1.25 1.25 0 0 0 .58 1 1 1 0 0 0 1-.11 2.35 2.35 0 0 0 .77-.65 3.34 3.34 0 0 0 .37-.65.64.64 0 0 1 .12-.21.51.51 0 0 1 .17-.14l.29-.17a.21.21 0 0 1 .2 0 .17.17 0 0 1 .1.18 1.9 1.9 0 0 1-.1.57 2.85 2.85 0 0 1-.32.7 4.56 4.56 0 0 1-.58.74 4.32 4.32 0 0 1-.87.66 2 2 0 0 1-.9.29 1.35 1.35 0 0 1-.75-.18 1.64 1.64 0 0 1-.58-.59 3 3 0 0 1-.37-1 6.08 6.08 0 0 1-.18-1.05Zm.87-.46 2.71-1.56a1.15 1.15 0 0 0-.53-.94 1.07 1.07 0 0 0-1.05.14 1.81 1.81 0 0 0-.51.41 2.46 2.46 0 0 0-.38.57 2.39 2.39 0 0 0-.21.67 2.18 2.18 0 0 0 0 .72ZM298.69 199.58a4.37 4.37 0 0 1 .06-1.14 4.54 4.54 0 0 1 .34-1.1 3.82 3.82 0 0 1 .59-.94 3.17 3.17 0 0 1 .84-.71 2.29 2.29 0 0 1 1-.33 1.25 1.25 0 0 1 .79.2 1.75 1.75 0 0 1 .58.69 4.21 4.21 0 0 1 .33 1.16l.05.32a.52.52 0 0 1-.05.27.42.42 0 0 1-.17.2l-3.32 1.92v.07a1.27 1.27 0 0 0 .58 1 1.07 1.07 0 0 0 1-.11 2.35 2.35 0 0 0 .77-.65 2.74 2.74 0 0 0 .37-.66 2.05 2.05 0 0 1 .12-.2.49.49 0 0 1 .17-.14l.29-.17a.22.22 0 0 1 .21 0 .18.18 0 0 1 .09.18 1.9 1.9 0 0 1-.09.57 2.91 2.91 0 0 1-.33.7 3.71 3.71 0 0 1-.58.73 4 4 0 0 1-.87.67 2 2 0 0 1-.9.29 1.39 1.39 0 0 1-.75-.18 1.82 1.82 0 0 1-.58-.59 3.37 3.37 0 0 1-.37-1 6.23 6.23 0 0 1-.17-1.05Zm.86-.46 2.71-1.56a1.14 1.14 0 0 0-.54-.94 1.09 1.09 0 0 0-1.05.13 2 2 0 0 0-.51.42 2.37 2.37 0 0 0-.37.56 2.29 2.29 0 0 0-.22.67 2.54 2.54 0 0 0 0 .73Z" style="fill:#fafafa"/><path d="m305.58 215.7-129.83 74.86a2.19 2.19 0 0 0-1 2l.46 3.15 1.79 12.46c.1.72.73 1 1.41.6l129.82-74.86a2.19 2.19 0 0 0 1-2L307 216.3a.86.86 0 0 0-1.42-.6Z" style="fill:#fff;opacity:.5"/><path d="m182.15 347 134.44-77.54c.62-.36 1.19-.11 1.28.54l2.52 17.58a2 2 0 0 1-.94 1.83L185 366.91c-.62.36-1.19.11-1.28-.54l-2.52-17.58a2 2 0 0 1 .95-1.79Z" style="opacity:.2"/><path d="M236.11 330.74a2.27 2.27 0 0 1 2-.39 1.93 1.93 0 0 1 1 1.63 4.27 4.27 0 0 1-.12 1.75 4 4 0 0 1-.86 1.53l1.84 2.28a.61.61 0 0 1 .05.12.39.39 0 0 1 0 .23.36.36 0 0 1-.15.17l-.86.5a.31.31 0 0 1-.31.05.49.49 0 0 1-.17-.14l-1.75-2.14-1.34.78.41 2.91a.47.47 0 0 1 0 .28.41.41 0 0 1-.17.21l-.82.48a.2.2 0 0 1-.21 0 .26.26 0 0 1-.12-.19l-1.15-8.07a.48.48 0 0 1 0-.28.41.41 0 0 1 .17-.21Zm-1 4.81 1.47-.85a2.64 2.64 0 0 0 .89-.78 1.59 1.59 0 0 0 .21-1.15c-.07-.46-.23-.71-.48-.74a1.79 1.79 0 0 0-1 .3l-1.47.85ZM245.76 332.94a.18.18 0 0 1 .21 0c.07 0 .1.09.12.19l.12.88a.5.5 0 0 1 0 .29.54.54 0 0 1-.18.21l-4.45 2.57a.23.23 0 0 1-.21 0 .25.25 0 0 1-.11-.19l-1.16-8.07a.48.48 0 0 1 .05-.28.38.38 0 0 1 .18-.21l4.37-2.52a.19.19 0 0 1 .2 0 .26.26 0 0 1 .12.19l.12.89a.46.46 0 0 1 0 .28.58.58 0 0 1-.18.22l-3.28 1.89.29 2 3.05-1.76a.2.2 0 0 1 .21 0 .23.23 0 0 1 .11.19l.13.89a.48.48 0 0 1 0 .28.38.38 0 0 1-.18.21l-3 1.76.3 2.08ZM246.42 328.29a5.78 5.78 0 0 1 0-1.5 5 5 0 0 1 .44-1.4 5 5 0 0 1 .85-1.23 5.41 5.41 0 0 1 1.28-1 3.7 3.7 0 0 1 1.49-.56 1.76 1.76 0 0 1 1 .15 1.39 1.39 0 0 1 .59.53 2 2 0 0 1 .26.62.4.4 0 0 1 0 .28.48.48 0 0 1-.18.21l-.82.48a.23.23 0 0 1-.19 0 .27.27 0 0 1-.12-.09s-.06-.08-.14-.16a.76.76 0 0 0-.32-.19 1.29 1.29 0 0 0-.54 0 2 2 0 0 0-.78.3 2.72 2.72 0 0 0-1.14 1.21 2.86 2.86 0 0 0-.3 1.63c0 .33.08.67.13 1s.11.7.17 1c.11.68.35 1.08.7 1.22a1.48 1.48 0 0 0 1.28-.23 3.85 3.85 0 0 0 .68-.5 2.53 2.53 0 0 0 .76-1.44 3.21 3.21 0 0 0 0-1v-.1l-1.23.72a.23.23 0 0 1-.21 0 .29.29 0 0 1-.12-.19l-.12-.89a.48.48 0 0 1 .05-.28.41.41 0 0 1 .17-.21l2.34-1.35a.18.18 0 0 1 .2 0 .26.26 0 0 1 .12.19l.19 1.37a5.07 5.07 0 0 1-.41 2.91 5.08 5.08 0 0 1-.86 1.27 5.52 5.52 0 0 1-1.32 1 3.86 3.86 0 0 1-1.37.52 1.76 1.76 0 0 1-1-.15 1.79 1.79 0 0 1-.73-.76 4.08 4.08 0 0 1-.42-1.25q0-.22-.09-.51l-.09-.59c0-.2-.05-.39-.07-.59s-.12-.28-.13-.44ZM254.91 329.35a.22.22 0 0 1-.21 0 .25.25 0 0 1-.11-.19l-1.16-8.07a.58.58 0 0 1 0-.28.38.38 0 0 1 .18-.21l.82-.48a.22.22 0 0 1 .21 0 .25.25 0 0 1 .11.19l1.16 8.07a.58.58 0 0 1-.05.28.48.48 0 0 1-.18.21ZM258.75 317.53a3.42 3.42 0 0 1 1.23-.46 2 2 0 0 1 .94.06 1.36 1.36 0 0 1 .63.44 1.54 1.54 0 0 1 .31.66.4.4 0 0 1-.05.28.42.42 0 0 1-.18.21l-.71.41a.34.34 0 0 1-.27.07.43.43 0 0 1-.19-.13.88.88 0 0 0-.54-.28 1.71 1.71 0 0 0-.95.3 3.43 3.43 0 0 0-.49.36 3.16 3.16 0 0 0-.39.44 2.1 2.1 0 0 0-.23.48 1.13 1.13 0 0 0 0 .48.78.78 0 0 0 .16.42.51.51 0 0 0 .37.12 3.05 3.05 0 0 0 .64-.1l1-.28a4.84 4.84 0 0 1 1.1-.22 1.66 1.66 0 0 1 .8.1 1.24 1.24 0 0 1 .52.47 2.19 2.19 0 0 1 .26.83 3.05 3.05 0 0 1-.05 1.16 4 4 0 0 1-.46 1.16 5.48 5.48 0 0 1-.84 1.07 5.75 5.75 0 0 1-1.2.91 4.29 4.29 0 0 1-1.16.51 2.24 2.24 0 0 1-1 0 1.43 1.43 0 0 1-.75-.39 1.6 1.6 0 0 1-.42-.84.42.42 0 0 1 0-.29.44.44 0 0 1 .19-.21l.71-.41a.47.47 0 0 1 .27-.08.3.3 0 0 1 .18.14 2.39 2.39 0 0 0 .22.23.66.66 0 0 0 .32.13 1.34 1.34 0 0 0 .46 0 2.33 2.33 0 0 0 .65-.29 4.89 4.89 0 0 0 .58-.39 2.65 2.65 0 0 0 .47-.48 2.12 2.12 0 0 0 .3-.52 1.07 1.07 0 0 0 .06-.56.47.47 0 0 0-.2-.37.86.86 0 0 0-.48-.05 5.18 5.18 0 0 0-.74.18l-1 .28a4.51 4.51 0 0 1-.94.16 1.42 1.42 0 0 1-.7-.15 1.12 1.12 0 0 1-.47-.49 2.85 2.85 0 0 1-.26-.9 3.22 3.22 0 0 1 .06-1.15 4 4 0 0 1 .44-1.13 4.64 4.64 0 0 1 .77-1 4.72 4.72 0 0 1 1.03-.89ZM267.56 312.58a.21.21 0 0 1 .2 0 .23.23 0 0 1 .12.19l.13.89a.58.58 0 0 1-.05.28.48.48 0 0 1-.18.21L266 315.2l1 6.84a.46.46 0 0 1 0 .28.48.48 0 0 1-.18.21l-.82.48a.2.2 0 0 1-.21 0 .25.25 0 0 1-.11-.19l-1-6.84-1.92 1.02a.18.18 0 0 1-.2 0 .22.22 0 0 1-.12-.19l-.13-.88a.59.59 0 0 1 .05-.29.38.38 0 0 1 .18-.21ZM274.6 316.29a.18.18 0 0 1 .2 0 .22.22 0 0 1 .12.19l.13.89a.58.58 0 0 1-.05.28.48.48 0 0 1-.18.21l-4.45 2.57a.2.2 0 0 1-.21 0 .23.23 0 0 1-.11-.19l-1.16-8.06a.61.61 0 0 1 .05-.29.42.42 0 0 1 .18-.21l4.37-2.52a.18.18 0 0 1 .2 0 .22.22 0 0 1 .12.19l.13.88a.59.59 0 0 1-.05.29.42.42 0 0 1-.18.21l-3.27 1.89.28 2 3-1.77a.23.23 0 0 1 .21 0 .25.25 0 0 1 .11.19l.13.89a.47.47 0 0 1-.05.28.41.41 0 0 1-.17.21l-3.06 1.77.3 2.07ZM278 306.56a2.27 2.27 0 0 1 2-.39 1.93 1.93 0 0 1 1 1.63 4.27 4.27 0 0 1-.12 1.75 4 4 0 0 1-.86 1.53l1.84 2.28a.61.61 0 0 1 .05.12.39.39 0 0 1 0 .23.36.36 0 0 1-.15.17l-.86.5c-.13.08-.24.1-.31.05a.4.4 0 0 1-.17-.13l-1.75-2.15-1.35.78.42 2.91a.47.47 0 0 1-.05.28.41.41 0 0 1-.17.21l-.83.48a.18.18 0 0 1-.2 0 .24.24 0 0 1-.12-.19l-1.15-8.07a.47.47 0 0 1 0-.28.48.48 0 0 1 .18-.21Zm-1 4.81 1.47-.85a2.64 2.64 0 0 0 .89-.78 1.64 1.64 0 0 0 .21-1.15c-.07-.46-.23-.71-.48-.74a1.79 1.79 0 0 0-1 .3l-1.47.85Z" style="fill:#fff"/><path d="m310.23 243.89-129.82 74.87a2.16 2.16 0 0 0-1 2l.45 3.16 1.78 12.44c.1.72.74 1 1.41.59l129.79-74.85a2.17 2.17 0 0 0 1-2l-2.23-15.6c-.07-.73-.7-1-1.38-.61Z" style="fill:#fff;opacity:.5"/><path d="M209.6 283.45a.19.19 0 0 1 .19 0 .2.2 0 0 1 .1.17l.06.39a.47.47 0 0 1 0 .25.38.38 0 0 1-.16.19l-3.79 2.17a.19.19 0 0 1-.19 0 .19.19 0 0 1-.11-.16l-1-7a.39.39 0 0 1 0-.25.45.45 0 0 1 .17-.19l3.71-2.14a.22.22 0 0 1 .19 0 .2.2 0 0 1 .1.17l.06.39a.45.45 0 0 1-.21.44l-3.08 1.78.33 2.29 2.87-1.65a.19.19 0 0 1 .19 0 .19.19 0 0 1 .11.16l.05.4a.38.38 0 0 1 0 .25.4.4 0 0 1-.17.19l-2.87 1.65.34 2.39ZM215.43 280.82a.44.44 0 0 1 0 .25.4.4 0 0 1-.17.19l-.34.2a.21.21 0 0 1-.2 0 .23.23 0 0 1-.1-.17l-.41-2.87a1.31 1.31 0 0 0-.53-1.05 1.06 1.06 0 0 0-1 .14 2.22 2.22 0 0 0-.9 1 2.48 2.48 0 0 0-.18 1.46l.41 2.87a.38.38 0 0 1 0 .25.4.4 0 0 1-.17.19l-.34.2a.19.19 0 0 1-.19 0 .21.21 0 0 1-.11-.17l-.73-5.07a.47.47 0 0 1 0-.25.4.4 0 0 1 .17-.19l.34-.2a.19.19 0 0 1 .19 0 .21.21 0 0 1 .11.17l.05.33a3.35 3.35 0 0 1 .45-.81 2.84 2.84 0 0 1 .89-.77 2.25 2.25 0 0 1 .84-.3 1.31 1.31 0 0 1 .72.11 1.33 1.33 0 0 1 .52.53 2.54 2.54 0 0 1 .3.93ZM217.76 277.73a1.82 1.82 0 0 0 .09.37.48.48 0 0 0 .16.24.35.35 0 0 0 .27.07 1.36 1.36 0 0 0 .41-.16l.5-.29a.22.22 0 0 1 .19 0 .2.2 0 0 1 .1.17l.05.35a.45.45 0 0 1 0 .25.53.53 0 0 1-.17.19l-.59.34c-.54.31-1 .38-1.25.19a1.66 1.66 0 0 1-.57-1.2l-.4-2.83-.7.41a.19.19 0 0 1-.19 0 .18.18 0 0 1-.1-.16l-.05-.35a.45.45 0 0 1 0-.25.4.4 0 0 1 .17-.19l.69-.4-.25-1.78a.45.45 0 0 1 .21-.44l.35-.2a.19.19 0 0 1 .19 0 .18.18 0 0 1 .1.16l.25 1.78 1.2-.69a.19.19 0 0 1 .19 0 .2.2 0 0 1 .1.17v.35a.41.41 0 0 1 0 .24.49.49 0 0 1-.17.2l-1.19.68ZM219.8 275a4.16 4.16 0 0 1 .07-1 4.89 4.89 0 0 1 .34-1 4 4 0 0 1 .57-.89 3.18 3.18 0 0 1 .83-.67 2.14 2.14 0 0 1 .93-.33 1.22 1.22 0 0 1 .76.15 1.56 1.56 0 0 1 .55.63 3.17 3.17 0 0 1 .32 1.05v.3a.39.39 0 0 1-.05.25.43.43 0 0 1-.16.19l-3.23 1.86v.06a1.13 1.13 0 0 0 .55.92 1.11 1.11 0 0 0 1-.14 2.38 2.38 0 0 0 .74-.61 3.48 3.48 0 0 0 .37-.62 1.63 1.63 0 0 1 .11-.2.92.92 0 0 1 .17-.13l.28-.16a.21.21 0 0 1 .2 0 .17.17 0 0 1 .09.17 1.62 1.62 0 0 1-.1.52 2.78 2.78 0 0 1-.31.66 4.33 4.33 0 0 1-.57.69 4 4 0 0 1-.85.64 2.06 2.06 0 0 1-.87.3 1.47 1.47 0 0 1-.73-.15 1.65 1.65 0 0 1-.56-.53 2.5 2.5 0 0 1-.25-.96 5.34 5.34 0 0 1-.2-1Zm.84-.45 2.64-1.52a1 1 0 0 0-.51-.85 1.07 1.07 0 0 0-1 .16 2 2 0 0 0-.49.39 2.4 2.4 0 0 0-.37.53 2.77 2.77 0 0 0-.22.63 2.09 2.09 0 0 0 0 .66ZM227.4 268.1a.19.19 0 0 1 .19 0 .18.18 0 0 1 .1.16l.05.35a.38.38 0 0 1 0 .25.4.4 0 0 1-.17.19l-.54.31a1.72 1.72 0 0 0-.9 1.88l.46 3.18a.47.47 0 0 1-.05.25.45.45 0 0 1-.17.19l-.34.2a.19.19 0 0 1-.19 0 .19.19 0 0 1-.11-.16l-.72-5.08a.38.38 0 0 1 0-.25.37.37 0 0 1 .17-.18l.34-.21a.19.19 0 0 1 .19 0 .19.19 0 0 1 .11.16l.05.34a2.35 2.35 0 0 1 .38-.74 2.47 2.47 0 0 1 .66-.55ZM232.8 273.07a.75.75 0 0 1-.07.23.38.38 0 0 1-.16.19l-.39.22a.18.18 0 0 1-.17 0 .2.2 0 0 1-.09-.15s0-.06 0-.08l.57-2.8L230 267a.12.12 0 0 1 0-.07.36.36 0 0 1 0-.22.42.42 0 0 1 .15-.17l.38-.22a.19.19 0 0 1 .19 0 .45.45 0 0 1 .12.12l2 2.87.93-4.54a.75.75 0 0 1 .07-.23.34.34 0 0 1 .16-.19l.39-.22a.18.18 0 0 1 .17 0 .18.18 0 0 1 .09.15.22.22 0 0 1 0 .08ZM237.31 262.26a2.36 2.36 0 0 1 .93-.34 1.23 1.23 0 0 1 1.3.62 2.71 2.71 0 0 1 .35.86v.23a2.89 2.89 0 0 0 0 .29v.51a5.1 5.1 0 0 1-.06 1.11 4.35 4.35 0 0 1-.33 1 4 4 0 0 1-.61.88 3.77 3.77 0 0 1-.87.7 2.53 2.53 0 0 1-.93.34 1.33 1.33 0 0 1-.75-.11 1.37 1.37 0 0 1-.55-.5 2.53 2.53 0 0 1-.34-.88 1.65 1.65 0 0 1-.05-.21 2.36 2.36 0 0 1 0-.28 2.89 2.89 0 0 1 0-.29 2.32 2.32 0 0 1 0-.24 4.15 4.15 0 0 1 .4-2.13 3.61 3.61 0 0 1 .6-.88 3.72 3.72 0 0 1 .91-.68Zm1.86 2.61a4.7 4.7 0 0 0 0-.47c0-.17-.06-.33-.09-.45a1.9 1.9 0 0 0-.21-.54 1 1 0 0 0-.33-.34.86.86 0 0 0-.54-.07 1.49 1.49 0 0 0-.59.22 2.06 2.06 0 0 0-.56.45 2.23 2.23 0 0 0-.36.56 2.36 2.36 0 0 0-.19.64 3.11 3.11 0 0 0 0 .68v.48a3.53 3.53 0 0 0 .08.44 2.17 2.17 0 0 0 .21.54.87.87 0 0 0 .33.33.72.72 0 0 0 .46.09 1.32 1.32 0 0 0 .59-.21 1.91 1.91 0 0 0 .56-.45 2.23 2.23 0 0 0 .36-.56 2.38 2.38 0 0 0 .2-.64 3.87 3.87 0 0 0 .08-.7ZM240.74 260.72a.45.45 0 0 1 .21-.44l.35-.2a.19.19 0 0 1 .19 0 .2.2 0 0 1 .1.17l.41 2.87a1.4 1.4 0 0 0 .51 1.07 1 1 0 0 0 1-.13 2.16 2.16 0 0 0 .87-1 2.62 2.62 0 0 0 .16-1.45l-.42-2.88a.47.47 0 0 1 0-.25.45.45 0 0 1 .17-.19l.34-.2a.19.19 0 0 1 .19 0 .19.19 0 0 1 .11.16l.72 5.08a.38.38 0 0 1 0 .25.45.45 0 0 1-.17.19l-.34.2a.19.19 0 0 1-.19 0 .19.19 0 0 1-.11-.16v-.34a3.33 3.33 0 0 1-.43.8 2.72 2.72 0 0 1-.87.75 2.15 2.15 0 0 1-.83.3 1.17 1.17 0 0 1-.7-.12 1.25 1.25 0 0 1-.51-.53 3 3 0 0 1-.29-.94ZM248.82 255.74a.19.19 0 0 1 .19 0 .18.18 0 0 1 .1.16v.35a.38.38 0 0 1 0 .25.4.4 0 0 1-.17.19l-.54.32a1.7 1.7 0 0 0-.9 1.87l.5 3.12a.47.47 0 0 1-.05.25.4.4 0 0 1-.17.19l-.34.2a.19.19 0 0 1-.19 0 .21.21 0 0 1-.11-.17l-.72-5.07a.38.38 0 0 1 0-.25.4.4 0 0 1 .17-.19l.34-.2a.19.19 0 0 1 .19 0 .21.21 0 0 1 .11.17v.33a2.35 2.35 0 0 1 .38-.74 2.28 2.28 0 0 1 .66-.54ZM256.77 256.21a.19.19 0 0 1 .3.15l.06.39a.45.45 0 0 1-.05.25.44.44 0 0 1-.16.19l-3.79 2.19a.21.21 0 0 1-.2 0 .19.19 0 0 1-.1-.16l-1-7a.45.45 0 0 1 .05-.25.44.44 0 0 1 .16-.19l3.72-2.15a.19.19 0 0 1 .19 0 .18.18 0 0 1 .1.16l.06.39a.51.51 0 0 1-.21.44l-3.08 1.78.33 2.3L256 253a.22.22 0 0 1 .19 0 .24.24 0 0 1 .11.17l.05.39a.45.45 0 0 1-.21.44l-2.87 1.65.34 2.39ZM258 253.56a.19.19 0 0 1-.19 0 .18.18 0 0 1-.11-.16l-.05-.35a.47.47 0 0 1 .05-.25.43.43 0 0 1 .16-.19l2.77-1.59a.19.19 0 0 1 .19 0 .22.22 0 0 1 .11.16v.35a.37.37 0 0 1 0 .25.4.4 0 0 1-.17.19ZM262.85 248.32c0-.12.1-.25.16-.38a2.46 2.46 0 0 1 .22-.39 2.73 2.73 0 0 1 .32-.37 2.61 2.61 0 0 1 .45-.33 1.78 1.78 0 0 1 1-.3 1 1 0 0 1 .7.36c.06-.18.13-.35.2-.52a2.68 2.68 0 0 1 .28-.49 2.61 2.61 0 0 1 .38-.44 3.29 3.29 0 0 1 .53-.38c.63-.37 1.12-.41 1.47-.14a2.35 2.35 0 0 1 .69 1.56l.43 3a.37.37 0 0 1 0 .25.4.4 0 0 1-.17.19l-.34.2a.18.18 0 0 1-.3-.14l-.42-2.91a1.51 1.51 0 0 0-.46-1.07c-.22-.16-.51-.14-.88.07a1.76 1.76 0 0 0-.74.85 2.35 2.35 0 0 0-.14 1.35l.43 3a.45.45 0 0 1-.05.25.44.44 0 0 1-.16.19l-.35.2a.19.19 0 0 1-.19 0 .22.22 0 0 1-.11-.16l-.41-2.91a1.6 1.6 0 0 0-.46-1.08.8.8 0 0 0-.88.08 1.83 1.83 0 0 0-.75.85 2.44 2.44 0 0 0-.14 1.35l.43 3a.51.51 0 0 1-.21.44l-.35.2a.19.19 0 0 1-.19 0 .18.18 0 0 1-.1-.16l-.73-5.08a.39.39 0 0 1 .05-.25.38.38 0 0 1 .16-.19l.35-.2a.19.19 0 0 1 .19 0 .18.18 0 0 1 .1.16ZM270.51 247.79a2.15 2.15 0 0 1 .05-.84 2.76 2.76 0 0 1 .33-.8 4.12 4.12 0 0 1 .56-.72 7.3 7.3 0 0 1 .71-.65l1.29-1v-.15c-.05-.37-.2-.58-.43-.65a1.13 1.13 0 0 0-.83.18 1.63 1.63 0 0 0-.59.53 3.26 3.26 0 0 0-.31.62.56.56 0 0 1-.1.19.61.61 0 0 1-.17.14l-.29.16a.19.19 0 0 1-.19 0 .17.17 0 0 1-.1-.17 1.64 1.64 0 0 1 .09-.58 3 3 0 0 1 .33-.67 4 4 0 0 1 .53-.66 3.35 3.35 0 0 1 .67-.52 2.68 2.68 0 0 1 .8-.31 1.17 1.17 0 0 1 .68.06 1.05 1.05 0 0 1 .5.44 2 2 0 0 1 .28.84l.47 3.32a.37.37 0 0 1 0 .25.4.4 0 0 1-.17.19l-.34.2a.19.19 0 0 1-.19 0 .21.21 0 0 1-.11-.17l-.06-.44a1.84 1.84 0 0 1-.21.51 4.39 4.39 0 0 1-.37.51 4.78 4.78 0 0 1-.46.44 3.48 3.48 0 0 1-.45.32 2.33 2.33 0 0 1-.69.27 1.14 1.14 0 0 1-.56 0 .77.77 0 0 1-.4-.29 1.29 1.29 0 0 1-.27-.55Zm1.82-.39a2.75 2.75 0 0 0 .6-.48 2.81 2.81 0 0 0 .43-.61 2.18 2.18 0 0 0 .24-.69 2.11 2.11 0 0 0 0-.71v-.27l-1.07.84a4.39 4.39 0 0 0-.89.89 1.18 1.18 0 0 0-.26.82.58.58 0 0 0 .08.22.45.45 0 0 0 .19.14.54.54 0 0 0 .29 0 1.59 1.59 0 0 0 .39-.15ZM276.16 238.7a.45.45 0 0 1-.05.25.44.44 0 0 1-.16.19l-.54.31a.19.19 0 0 1-.19 0 .2.2 0 0 1-.1-.17l-.09-.62a.45.45 0 0 1 .21-.44l.53-.31a.19.19 0 0 1 .19 0 .19.19 0 0 1 .11.16Zm.84 6.58a.47.47 0 0 1-.05.25.44.44 0 0 1-.16.19l-.35.2a.22.22 0 0 1-.19 0 .24.24 0 0 1-.11-.17l-.72-5.07a.44.44 0 0 1 0-.25.4.4 0 0 1 .17-.19l.34-.2a.18.18 0 0 1 .3.14ZM279.26 244a.45.45 0 0 1-.05.25.44.44 0 0 1-.16.19l-.35.2a.19.19 0 0 1-.19 0 .22.22 0 0 1-.11-.16l-1-7.15a.39.39 0 0 1 .05-.25.43.43 0 0 1 .16-.19l.35-.2a.19.19 0 0 1 .19 0 .18.18 0 0 1 .1.16ZM206.58 316.83a.19.19 0 0 1 .19 0 .19.19 0 0 1 .11.16l.05.39a.37.37 0 0 1 0 .25.4.4 0 0 1-.17.19l-3.83 2.18a.19.19 0 0 1-.19 0 .2.2 0 0 1-.1-.17l-1-7a.47.47 0 0 1 .05-.25.38.38 0 0 1 .16-.19l3.72-2.15a.19.19 0 0 1 .29.15l.06.39a.45.45 0 0 1 0 .25.39.39 0 0 1-.16.19l-3.14 1.78.33 2.3 2.87-1.66a.19.19 0 0 1 .19 0c.06 0 .09.08.1.16l.06.39a.45.45 0 0 1-.21.44l-2.87 1.66.34 2.38ZM212.42 314.21a.39.39 0 0 1 0 .25.43.43 0 0 1-.16.19l-.35.2a.19.19 0 0 1-.19 0 .18.18 0 0 1-.1-.16l-.42-2.88c-.08-.55-.25-.91-.52-1.05a1.07 1.07 0 0 0-1 .15 2.13 2.13 0 0 0-.89 1 2.48 2.48 0 0 0-.18 1.46l.41 2.87a.51.51 0 0 1-.21.44l-.35.2a.19.19 0 0 1-.19 0 .18.18 0 0 1-.1-.16l-.73-5.08a.39.39 0 0 1 0-.25.43.43 0 0 1 .16-.19l.35-.2a.19.19 0 0 1 .19 0 .18.18 0 0 1 .1.16v.34a3.42 3.42 0 0 1 .46-.81 2.71 2.71 0 0 1 .89-.77 2.14 2.14 0 0 1 .84-.3 1.19 1.19 0 0 1 .71.1 1.35 1.35 0 0 1 .53.53 2.6 2.6 0 0 1 .29.94ZM214.75 311.12a1.58 1.58 0 0 0 .09.36.57.57 0 0 0 .16.25.39.39 0 0 0 .27.06 1.21 1.21 0 0 0 .41-.16l.49-.29a.19.19 0 0 1 .19 0 .19.19 0 0 1 .11.16l.05.35a.47.47 0 0 1-.05.25.38.38 0 0 1-.16.19l-.59.34c-.55.31-1 .38-1.26.19a1.58 1.58 0 0 1-.56-1.2l-.41-2.82-.69.4a.17.17 0 0 1-.19 0 .18.18 0 0 1-.11-.16l-.05-.35a.47.47 0 0 1 .05-.25.51.51 0 0 1 .16-.19l.7-.4-.26-1.77a.45.45 0 0 1 .05-.25.44.44 0 0 1 .16-.19l.35-.2a.19.19 0 0 1 .19 0 .21.21 0 0 1 .11.17l.25 1.77 1.19-.69a.19.19 0 0 1 .19 0 .18.18 0 0 1 .11.16l.05.35a.47.47 0 0 1-.05.25.44.44 0 0 1-.16.19l-1.19.69ZM216.79 308.35a4.24 4.24 0 0 1 .07-1.06 4.5 4.5 0 0 1 .33-1 3.94 3.94 0 0 1 .58-.88 3.34 3.34 0 0 1 .82-.68 2.47 2.47 0 0 1 .94-.33 1.19 1.19 0 0 1 .75.16 1.48 1.48 0 0 1 .56.62 3.17 3.17 0 0 1 .31 1.06v.29a.47.47 0 0 1 0 .25.44.44 0 0 1-.16.19l-3.23 1.86v.07a.94.94 0 0 0 1.53.78 2.58 2.58 0 0 0 .75-.62 2.68 2.68 0 0 0 .36-.62 1.28 1.28 0 0 1 .12-.19.43.43 0 0 1 .16-.13l.28-.17a.24.24 0 0 1 .2 0 .17.17 0 0 1 .1.17 1.62 1.62 0 0 1-.1.52 2.49 2.49 0 0 1-.32.66 3.47 3.47 0 0 1-.57.69 3.72 3.72 0 0 1-.84.64 2.14 2.14 0 0 1-.88.3 1.25 1.25 0 0 1-.72-.15 1.53 1.53 0 0 1-.56-.52 2.64 2.64 0 0 1-.35-.87 5.36 5.36 0 0 1-.13-1.04Zm.84-.45 2.63-1.52a1 1 0 0 0-.52-.85 1.09 1.09 0 0 0-1 .16 1.83 1.83 0 0 0-.49.39 2.62 2.62 0 0 0-.38.54 2.16 2.16 0 0 0-.21.62 2.44 2.44 0 0 0 0 .66ZM224.39 301.49a.19.19 0 0 1 .19 0 .21.21 0 0 1 .1.16v.35a.39.39 0 0 1 0 .25.38.38 0 0 1-.16.19l-.54.32a1.7 1.7 0 0 0-.9 1.87l.45 3.18a.45.45 0 0 1-.21.44l-.35.2a.19.19 0 0 1-.19 0 .2.2 0 0 1-.1-.17l-.73-5.07a.47.47 0 0 1 .05-.21.38.38 0 0 1 .16-.19l.35-.2a.19.19 0 0 1 .19 0 .24.24 0 0 1 .11.17v.33a2.58 2.58 0 0 1 .38-.74 2.48 2.48 0 0 1 .67-.54ZM229.79 306.45a1.19 1.19 0 0 1-.07.23.35.35 0 0 1-.17.19l-.38.23a.17.17 0 0 1-.17 0 .17.17 0 0 1-.09-.15.22.22 0 0 1 0-.08l.58-2.79-2.54-3.71a.14.14 0 0 1 0-.07.38.38 0 0 1 0-.23.32.32 0 0 1 .14-.16l.39-.23a.19.19 0 0 1 .19 0 .34.34 0 0 1 .12.12l2 2.87.94-4.55a1.12 1.12 0 0 1 .06-.23.39.39 0 0 1 .17-.19l.38-.22a.18.18 0 0 1 .17 0 .18.18 0 0 1 .1.15v.08ZM234.3 295.64a2.72 2.72 0 0 1 .93-.34 1.37 1.37 0 0 1 .74.11 1.3 1.3 0 0 1 .56.51 2.64 2.64 0 0 1 .34.87 1.2 1.2 0 0 1 0 .23 2.36 2.36 0 0 1 0 .28v.51a4.54 4.54 0 0 1-.07 1.11 3.59 3.59 0 0 1-.33 1 4 4 0 0 1-.6.88 3.36 3.36 0 0 1-.88.7 2.27 2.27 0 0 1-.92.34 1.42 1.42 0 0 1-.75-.1 1.27 1.27 0 0 1-.55-.51 2.48 2.48 0 0 1-.35-.87v-.22a2.33 2.33 0 0 1-.05-.28v-.53a4.07 4.07 0 0 1 .06-1.1 3.93 3.93 0 0 1 .33-1 3.8 3.8 0 0 1 .61-.89 3.57 3.57 0 0 1 .93-.7Zm1.86 2.61a4.57 4.57 0 0 0 0-.46 3.4 3.4 0 0 0-.08-.45 1.9 1.9 0 0 0-.21-.54.8.8 0 0 0-.34-.34.7.7 0 0 0-.46-.09 1.36 1.36 0 0 0-.59.21 2.21 2.21 0 0 0-.55.45 2.43 2.43 0 0 0-.37.57 2.64 2.64 0 0 0-.19.64 3.07 3.07 0 0 0 0 .68 4.7 4.7 0 0 0 0 .47c0 .18.06.32.09.44a1.9 1.9 0 0 0 .21.54.9.9 0 0 0 .33.34.86.86 0 0 0 .46.09 1.69 1.69 0 0 0 .59-.21 2.25 2.25 0 0 0 .55-.45 2.53 2.53 0 0 0 .37-.57 2.26 2.26 0 0 0 .19-.64 3.07 3.07 0 0 0 0-.68ZM237.72 294.1a.47.47 0 0 1 .05-.25.45.45 0 0 1 .17-.19l.34-.2a.22.22 0 0 1 .19 0 .23.23 0 0 1 .11.17l.41 2.87a1.43 1.43 0 0 0 .5 1.07 1 1 0 0 0 1-.13 2 2 0 0 0 .87-.95 2.53 2.53 0 0 0 .16-1.45l-.41-2.87a.51.51 0 0 1 .21-.44l.35-.2a.19.19 0 0 1 .19 0 .18.18 0 0 1 .1.16l.73 5.08a.39.39 0 0 1-.05.25.38.38 0 0 1-.16.19l-.35.2a.22.22 0 0 1-.19 0 .2.2 0 0 1-.1-.17l-.05-.34a3.39 3.39 0 0 1-.44.8 2.49 2.49 0 0 1-.86.76 2.18 2.18 0 0 1-.83.29 1.13 1.13 0 0 1-1.21-.64 2.88 2.88 0 0 1-.29-.95ZM245.81 289.12a.19.19 0 0 1 .19 0 .23.23 0 0 1 .1.17l.05.35a.35.35 0 0 1-.05.24.41.41 0 0 1-.16.2l-.55.31a1.71 1.71 0 0 0-.89 1.87l.45 3.18a.44.44 0 0 1 0 .25.46.46 0 0 1-.17.19l-.35.2a.19.19 0 0 1-.19 0 .18.18 0 0 1-.1-.16l-.73-5.08a.39.39 0 0 1 0-.25.43.43 0 0 1 .16-.19l.35-.2a.19.19 0 0 1 .19 0 .18.18 0 0 1 .1.16l.05.34a2.45 2.45 0 0 1 .38-.74 2.35 2.35 0 0 1 .67-.55ZM251.38 283.78a3.45 3.45 0 0 1 .89-.37 1.47 1.47 0 0 1 .78 0 1.12 1.12 0 0 1 .59.43 1.89 1.89 0 0 1 .33.93 3.16 3.16 0 0 1 0 1.15 3.53 3.53 0 0 1-.39 1 3.37 3.37 0 0 1-.65.85 4.08 4.08 0 0 1-.85.65l-1.72 1 .38 2.67a.47.47 0 0 1-.05.25.38.38 0 0 1-.16.19l-.39.22a.19.19 0 0 1-.19 0 .2.2 0 0 1-.1-.17l-1-7a.45.45 0 0 1 .21-.44Zm-1.19 4.67 1.67-1a2.61 2.61 0 0 0 1-.94 1.82 1.82 0 0 0 .22-1.25c-.06-.46-.24-.73-.51-.79a1.54 1.54 0 0 0-1.09.28l-1.68 1ZM255.11 288.33a2.21 2.21 0 0 1 0-.85 2.74 2.74 0 0 1 .34-.79 3.84 3.84 0 0 1 .56-.73 7.2 7.2 0 0 1 .71-.64l1.29-1v-.14c0-.37-.2-.59-.44-.65a1.05 1.05 0 0 0-.82.17 1.77 1.77 0 0 0-.6.54 3.23 3.23 0 0 0-.3.62.67.67 0 0 1-.1.19.7.7 0 0 1-.18.14l-.28.16a.22.22 0 0 1-.19 0 .18.18 0 0 1-.1-.17 1.61 1.61 0 0 1 .09-.58 2.66 2.66 0 0 1 .33-.68 4 4 0 0 1 .53-.65 2.81 2.81 0 0 1 .67-.52 2.23 2.23 0 0 1 .8-.31 1.18 1.18 0 0 1 .68.05 1.1 1.1 0 0 1 .5.44 2.13 2.13 0 0 1 .28.85l.47 3.32a.38.38 0 0 1 0 .25.45.45 0 0 1-.17.19l-.35.2a.19.19 0 0 1-.19 0 .19.19 0 0 1-.1-.16l-.06-.45a1.89 1.89 0 0 1-.21.52 4.29 4.29 0 0 1-.37.5 4.73 4.73 0 0 1-.46.44 3.48 3.48 0 0 1-.45.32 2.09 2.09 0 0 1-.69.27 1.14 1.14 0 0 1-.56 0 .79.79 0 0 1-.4-.3 1.1 1.1 0 0 1-.23-.55Zm1.82-.4a3 3 0 0 0 .6-.47 3.08 3.08 0 0 0 .43-.61 2.46 2.46 0 0 0 .24-.69 2.18 2.18 0 0 0 0-.72v-.27l-1.07.85a4.15 4.15 0 0 0-.89.89 1.12 1.12 0 0 0-.26.82.44.44 0 0 0 .56.37 1.31 1.31 0 0 0 .39-.17ZM263.34 283.43a.41.41 0 0 0-.15-.29.54.54 0 0 0-.33-.06 2.79 2.79 0 0 0-.53.11c-.21.05-.46.13-.73.22a1.34 1.34 0 0 1-1.16 0 1.19 1.19 0 0 1-.45-.83 2 2 0 0 1 0-.69 2.61 2.61 0 0 1 .26-.72 2.74 2.74 0 0 1 .52-.68 3.49 3.49 0 0 1 .78-.6 3.11 3.11 0 0 1 .82-.34 1.68 1.68 0 0 1 .62 0 .92.92 0 0 1 .41.19.61.61 0 0 1 .19.34.31.31 0 0 1 0 .24.42.42 0 0 1-.17.2l-.31.18-.14.05a.2.2 0 0 1-.16-.05.64.64 0 0 0-.41-.1 1.78 1.78 0 0 0-.68.26 2.16 2.16 0 0 0-.67.59.9.9 0 0 0-.19.66.46.46 0 0 0 .12.29.38.38 0 0 0 .28.08 1.71 1.71 0 0 0 .47-.09l.71-.21a2.74 2.74 0 0 1 .76-.14 1.19 1.19 0 0 1 .53.11.82.82 0 0 1 .32.32 1.73 1.73 0 0 1 .15.5 2 2 0 0 1-.05.71 2.71 2.71 0 0 1-.31.76 3.69 3.69 0 0 1-.56.72 4.16 4.16 0 0 1-.8.62 3.16 3.16 0 0 1-.83.34 1.89 1.89 0 0 1-.66 0 .93.93 0 0 1-.45-.19.65.65 0 0 1-.21-.34.42.42 0 0 1 0-.24.44.44 0 0 1 .18-.2l.33-.19.14-.06a.17.17 0 0 1 .16 0 .59.59 0 0 0 .46.13 1.77 1.77 0 0 0 .71-.26 3.35 3.35 0 0 0 .4-.29 2.24 2.24 0 0 0 .33-.36 1.58 1.58 0 0 0 .21-.38.74.74 0 0 0 .09-.31ZM268.08 280.69a.41.41 0 0 0-.15-.29.54.54 0 0 0-.33-.06 2.71 2.71 0 0 0-.52.11c-.21.05-.46.13-.74.22a1.32 1.32 0 0 1-1.15 0 1.19 1.19 0 0 1-.45-.83 2.3 2.3 0 0 1 0-.69 2.64 2.64 0 0 1 .27-.72 2.88 2.88 0 0 1 .51-.68 3.81 3.81 0 0 1 .79-.6 3.07 3.07 0 0 1 .81-.34 1.68 1.68 0 0 1 .62 0 .91.91 0 0 1 .42.19.68.68 0 0 1 .19.34.35.35 0 0 1 0 .24.58.58 0 0 1-.17.2l-.31.18-.14.05a.19.19 0 0 1-.17-.05.61.61 0 0 0-.4-.1 1.73 1.73 0 0 0-.68.26 2 2 0 0 0-.67.59.92.92 0 0 0-.2.66.42.42 0 0 0 .13.29.36.36 0 0 0 .27.08 1.65 1.65 0 0 0 .47-.09l.72-.21a2.68 2.68 0 0 1 .76-.14 1.14 1.14 0 0 1 .52.11.71.71 0 0 1 .32.32 1.28 1.28 0 0 1 .15.5 1.74 1.74 0 0 1 0 .71 3 3 0 0 1-.31.76 3.75 3.75 0 0 1-.57.72 3.62 3.62 0 0 1-.8.62 2.91 2.91 0 0 1-.83.34 1.89 1.89 0 0 1-.66 0 .94.94 0 0 1-.44-.19.59.59 0 0 1-.21-.34.31.31 0 0 1 0-.24.48.48 0 0 1 .17-.2l.34-.19.13-.06a.17.17 0 0 1 .16 0 .61.61 0 0 0 .47.13 1.74 1.74 0 0 0 .7-.26 2.7 2.7 0 0 0 .4-.29 1.86 1.86 0 0 0 .33-.36 1.34 1.34 0 0 0 .17-.38.63.63 0 0 0 .08-.31ZM274.48 276.79l.53-4.25a.63.63 0 0 1 .08-.23.41.41 0 0 1 .2-.21l.31-.18a.18.18 0 0 1 .17 0 .2.2 0 0 1 .09.15.27.27 0 0 1 0 .09l-.72 5.84a1.07 1.07 0 0 1-.06.27.37.37 0 0 1-.17.2l-.29.16c-.08.05-.15.06-.2 0a1 1 0 0 1-.14-.15l-1.63-3-.6 4.26a2.13 2.13 0 0 1-.08.27.33.33 0 0 1-.17.2l-.29.17a.19.19 0 0 1-.19 0 .39.39 0 0 1-.13-.17l-2.19-4.13V276a.43.43 0 0 1 0-.22.42.42 0 0 1 .15-.17l.31-.18a.29.29 0 0 1 .23 0 .3.3 0 0 1 .13.12l1.57 3 .6-4.29a.7.7 0 0 1 .07-.22.42.42 0 0 1 .19-.21l.2-.12c.1-.05.17-.06.22 0a.32.32 0 0 1 .11.12ZM278.71 270a2.53 2.53 0 0 1 .93-.34 1.42 1.42 0 0 1 .75.11 1.33 1.33 0 0 1 .55.51 2.64 2.64 0 0 1 .34.87 2.14 2.14 0 0 1 .05.23v.28a2.36 2.36 0 0 0 0 .28v.23a5.1 5.1 0 0 1-.06 1.11 4 4 0 0 1-.34 1 3.61 3.61 0 0 1-.6.88 3.72 3.72 0 0 1-.87.7 2.36 2.36 0 0 1-.93.34 1.33 1.33 0 0 1-.75-.11 1.3 1.3 0 0 1-.55-.5 2.47 2.47 0 0 1-.34-.87c0-.06 0-.13-.05-.22s0-.18-.05-.28v-.29a2.32 2.32 0 0 1 0-.24 4.07 4.07 0 0 1 .06-1.1 3.83 3.83 0 0 1 .34-1 3.48 3.48 0 0 1 .6-.89 3.77 3.77 0 0 1 .92-.7Zm1.86 2.61a4.57 4.57 0 0 0-.05-.46 3.93 3.93 0 0 0-.08-.46 2.17 2.17 0 0 0-.21-.54.87.87 0 0 0-.33-.33.72.72 0 0 0-.46-.09 1.32 1.32 0 0 0-.59.21 1.91 1.91 0 0 0-.56.45 2.23 2.23 0 0 0-.36.56 2.5 2.5 0 0 0-.2.64 3.91 3.91 0 0 0 0 .68c0 .14 0 .3.05.48a3.21 3.21 0 0 0 .08.44 1.9 1.9 0 0 0 .21.54 1 1 0 0 0 .33.34.86.86 0 0 0 .46.09 1.49 1.49 0 0 0 .59-.22 1.91 1.91 0 0 0 .56-.45 2.23 2.23 0 0 0 .36-.56 2.36 2.36 0 0 0 .19-.64 3.11 3.11 0 0 0 .01-.68ZM284.62 266.71a.22.22 0 0 1 .19 0 .2.2 0 0 1 .1.17v.35a.45.45 0 0 1-.21.44l-.54.31a1.72 1.72 0 0 0-.9 1.88l.45 3.18a.38.38 0 0 1 0 .25.37.37 0 0 1-.17.18l-.34.21a.21.21 0 0 1-.19 0 .19.19 0 0 1-.11-.16l-.73-5.08a.47.47 0 0 1 .05-.25.45.45 0 0 1 .17-.19l.34-.2a.19.19 0 0 1 .19 0 .19.19 0 0 1 .11.16v.34a2.25 2.25 0 0 1 .38-.74 2.3 2.3 0 0 1 .66-.55ZM287.45 265a1.8 1.8 0 0 1 1-.3 1.09 1.09 0 0 1 .59.21l-.34-2.41a.45.45 0 0 1 .21-.44l.35-.2a.21.21 0 0 1 .19 0 .2.2 0 0 1 .1.17l1 7.14a.38.38 0 0 1 0 .25.4.4 0 0 1-.17.19l-.34.2a.19.19 0 0 1-.19 0 .21.21 0 0 1-.11-.17l-.05-.33a3.11 3.11 0 0 1-.46.82 2.9 2.9 0 0 1-.88.76 2.2 2.2 0 0 1-.85.29 1.24 1.24 0 0 1-.74-.14 1.47 1.47 0 0 1-.56-.55 2.76 2.76 0 0 1-.35-1 2.7 2.7 0 0 1-.07-.35v-.35a4.77 4.77 0 0 1 .05-1.2 4.17 4.17 0 0 1 .33-1.07 3.63 3.63 0 0 1 .59-.89 3.09 3.09 0 0 1 .7-.63Zm1.94 2.57c0-.11 0-.25-.05-.43s0-.32-.07-.43a1.21 1.21 0 0 0-.57-1 1.06 1.06 0 0 0-1 .14 2.2 2.2 0 0 0-.91 1 3 3 0 0 0-.21 1.47c0 .2.05.41.08.61a1.44 1.44 0 0 0 .57 1 1 1 0 0 0 1.05-.1 2.32 2.32 0 0 0 .89-1 2.42 2.42 0 0 0 .22-1.31Z" style="fill:#37474f"/><path d="m415.58 332.72-4.64-1.76 1.54-3.14 2.84 2.67.26 2.23z"/><path d="M420.42 324.37s.17 3 .21 4-4 3.9-5.05 4.38l-.25-2.23a17.1 17.1 0 0 0-2.35 3.6c-.79 1.35-1.8 3.92-4 5.66-3.21 2.59-8.18 3.88-13.26 4s-8-1.1-9.41-2.2a3.38 3.38 0 0 1-1.52-3.69c.42-1.27 35.63-13.52 35.63-13.52Z" style="fill:#263238"/><path d="M406.9 314v-1.75c-.93 0-1.06 2.51-2.43 4.73a45.54 45.54 0 0 1-7.19 9.1c-5.16 4.66-9.77 7.58-12.07 9.68-3.09 2.81 2.29 7.32 10.57 6.9 4.11-.21 11.42-2.25 13.48-4.66s3.34-6.2 5-8 5.19-3.52 6.22-5.65c.57-1.18.29-3.92 0-6.26-.3-2.14-.34-5.42-1.55-5.16l-.09 1.1c-.5.93-1.65 2.47-5 3-1.72.31-6.66.43-6.94-3.03Z" style="fill:#37474f"/><path d="M411.11 317.14c-1.58-.14-3.28-.68-3.93-2.1v-.05a4 4 0 0 1-1.09 3.37c-1.49 1.72-10.9 13.89-10.9 13.89s8.76-10 10.43-11.92c2.49-2.8 3.27-3.12 5.53-3.19ZM409 320.37a.51.51 0 0 0 .56.45.51.51 0 0 0 .45-.56.51.51 0 1 0-1 .11ZM406.57 323.06a.51.51 0 0 0 .56.45.51.51 0 0 0-.11-1 .51.51 0 0 0-.45.55ZM404.12 325.75a.5.5 0 1 0 1-.11.5.5 0 0 0-.55-.45.51.51 0 0 0-.45.56ZM401.66 328.44a.51.51 0 0 0 .56.45.51.51 0 1 0-.56-.45ZM399.2 331.12a.51.51 0 0 0 .56.45.49.49 0 0 0 .45-.55.5.5 0 0 0-.55-.45.52.52 0 0 0-.46.55Z" style="opacity:.15"/><path d="M409.55 320.52a.31.31 0 0 0 .13-.06.21.21 0 0 0 0-.29 8.37 8.37 0 0 0-5.72-2.29.2.2 0 0 0-.19.21.2.2 0 0 0 .22.19 8.11 8.11 0 0 1 5.4 2.18.23.23 0 0 0 .16.06ZM407.09 323.2a.31.31 0 0 0 .13-.06.21.21 0 0 0 0-.29 8.34 8.34 0 0 0-5.71-2.29.2.2 0 1 0 0 .4 8.06 8.06 0 0 1 5.4 2.18.25.25 0 0 0 .18.06ZM404.64 325.9a.38.38 0 0 0 .13-.06.22.22 0 0 0 0-.29 8.31 8.31 0 0 0-5.71-2.29.2.2 0 1 0 0 .4 8 8 0 0 1 5.41 2.18.23.23 0 0 0 .17.06ZM402.18 328.59a.31.31 0 0 0 .13-.06.21.21 0 0 0 0-.29 8.38 8.38 0 0 0-5.72-2.3.22.22 0 0 0-.19.22.2.2 0 0 0 .22.19 8 8 0 0 1 5.4 2.18.25.25 0 0 0 .16.06ZM399.72 331.27a.16.16 0 0 0 .13-.06.19.19 0 0 0 0-.28 8.3 8.3 0 0 0-5.71-2.3.2.2 0 0 0-.18.22.19.19 0 0 0 .21.19 8.07 8.07 0 0 1 5.41 2.18.17.17 0 0 0 .14.05ZM453.53 347.33c.71 4 1.64 6.53 3.33 8.7s4.73 2.41 7 1.94a9.7 9.7 0 0 0 7.51-7.41c.73-2.73.22-5.86-.83-9.48Z" style="fill:#263238"/><path d="M462.34 316.94c1.13-.05 2.09 5.26 3.37 10.55 1.37 5.66 3.51 8.66 4.54 12.46 1.44 5.27 1.35 7.73-.15 11.21s-9.28 7.72-13.13 3.46c-3.13-3.48-3.74-7.68-4.14-13.08a137.11 137.11 0 0 0-1.38-13.7c-.69-4-1.44-7.88-.52-8.44.14.58.31 1.33.45 1.9s.49 2.6 1.11 2.55a8.72 8.72 0 0 0-.16-1.52 1.75 1.75 0 0 1 .15-1.33 2 2 0 0 1 1.17-.7 29.45 29.45 0 0 1 3.25-.91c.54-.11 1.1-.21 1.65-.27a18.27 18.27 0 0 1 2.94-.22 1 1 0 0 1 .66.47 1.59 1.59 0 0 1 .13.61 4.6 4.6 0 0 0 .28 1.09c.05.15.19.33.34.27s.16-.21.14-.34c-.07-.65-.21-1.12-.33-1.87 0-.34-.17-.81-.21-1.16s-.09-.69-.16-1.03Z" style="fill:#37474f"/><path d="M466.33 341.77a.39.39 0 1 1-.47-.3.39.39 0 0 1 .47.3ZM465.52 338.1a.39.39 0 1 1-.77.17.4.4 0 0 1 .3-.47.4.4 0 0 1 .47.3ZM464.75 334.64a.39.39 0 1 1-.47-.3.4.4 0 0 1 .47.3ZM464 331.23a.38.38 0 0 1-.3.46.39.39 0 0 1-.47-.29.39.39 0 0 1 .3-.47.39.39 0 0 1 .47.3ZM455.25 332.82a.4.4 0 0 1-.3.47.4.4 0 0 1-.47-.3.38.38 0 0 1 .3-.46.39.39 0 0 1 .47.29ZM456 336.26a.4.4 0 0 1-.3.47.39.39 0 1 1-.17-.77.4.4 0 0 1 .47.3ZM456.78 339.72a.39.39 0 1 1-.77.17.39.39 0 1 1 .77-.17ZM457.59 343.39a.39.39 0 0 1-.29.47.39.39 0 0 1-.17-.77.39.39 0 0 1 .46.3ZM461.08 344.75 455 319.2l1.44-.2 4.64 25.75z" style="opacity:.15"/><path d="M466 342.05h-.06c-2.64-.26-7 .52-8.62 1.57a.2.2 0 0 1-.27-.06.21.21 0 0 1 .06-.28c1.71-1.1 6.11-1.9 8.87-1.62a.19.19 0 0 1 .18.21.21.21 0 0 1-.16.18ZM465.18 338.38a.14.14 0 0 1-.11 0c-2.07-.69-6.72.39-8.57 1.58a.21.21 0 0 1-.28-.06.2.2 0 0 1 .06-.27c1.93-1.25 6.73-2.36 8.92-1.62a.19.19 0 0 1 .12.25.18.18 0 0 1-.14.12ZM464.41 334.92a.21.21 0 0 1-.11 0c-2.07-.69-6.72.39-8.57 1.58a.2.2 0 0 1-.22-.34c1.93-1.24 6.73-2.35 8.92-1.61a.19.19 0 0 1 .12.25.2.2 0 0 1-.14.12ZM463.65 331.51h-.11c-2.07-.7-6.72.38-8.57 1.58a.2.2 0 0 1-.21-.34c1.92-1.24 6.72-2.35 8.91-1.62a.21.21 0 0 1 .13.25.26.26 0 0 1-.15.13ZM456.31 186.69c2.6 32.92 4.19 77.75 4.19 77.75.24 2.5 2.64 13.17 3.85 25.5 1.27 13 2.31 37.38 2.31 37.38s-9.11 4.89-16.48 2.44c0 0-7.9-41.05-11.68-56.38-3.58-14.51-9.18-42-9.18-42l-3.81 27.22s.51 9.38.23 15.95c-.33 7.63-5.2 44.33-5.2 44.33s-9.9 5.83-17.55 0c0 0-1.33-50.62-1.54-59.8-.43-18 1.68-52.95 2.34-76.21Z" style="fill:#263238"/><path d="M442.93 224.57q1 11.85 2.3 23.65.61 5.91 1.29 11.81l.67 5.91.35 2.95c.11 1 .31 1.95.46 2.93 1.3 7.81 3.29 22 4.71 29.79s2.92 15.57 4.54 23.33q-1.54-11.79-3.38-23.51c-1.22-7.82-3.13-22-4.47-29.81-.16-1-.36-1.95-.48-2.93l-.36-2.95-.74-5.89q-.75-5.88-1.54-11.77-1.56-11.76-3.35-23.51ZM406.46 222.34c-.82 7.36-1.26 14.76-1.58 22.16s-.6 14.82-.32 22.21.37 19.81.65 27.21.61 14.79 1.05 22.18q.17-11.1.07-22.2c-.05-7.4-.18-19.8-.34-27.2l-.14-5.54V255.62l.13-11.09.18-11.09c.06-3.7.18-7.44.3-11.1ZM429.32 231.36l-3.21-18s-8.94-1.3-13.52-5.41c0 0 3 5.44 11.38 7.57l3.2 15.93-1.66 27.16Z"/><path d="M390.49 130.37c.06-1.59.81-2.8 2.68-4.07a13.45 13.45 0 0 0 3.83-3.36 36.88 36.88 0 0 1 3.87-4.85c1.07-.87-.21-2.1-2.08-1.89s-6.1 2.36-7.12 4.6a20 20 0 0 0-1.18 9.57Z" style="fill:#f28f8f"/><path d="M414.78 122.94c-4.3.33-9.45.33-13.9 8.56-4.6 8.49-8.43 15.2-8.43 15.2a82.09 82.09 0 0 1-1.8-11.94c-.37-5.89-.21-8.47 1.66-11.86a100.14 100.14 0 0 0 7.17-11.56 58.09 58.09 0 0 0-9.82 1.34 2 2 0 0 0-1.24.87c-.17.33-.16.72-.32 1.06a2.21 2.21 0 0 1-1.17 1c-1 .47-2.13.88-2.6 1.87-.26.55-.25 1.19-.48 1.75a6.94 6.94 0 0 1-2 2.21 6.16 6.16 0 0 0-1.45 3.13c-1.5 6.07-1.9 12.24-1.9 21.64 0 6.54.39 15.47 2.62 20.41s6.73 10.52 13.33 3.92 18.11-24.94 18.11-24.94Z" style="fill:#ffa8a7"/><path d="M393 121.74a11.23 11.23 0 0 0-3.06 1.8 3.75 3.75 0 0 1 0 3.31c-.8 2-2.28 2.78-1.91 4.7a3.26 3.26 0 0 1 1.76-3c2.26-1.34 3.51-5.61 3.21-6.81Z" style="fill:#f28f8f"/><path d="M414.32 122.68c-4.08.43-8.27.65-12.31 6.19s-9.7 17.17-9.7 17.17l.14.66s3.33 4.22 4 12.56a17.35 17.35 0 0 1-4.45 13.29 6.69 6.69 0 0 1-1.95.83s1.64 1.21 4-.47 20.75-28 20.75-28Z" style="fill:#37474f"/><path d="m392.2 145.53.25 1.17s2.17 7.58-.59 13.34-6.74 6.33-8.81 6.16c-2.28-.2-3-3-3-3l-.42-1.95a1.7 1.7 0 0 0-.51 1.95 52.45 52.45 0 0 0 3.12 7c1.26 2.28 5.5 5.56 9.11 3.56s5.88-6.92 5.88-13.45-1.5-10.71-2.52-12.1-2.82-4.37-2.82-4.37Z" style="fill:#263238"/><path d="M454.5 127.39s4.93 4.4 3.63 16.32c-1.14 10.37-1.66 19.07-1.79 23.09-.19 6.2.66 27.2.66 27.2-8.9 11.47-48.59 9.88-53.79-.06 0 0 .27-14.28.28-28.07 0-10.1.88-19.39 2.15-25.34 1.71-8 4.43-13.38 6.09-15l13.11-3.6 12-.59ZM451.74 59.29a4.19 4.19 0 1 0-7.14-4.39l-2.22 3.59a2.09 2.09 0 0 0 .15 2.1 6.53 6.53 0 0 0 5.05 3.11 2.05 2.05 0 0 0 1.94-.81l2.22-3.59Z" style="fill:#455a64"/><path d="M447.58 63.7a2.05 2.05 0 0 0 1.94-.81l2.22-3.59a4.19 4.19 0 0 0 .18-4.07c.37 1.13-.69 2.83-1.92 4.82s-2.73 3-5.75 1.27c-2.2-1.24-1.93-2.58-1.62-3.22l-.25.4a2.09 2.09 0 0 0 .15 2.1 6.53 6.53 0 0 0 5.05 3.1Z" style="fill:#37474f"/><path d="M451.51 76.51a13 13 0 1 0-22.18-13.66c-1 1.63-.94 3.94.46 6.52 2.79 5.17 9.81 9.5 15.68 9.66 2.93.09 5-.88 6-2.52Z" style="fill:#4f52ee"/><path d="M451.05 70c-2.79-5.17-9.81-9.49-15.68-9.66-2.94-.08-5 .89-6 2.53L380.58 142c-1 1.64-.93 3.94.46 6.53 2.79 5.16 9.81 9.49 15.68 9.66 2.94.08 5-.89 6-2.53l48.75-79.13c1.04-1.66.97-3.97-.42-6.53Z" style="fill:#4f52ee"/><path d="M451.05 70c-2.79-5.17-9.81-9.49-15.68-9.66-2.94-.08-5 .89-6 2.53L380.58 142c-1 1.64-.93 3.94.46 6.53 2.79 5.16 9.81 9.49 15.68 9.66 2.94.08 5-.89 6-2.53l48.75-79.13c1.04-1.66.97-3.97-.42-6.53Z" style="fill:#fff;opacity:.2"/><path d="M394 163.12c-6-.17-13.25-4.61-16.12-9.93-1.43-2.65-1.51-5-.47-6.71l3.75-6.08c1-1.68 3.19-2.68 6.2-2.6 6 .18 13.25 4.62 16.12 9.93 1.44 2.66 1.51 5 .48 6.71l-3.75 6.09c-1.07 1.68-3.21 2.68-6.21 2.59Z" style="fill:#4f52ee"/><path d="M394 163.12c-6-.17-13.25-4.61-16.12-9.93-1.43-2.65-1.51-5-.47-6.71l3.75-6.08c1-1.68 3.19-2.68 6.2-2.6 6 .18 13.25 4.62 16.12 9.93 1.44 2.66 1.51 5 .48 6.71l-3.75 6.09c-1.07 1.68-3.21 2.68-6.21 2.59Z" style="fill:#fff;opacity:.35000000000000003"/><path d="M383.58 143.89c6 .17 13.26 4.62 16.12 9.93 1.44 2.65 1.51 5 .48 6.71s-3.19 2.68-6.21 2.59c-6-.17-13.25-4.61-16.12-9.93-1.43-2.65-1.51-5-.47-6.71s3.19-2.68 6.2-2.59Z" style="fill:#4f52ee"/><path d="M383.58 143.89c6 .17 13.26 4.62 16.12 9.93 1.44 2.65 1.51 5 .48 6.71s-3.19 2.68-6.21 2.59c-6-.17-13.25-4.61-16.12-9.93-1.43-2.65-1.51-5-.47-6.71s3.19-2.68 6.2-2.59Z" style="opacity:.15"/><path d="M334.08 220.19c.9-1.45 2.76-2.32 5.37-2.25 5.23.15 11.48 4 14 8.61 1.24 2.3 1.31 4.35.41 5.81l-3 2.94a5.79 5.79 0 0 1-4.43 1.44 16.73 16.73 0 0 1-12.87-7.92 5.87 5.87 0 0 1-.71-4.62Z" style="fill:#4f52ee"/><path d="M334.08 220.19c.9-1.45 2.76-2.32 5.37-2.25 5.23.15 11.48 4 14 8.61 1.24 2.3 1.31 4.35.41 5.81l-3 2.94a5.79 5.79 0 0 1-4.43 1.44 16.73 16.73 0 0 1-12.87-7.92 5.87 5.87 0 0 1-.71-4.62Z" style="opacity:.15"/><path d="M339.45 217.94c5.23.15 11.48 4 14 8.61 1.24 2.3 1.31 4.35.41 5.81l44-71.37c.9-1.46.84-3.52-.41-5.82-2.48-4.6-8.73-8.45-14-8.6-2.62-.07-4.48.79-5.38 2.25l-44 71.37c.93-1.45 2.77-2.32 5.38-2.25Z" style="fill:#4f52ee"/><path d="M350.45 235.56c.84-1.31.79-3.15-.35-5.24a16.17 16.17 0 0 0-12.56-7.67c-2.33-.06-4 .7-4.79 2-2.79 4.58-8.29 18.42-7.64 25.32l.13.07a2.44 2.44 0 0 0 .32 1.08 6 6 0 0 0 4.65 2.83 2.42 2.42 0 0 0 1.06-.19c6.45-2.46 16.4-13.68 19.18-18.2Z" style="fill:#4f52ee"/><path d="M397.38 155.17a13.17 13.17 0 0 0-1.67-2.38l-44 71.37a13.45 13.45 0 0 1 1.68 2.39c.08.15.14.3.21.44l44-71.37a4.66 4.66 0 0 0-.22-.45Zm7.13-4.56a6.41 6.41 0 0 0-.17-.73s38.06-61.78 43.36-70.4c5.69-9.24 5.67-13.13 3.61-17 1.23 3.78-4 12.19-4.67 13.29l-43.73 71c.19.3.37.61.54.91l-3.75 6.09a10 10 0 0 1 1.06 2.87ZM328.1 253.48l2.28-1s1.67.18 6.6-4.33 7.93-9.37 13.12-17.8a12.25 12.25 0 0 0-2-2.72c-.05.11-5.84 11.34-13.1 19.27a42.39 42.39 0 0 1-7.24 6.4Z" style="fill:#fff;opacity:.2"/><path d="m326.93 250.33-1.82 2.95c-.79 1.29-2.07 4.93-1.05 5.56s3.71-2.15 4.5-3.44l1.81-3s0-.76-1.39-1.6-2.05-.47-2.05-.47Z" style="fill:#455a64"/><path d="M325.38 258.59a1.34 1.34 0 0 0-1.69-1c-.06.62.05 1.1.37 1.29s.79.04 1.32-.29Z" style="fill:#263238"/><path d="M399.46 111.34c1.11 0 3.18 1.2 4.8 2.25s3.12 1.14 2.59 2.32a2.34 2.34 0 0 1-2.15 1 9.1 9.1 0 0 1-2.63-.5c1.91 1.65 2.32 2.31 1.77 2.89-.78.84-2.21.73-3.36.16.65.66 1.38 1 1 1.65s-1.51.82-2.89.57a8 8 0 0 1-2.51-.88c-1.46.39-3.09.95-3.09.95a35.26 35.26 0 0 1 6.47-10.41Z" style="fill:#ffa8a7"/><path d="M400.48 119.45c-.8-.45-1.55-1-2.32-1.47a3.53 3.53 0 0 0-2.57-.28c-.9.11-1.8.28-2.7.45s-1.8.31-2.71.43c.88-.25 1.77-.47 2.67-.68s1.79-.39 2.7-.53a8.11 8.11 0 0 1 1.4-.07 2.57 2.57 0 0 1 1.35.46c.77.53 1.45 1.13 2.18 1.69ZM402.07 116.4c-.7-.44-1.4-.89-2.11-1.3a11.24 11.24 0 0 0-1.07-.58 3.17 3.17 0 0 0-1.16-.1c-.82 0-1.63.15-2.45.24s-1.65.21-2.47.29c.8-.21 1.61-.38 2.43-.54a20.09 20.09 0 0 1 2.47-.32 3.38 3.38 0 0 1 1.29.15 10.58 10.58 0 0 1 1.1.64 18.12 18.12 0 0 1 1.97 1.52Z" style="fill:#f28f8f"/><path d="M440.27 116.34c.78-4 4.85-8 6.72-11.4s2.9-5.86 2.8-9a6.82 6.82 0 0 0-2.12-5.1c.35-6.79-6.48-10.31-11.08-11.55-5.35-1.45-9.74-1.8-15.28.52a12.18 12.18 0 0 0-6.86 6.48 14.65 14.65 0 0 0-.87 6.53 3.78 3.78 0 0 0 .57 1.22c.16.16.12.72.16.94a4.54 4.54 0 0 0 .64 1.78 6.43 6.43 0 0 0 2.22 2.12c2.9 1.48 6.13 2 9.27 2.77l3.73.87c.21.06 1.34.16 1.47.35Z" style="fill:#263238"/><path d="M445.07 111.37a3.84 3.84 0 0 1-4.68-.26l.72 12c-2.34 5.36-8.83 3.06-16.26 12.38 0 0-2.37-3.9-.42-11.63l-.36-4a44.8 44.8 0 0 1-4.71-.35c-3.34-.51-5-3.46-6.05-7.86a28.44 28.44 0 0 1-.14-12 12 12 0 0 0 .26-3.27 15.34 15.34 0 0 1 1.16-7c3.5-2.66 11.45-3.39 18.72 1.31-1 4.37.64 7.91 3.79 9.67-.18 1.18-.41 4.18 1.54 4.18 1.41 0 1.55-1.76 3-3.28s4.87-1.84 6.11.49a7.59 7.59 0 0 1-2.68 9.62Z" style="fill:#ffa8a7"/><path d="M424.07 119.8c5-.45 8.88-.93 11.55-4.44a30.71 30.71 0 0 0 3.14-5.77 23.93 23.93 0 0 1-2.32 7.28c-1.3 2.25-4.45 4.25-12.21 4.71ZM423.34 96.99l-6.82 8 5.66 1.89 1.16-9.89z" style="fill:#f28f8f"/><path d="m427.12 95.34 2.94 1.7a1.79 1.79 0 0 0-.65-2.38 1.65 1.65 0 0 0-2.29.68ZM415.13 96.3l3.12-1.4A1.64 1.64 0 0 0 416 94a1.8 1.8 0 0 0-.87 2.3ZM426.57 99.92a1.39 1.39 0 1 0 1.58-1.24 1.41 1.41 0 0 0-1.58 1.24Z" style="fill:#263238"/><path d="m427.73 109.16-5.68.77a3 3 0 0 0 3.32 2.51 2.79 2.79 0 0 0 2.36-3.28Z" style="fill:#b16668"/><path d="M423.8 112.2a3.39 3.39 0 0 1 3.94-2.22 2.77 2.77 0 0 1-2.37 2.46 3 3 0 0 1-1.57-.24Z" style="fill:#f28f8f"/><path d="M417.45 98a1.44 1.44 0 1 0 1.31 1.51 1.42 1.42 0 0 0-1.31-1.51" style="fill:#263238"/><path d="M424.85 135.44a17.54 17.54 0 0 0 2.7-2.28c1.21-1.3 1.78-1.89 2.25-1.45a31.05 31.05 0 0 1 3.11 5.35c.53 1.19.43 1.18 2.06.1a29.12 29.12 0 0 0 7.4-7.13 21.58 21.58 0 0 0 2.93-5.87s-1.85-2.57-2.4-3.55c-1-1.89-1-2.68-2.09-2.51v1.34c-.18 1.65-2.57 3.14-4.88 5.13s-6.05 3.9-6.93 4.75c-.64.62-4.15 6.12-4.15 6.12Z" style="fill:#37474f"/><path d="M418.23 134.24c.26.68 2.4-4.6 3.46-4.49.5.05 1.46 2.65 2 3.63s.84 1.44 1.18 2.06c-.63-1.59-.81-5.68-.94-6.74a18.36 18.36 0 0 1 .52-4.89l-.36-4h-.95a13.8 13.8 0 0 0-1.47 1.78c-1 1.68-2.93 4.74-3.27 6.75a17.8 17.8 0 0 0-.17 5.9ZM452.34 126.65c7.51 2.41 12.4 3.48 15.08 9s7.27 19.35 9.81 27.69c2.18 7.14 3.33 13.64 1.74 16.89l-15.76-5.66-8.58-22.42s-7.22-17.84-2.29-25.5Z" style="fill:#37474f"/><path d="M461.19 163.58c1.4 1.74 2.94 2.37 6.3 3.72 3.13 1.26 6.74 2.42 8.76 5.63-.7-3-2.46-4.46-6.38-6.38s-9.64-4.16-9.64-4.16Z" style="fill:#263238"/><path d="M461.19 163.58c1.4 1.74 2.94 2.37 6.3 3.72 3.13 1.26 6.74 2.42 8.76 5.63 1.78 2.83 3.67 5.16 2.72 7.35-.66 1.5-4.88 2.65-8.94 2.61s-7-3.25-11.21-5.92c-3.64-2.29-5.55-3.77-5.55-3.77Z" style="fill:#ffa8a7"/><path d="M454.57 167.76c1.5-1.5 1.77-3 4-4.29s3.62-1.22 6-2.42 4.27-1.83 6.05-1.25 1.51 1.6.17 2.44-3.63 1.95-5.23 3.12-3.15 1.83-3.15 3.85a90.16 90.16 0 0 0 .72 9.57c.44 3.39 1.11 6.13.86 6.5s-1.71.53-2.61-1.36-2.06-8.78-2.06-8.78-.65 4.78-.91 8.08-.37 5.81-.47 6.51-2.43.17-2.8-2.32.1-9.85.1-9.85-1.94 3.35-3.18 5.53-2.79 5.14-3.3 5.87-2-.56-1.64-2.54 2.88-6.82 2.88-6.82-3.06 3.21-3.6 3.52-2.17.07-1.61-2.12c.37-1.46 1.3-2.39 3.76-5.2s2.43-4 3.19-5.27c.97-1.7 1.75-1.68 2.83-2.77Z" style="fill:#ffa8a7"/><path d="M470.57 159.8a2.77 2.77 0 0 1 .85.45.77.77 0 0 1 .32.8 2.63 2.63 0 0 1-1.34 1.24l-3.4 1.86a16 16 0 0 0-1.66 1c-.52.37-1.07.71-1.6 1.11a4.09 4.09 0 0 0-1.35 1.53 4.22 4.22 0 0 0-.29 2q.14 3.9.63 7.76c.17 1.29.38 2.57.62 3.85l.39 1.9a5.93 5.93 0 0 1 .21 1.91 5.71 5.71 0 0 0-.08-1.93l-.25-1.93c-.19-1.28-.35-2.56-.47-3.85-.24-2.57-.45-5.15-.5-7.72a3.88 3.88 0 0 1 .22-1.79 3.72 3.72 0 0 1 1.13-1.29c.5-.38 1-.73 1.57-1.12s1.05-.73 1.6-1.07l3.33-2a2.72 2.72 0 0 0 1.33-1.44.87.87 0 0 0-.41-.88 3 3 0 0 0-.85-.39ZM460.68 168.9c-2.45 1.09-4.85 0-5.18-.62.16 1.72 3.5 2.72 5.18.62ZM444.69 182.27a1.13 1.13 0 0 0 1.54-.11c.61-.52 2.13-2.23 2.82-3s3.06-3.59 3.06-3.59l-2.15 4s-3.06 3.21-3.6 3.52a1.19 1.19 0 0 1-1.67-.82Z" style="fill:#f28f8f"/><path d="M398.73 53.55a20.58 20.58 0 0 1 6.07 13.9l-.05 2.37a20.64 20.64 0 0 1-41.15.18l-.07-2.36a20.64 20.64 0 0 1 35.2-14Z" style="fill:#fff"/><path d="M368.24 52.45a22.41 22.41 0 0 0 29 34l6.39 2.78a1.3 1.3 0 0 0 1.71-1.72l-2.84-6.41a22.41 22.41 0 0 0-34.26-28.65Zm30.46 1.07a20.57 20.57 0 0 1 6.1 13.9v2.36a20.65 20.65 0 0 1-41.2.22l-.07-2.36a20.65 20.65 0 0 1 35.17-14.12Z" style="fill:#455a64"/><path d="M381.19 79.48a3.09 3.09 0 0 1-2.25-1l-7-7.45a3.08 3.08 0 0 1 4.5-4.21l4.56 4.87 10.72-13.58a3.08 3.08 0 1 1 4.83 3.81L383.6 78.31a3.05 3.05 0 0 1-2.28 1.17Z" style="fill:#4f52ee"/></svg>