<svg xmlns="http://www.w3.org/2000/svg" viewBox="0 0 500 500"><ellipse cx="250" cy="416.24" rx="193.89" ry="11.32" style="fill:#f5f5f5"/><path d="m218 197.76-.66 1c-.2.29-.41.55-.61.82-.41.54-.84 1-1.27 1.55-.87 1-1.75 2-2.69 2.88a55.25 55.25 0 0 1-6 5 52.65 52.65 0 0 1-6.65 4.08c-1.17.57-2.33 1.16-3.54 1.64l-1.81.72-.51.19c-.28.09-.54.19-.85.26a7.1 7.1 0 0 1-1.85.21 7.47 7.47 0 0 1-3.41-.85 9.89 9.89 0 0 1-2.31-1.67 17.18 17.18 0 0 1-2.79-3.6 38 38 0 0 1-3.19-7.2 79.23 79.23 0 0 1-3.36-14.51l4.18-.92c.76 2.19 1.54 4.45 2.4 6.63s1.72 4.35 2.72 6.41a37.13 37.13 0 0 0 3.24 5.69 9.69 9.69 0 0 0 1.77 2 2.39 2.39 0 0 0 .65.38h.06-.07l.33-.16 1.49-.72c1-.48 1.95-1 2.91-1.58a59.85 59.85 0 0 0 5.48-3.71 52.84 52.84 0 0 0 4.93-4.4c.78-.76 1.52-1.57 2.23-2.39.35-.41.7-.82 1-1.23l.48-.61.39-.52Z" style="fill:#b97964"/><path style="fill:#263238" d="m205.89 197.33 5.07 12.16-3.67 2.29-5.7-11.03 4.3-3.42z"/><path d="M220.24 187.09c-8.27-.11-16.67 10.36-16.88 10.62l6.54 15.38s14.55-11.81 15.28-16.43c.76-4.81.3-9.5-4.94-9.57Z" style="fill:#4f52ee"/><path d="M220.24 187.09c-8.27-.11-16.67 10.36-16.88 10.62l6.54 15.38s14.55-11.81 15.28-16.43c.76-4.81.3-9.5-4.94-9.57Z" style="opacity:.30000000000000004"/><path d="m180 185.77-5.72-4.45-1.16 8.76s5.56 2.18 8.52.29l-.08-1.6a4.07 4.07 0 0 0-1.56-3Z" style="fill:#b97964"/><path style="fill:#b97964" d="m166.66 180.88.36 6.65 6.13 2.55 1.16-8.76-7.65-.44zM292 185.06l8.84-2.21-6.18-6.31s-5.73 2.34-4.33 7.34Z"/><path style="fill:#b97964" d="m305.23 181.28-.73-6.94-9.89 2.2 6.18 6.31 4.44-1.57zM263.17 407.47l-8.23.79-6.87-19.42 8.23-.8 6.87 19.43zM351.27 366.64l-6.06 5.88-15.58-12.16 6.07-5.88 15.57 12.16z"/><path d="m343.46 371.38 4.66-8.27a.67.67 0 0 1 .83-.3l7.08 2.74a1.36 1.36 0 0 1 .64 1.92c-1.67 2.86-2.62 4.15-4.67 7.79-1.26 2.24-3.72 7.37-5.46 10.46s-4.89 1.53-4.44.09c2-6.47 1.66-10.08 1.12-12.94a2.19 2.19 0 0 1 .24-1.49ZM253.3 405.74h10a.84.84 0 0 1 .79.61l2.18 7.93a1.24 1.24 0 0 1-1.22 1.59c-3.51-.06-5.22-.27-9.63-.27-2.71 0-11.54.29-15.29.29s-4.43-3.71-2.91-4c6.8-1.51 12.54-3.58 14.63-5.56a2.06 2.06 0 0 1 1.45-.59Z" style="fill:#263238"/><path style="fill:#a76755" d="m248.08 388.84 3.53 10.02h8.52l-3.82-10.82-8.23.8zM335.71 354.48l-6.07 5.89 8.03 6.26 6.07-5.88-8.03-6.27z"/><path d="M212.19 189.76s-3.4 2.59 19.51 47.3l32.66-10.55c-4.84-13.11-7.5-21.3-10-50.63a101.07 101.07 0 0 0-14.36 2.65 118.37 118.37 0 0 0-14.83 4.79c-6.24 2.68-12.98 6.44-12.98 6.44Z" style="fill:#4f52ee"/><path d="M212.19 189.76s-3.4 2.59 19.51 47.3l32.66-10.55c-4.84-13.11-7.5-21.3-10-50.63a101.07 101.07 0 0 0-14.36 2.65 118.37 118.37 0 0 0-14.83 4.79c-6.24 2.68-12.98 6.44-12.98 6.44Z" style="opacity:.30000000000000004"/><path d="M233.09 162.3c.6 5.08 2.49 14.12 6.86 16.23 0 0 .25 5.26-8.61 8.12-9.75 3.15-6.22-3.33-6.22-3.33 4.91-3 3.49-6.9 1.37-10.3Z" style="fill:#b97964"/><path d="M216.7 187.34c2.41-1.25 5.48-2.77 8.42-4a109.46 109.46 0 0 1 14.88-4.81c2.85-.78 5.73-1.36 8.16-1.77.23.68-.46 2.44-2.15 4.87-5.35 4.44-16.76 10.21-25.17 10-3.68-1.37-4.6-2.82-4.14-4.29Z" style="fill:#b97964"/><path d="M246 181.63a60.83 60.83 0 0 1-12.88 12.75 63.72 63.72 0 0 1-12.29-2.75c8.37.21 19.78-5.56 25.17-10Z" style="fill:#263238"/><path d="m230.4 166.67-3.91 6.33a15.64 15.64 0 0 1 1.31 2.49c1.94-.95 4.41-3.76 3.94-6a9 9 0 0 0-1.34-2.82Z" style="fill:#a76755"/><path d="M235.07 152.92c.5 8.37.9 11.9-2.78 16.68-5.53 7.18-15.92 6-18.92-2.08-2.69-7.25-3.06-19.72 4.67-24a11.44 11.44 0 0 1 17.03 9.4Z" style="fill:#b97964"/><circle cx="236.53" cy="134.49" r="15.44" transform="rotate(-77.19 236.542 134.483)" style="fill:#263238"/><path d="M232.69 141.2c3.18 2.1 4.76 5.32 3.53 7.19s-4.81 1.69-8-.41-4.76-5.32-3.53-7.19 4.81-1.69 8 .41Z" style="fill:#4f52ee"/><path d="M232.69 141.2c3.18 2.1 4.76 5.32 3.53 7.19s-4.81 1.69-8-.41-4.76-5.32-3.53-7.19 4.81-1.69 8 .41Z" style="fill:#fafafa;opacity:.6000000000000001"/><path d="M231 158.63c.83-1.92-2.06-7.62-1.44-9.75-1.66-1.55-18.49 3.93-17.13-.07 1.3-3.84 5.4-8.93 14.76-6.8 10 2.28 10.87 10.93 9.75 13.69s-2.71 5.63-2.71 5.63Z" style="fill:#263238"/><path d="M237.27 160.26a6.16 6.16 0 0 1-1.72 4.35c-1.51 1.53-3.33.43-3.8-1.55-.43-1.78-.15-4.73 1.79-5.51a2.74 2.74 0 0 1 3.73 2.71Z" style="fill:#b97964"/><path d="M231.7 237.06s-15.14 73.84-6.7 98.19c8.78 25.33 23.07 60.69 23.07 60.69l13.35-.76s-11-44.68-13.71-64.86C244 302.5 259.89 228 259.89 228Z" style="fill:#4f52ee"/><path d="M231.7 237.06s-15.14 73.84-6.7 98.19c8.78 25.33 23.07 60.69 23.07 60.69l13.35-.76s-11-44.68-13.71-64.86C244 302.5 259.89 228 259.89 228Z" style="fill:#fafafa;opacity:.6000000000000001"/><path style="fill:#4f52ee" d="m262.47 395.5-15.45.89-2.48-6.08 17.04-1.77.89 6.96z"/><path style="opacity:.2" d="m262.47 395.5-15.45.89-2.48-6.08 17.04-1.77.89 6.96z"/><path d="M247.71 242.74c-2.32 8.58-.38 21.44 4 30.46 1.07-7 2.21-13.78 3.29-19.85-2.25-4.35-4.73-8.21-7.29-10.61Z" style="fill:#4f52ee"/><path d="M247.71 242.74c-2.32 8.58-.38 21.44 4 30.46 1.07-7 2.21-13.78 3.29-19.85-2.25-4.35-4.73-8.21-7.29-10.61Z" style="fill:#fafafa;opacity:.4"/><path d="M240.32 234.27S262.8 288 277.69 317.5c12 23.86 56.53 48.83 56.53 48.83l8-8.48s-33.28-29.55-41.58-45.73c-26.56-51.79-21.1-74.41-36.26-85.61Z" style="fill:#4f52ee"/><path d="M240.32 234.27S262.8 288 277.69 317.5c12 23.86 56.53 48.83 56.53 48.83l8-8.48s-33.28-29.55-41.58-45.73c-26.56-51.79-21.1-74.41-36.26-85.61Z" style="fill:#fafafa;opacity:.6000000000000001"/><path style="fill:#4f52ee" d="m343.71 356.64-11 11.69-6.96-3.66 12.67-12.92 5.29 4.89z"/><path style="opacity:.2" d="m343.71 356.64-11 11.69-6.96-3.66 12.67-12.92 5.29 4.89z"/><path d="m264.23 224.44 2.41 2.45c.19.19 0 .51-.38.63l-34.25 11c-.3.1-.59 0-.67-.15l-1.23-2.82c-.09-.2.11-.45.43-.56l33.07-10.67a.64.64 0 0 1 .62.12Z" style="fill:#263238"/><path d="m261 229.57.88-.28c.18-.06.28-.2.24-.3l-1.64-3.67c0-.1-.24-.14-.41-.09l-.89.29c-.17 0-.28.19-.23.3l1.64 3.66c.03.11.21.15.41.09Z" style="fill:#4f52ee"/><path d="m261 229.57.88-.28c.18-.06.28-.2.24-.3l-1.64-3.67c0-.1-.24-.14-.41-.09l-.89.29c-.17 0-.28.19-.23.3l1.64 3.66c.03.11.21.15.41.09Z" style="fill:#fafafa;opacity:.6000000000000001"/><path d="m234.6 238.09.89-.29c.17-.06.28-.19.23-.3l-1.64-3.66c-.05-.11-.23-.15-.41-.09l-.89.28c-.17.06-.28.19-.23.3l1.64 3.66c.05.11.23.15.41.1Z" style="fill:#4f52ee"/><path d="m234.6 238.09.89-.29c.17-.06.28-.19.23-.3l-1.64-3.66c-.05-.11-.23-.15-.41-.09l-.89.28c-.17.06-.28.19-.23.3l1.64 3.66c.05.11.23.15.41.1Z" style="fill:#fafafa;opacity:.6000000000000001"/><path d="m247.79 233.83.88-.29c.18 0 .29-.19.24-.3l-1.64-3.66c-.05-.11-.24-.15-.41-.09l-.89.29c-.17.05-.28.19-.23.29l1.64 3.67a.35.35 0 0 0 .41.09Z" style="fill:#4f52ee"/><path d="m247.79 233.83.88-.29c.18 0 .29-.19.24-.3l-1.64-3.66c-.05-.11-.24-.15-.41-.09l-.89.29c-.17.05-.28.19-.23.29l1.64 3.67a.35.35 0 0 0 .41.09Z" style="fill:#fafafa;opacity:.6000000000000001"/><path d="M222.75 156.78c.08.67-.21 1.27-.65 1.32s-.87-.45-.95-1.13.21-1.27.65-1.32.87.45.95 1.13ZM215.1 157.71c.09.68-.21 1.27-.65 1.32s-.87-.45-.95-1.12.21-1.27.65-1.33.85.42.95 1.13Z" style="fill:#263238"/><path d="m214.35 156.6-1.68-.27s.99 1.17 1.68.27Z" style="fill:#263238"/><path d="M217.27 158.63a18.39 18.39 0 0 1-1.89 4.61 3 3 0 0 0 2.47.16Z" style="fill:#a24e3f"/><path d="M220.53 165.77a.2.2 0 0 1-.2-.17.22.22 0 0 1 .18-.23 5.4 5.4 0 0 0 4.11-2.62.2.2 0 0 1 .27-.1.2.2 0 0 1 .09.27 5.71 5.71 0 0 1-4.42 2.85ZM223.7 154.38a.4.4 0 0 1-.26-.1 3.15 3.15 0 0 0-2.79-.77.4.4 0 0 1-.5-.28.39.39 0 0 1 .28-.49 4 4 0 0 1 3.53.93.4.4 0 0 1 0 .57.41.41 0 0 1-.26.14ZM211.15 154.61a.39.39 0 0 1-.18 0 .41.41 0 0 1-.17-.54 4 4 0 0 1 2.9-2.21.4.4 0 0 1 .44.35.4.4 0 0 1-.35.45 3.15 3.15 0 0 0-2.28 1.77.4.4 0 0 1-.36.18Z" style="fill:#263238"/><path d="m261 183.69.38.48.47.57c.32.38.65.77 1 1.15.69.77 1.41 1.53 2.18 2.25a54.23 54.23 0 0 0 4.77 4.16 63.47 63.47 0 0 0 5.27 3.59c.91.55 1.84 1.07 2.78 1.58l1.43.73.69.35c.17.08.34.16.5.22a4.29 4.29 0 0 0 1.61.33 2.54 2.54 0 0 0 1.4-.52 11.05 11.05 0 0 0 3.09-4.12 34.39 34.39 0 0 0 2.23-6 64.69 64.69 0 0 0 1.53-6.4l4.27.27a43.5 43.5 0 0 1-2.08 14.52 20.53 20.53 0 0 1-1.65 3.68 13.73 13.73 0 0 1-2.84 3.55 10 10 0 0 1-4.79 2.35 10.83 10.83 0 0 1-5.18-.36c-.39-.11-.75-.25-1.12-.39l-.87-.36-1.7-.71c-1.13-.51-2.24-1-3.33-1.62a55.43 55.43 0 0 1-6.31-3.89 57.64 57.64 0 0 1-5.75-4.74c-.9-.86-1.77-1.77-2.62-2.71-.42-.48-.84-1-1.24-1.46l-.61-.79c-.21-.28-.37-.5-.65-.9Z" style="fill:#b97964"/><path style="fill:#263238" d="m268.09 188.96-6.26 10.51-3.05-2.88 5.78-10.53 3.53 2.9z"/><path d="M254.4 175.88c3.6-.06 12.34 10.26 12.34 10.26l-7.6 13.23s-9.68-8.53-9.67-13.2c.01-4.87.83-10.17 4.93-10.29Z" style="fill:#4f52ee"/><path d="M254.4 175.88c3.6-.06 12.34 10.26 12.34 10.26l-7.6 13.23s-9.68-8.53-9.67-13.2c.01-4.87.83-10.17 4.93-10.29Z" style="opacity:.30000000000000004"/><path d="M341.82 375.87a1.27 1.27 0 0 1-.76-.29.66.66 0 0 1-.29-.62c.09-1.08 2.8-2.5 3.1-2.66a.2.2 0 0 1 .22 0 .21.21 0 0 1 .07.21c-.31 1.08-1 2.94-2 3.27a1 1 0 0 1-.34.09Zm1.81-3c-1.06.6-2.41 1.54-2.46 2.1a.26.26 0 0 0 .14.27.72.72 0 0 0 .72.17c.55-.16 1.13-1.1 1.6-2.52Z" style="fill:#4f52ee"/><path d="M341.45 373.25a2 2 0 0 1-1.25-.31.7.7 0 0 1-.16-.86 1 1 0 0 1 .65-.61c1.16-.39 3.28.78 3.37.83a.21.21 0 0 1 .11.18.21.21 0 0 1-.1.17 6 6 0 0 1-2.62.6Zm-.21-1.46a1.37 1.37 0 0 0-.42.06.65.65 0 0 0-.41.38c-.1.24 0 .34 0 .41.45.38 2.11.22 3.06-.17a6.1 6.1 0 0 0-2.23-.68ZM248.86 407.4a3.32 3.32 0 0 1-2-.47 1.25 1.25 0 0 1-.51-1 .59.59 0 0 1 .25-.55c.91-.62 4.33.94 5 1.25a.2.2 0 0 1 .11.21.19.19 0 0 1-.15.17 13.53 13.53 0 0 1-2.7.39Zm-1.6-1.73a.69.69 0 0 0-.39.08.19.19 0 0 0-.08.19.86.86 0 0 0 .35.67c.79.6 2.67.37 3.77.17a12.71 12.71 0 0 0-3.65-1.11Z" style="fill:#4f52ee"/><path d="M251.56 407.05h-.08c-1.13-.46-3.41-2.29-3.28-3.24 0-.21.16-.47.68-.53 2-.26 2.84 3.39 2.87 3.54a.21.21 0 0 1-.06.2.22.22 0 0 1-.13.03Zm-2.5-3.39h-.13c-.21 0-.33.09-.34.19-.07.54 1.5 2 2.66 2.62-.25-.86-.99-2.81-2.19-2.81Z" style="fill:#4f52ee"/><path d="m222 155.66-1.68-.27s.99 1.17 1.68.27Z" style="fill:#263238"/><path d="M159.44 85.78c-1.77 2.22-11.52 4.83-19.27 4.11-2.67 17.52 6.66 37.69 6.66 37.69s20.25-2.41 20.75-10.75-8.14-31.05-8.14-31.05Z" style="fill:#4f52ee"/><path d="M159.44 85.78c-1.77 2.22-11.52 4.83-19.27 4.11-2.67 17.52 6.66 37.69 6.66 37.69s20.25-2.41 20.75-10.75-8.14-31.05-8.14-31.05Z" style="fill:#fafafa;opacity:.4"/><path d="M312.73 72.45c1.81 2.55 11 5.08 18.11 3.76 3.81 20.74-3.25 45.38-3.25 45.38s-18.87-1.68-20-11.59 5.14-37.55 5.14-37.55Z" style="fill:#4f52ee"/><path d="M312.73 72.45c1.81 2.55 11 5.08 18.11 3.76 3.81 20.74-3.25 45.38-3.25 45.38s-18.87-1.68-20-11.59 5.14-37.55 5.14-37.55Z" style="fill:#fafafa;opacity:.4"/><path d="M180 252.07a1.1 1.1 0 0 1-1.25-.94L155 82.66a1.12 1.12 0 0 1 1-1.26 1.11 1.11 0 0 1 1.25.95L181 250.81a1.12 1.12 0 0 1-1 1.26Z" style="fill:#4f52ee"/><path d="M180 252.07a1.1 1.1 0 0 1-1.25-.94L155 82.66a1.12 1.12 0 0 1 1-1.26 1.11 1.11 0 0 1 1.25.95L181 250.81a1.12 1.12 0 0 1-1 1.26Z" style="opacity:.2"/><path d="M293.17 239.55a1.12 1.12 0 0 0 1.26-1l23.8-168.46a1.11 1.11 0 0 0-.94-1.26 1.12 1.12 0 0 0-1.26 1l-23.8 168.46a1.12 1.12 0 0 0 .94 1.26Z" style="fill:#4f52ee"/><path d="M293.17 239.55a1.12 1.12 0 0 0 1.26-1l23.8-168.46a1.11 1.11 0 0 0-.94-1.26 1.12 1.12 0 0 0-1.26 1l-23.8 168.46a1.12 1.12 0 0 0 .94 1.26Z" style="opacity:.2"/><path d="m154.05 86.22 4.5 33.08a1.46 1.46 0 0 0 1.86 1.21c10.06-2.88 66-17.24 151.93-8.1a1.46 1.46 0 0 0 1.6-1.17c1.62-8.38 4.41-32.25 5.12-38.36a1.48 1.48 0 0 0-1.28-1.63c-11.54-1.46-90.31-10.19-162.72 13.37a1.49 1.49 0 0 0-1.01 1.6Z" style="fill:#4f52ee"/><path d="m154.05 86.22 4.5 33.08a1.46 1.46 0 0 0 1.86 1.21c10.06-2.88 66-17.24 151.93-8.1a1.46 1.46 0 0 0 1.6-1.17c1.62-8.38 4.41-32.25 5.12-38.36a1.48 1.48 0 0 0-1.28-1.63c-11.54-1.46-90.31-10.19-162.72 13.37a1.49 1.49 0 0 0-1.01 1.6Z" style="fill:#fafafa;opacity:.6000000000000001"/><path d="m168.48 92 4.74-1 3.35 8.71.85-9.56 4.73-1 4.15 8.54.06-9.39 4.72-1-.62 16.9-4.89 1-4.69-9.62-1 10.76-4.89 1ZM193.4 87.12l13.49-2 .44 3.48-8.44 1.24.33 2.6 7.83-1.15.42 3.33-7.83 1.15L200 99l8.69-1.27.47 3.7-13.74 2ZM210.32 84.73l5.06-.55 1.08 12.37 7.89-.85.36 4-13 1.4ZM237.06 92.06l4.51 1a8.41 8.41 0 0 1-1.25 3.24 6.32 6.32 0 0 1-2.32 2.1 9.16 9.16 0 0 1-3.59.9 10.52 10.52 0 0 1-4.41-.47 6.77 6.77 0 0 1-3-2.54 9.21 9.21 0 0 1-1.49-4.94 8.75 8.75 0 0 1 1.84-6.43 8.37 8.37 0 0 1 6-2.63 8.2 8.2 0 0 1 4.93.9 7.24 7.24 0 0 1 2.84 3.68l-4.43 1.32a3.59 3.59 0 0 0-.55-1.07 2.88 2.88 0 0 0-1.14-.82 3.22 3.22 0 0 0-4 1.36 6 6 0 0 0-.53 3.3q.13 2.73 1 3.69a2.79 2.79 0 0 0 2.38.85 2.91 2.91 0 0 0 2.16-1 5.26 5.26 0 0 0 1.05-2.44ZM243.42 90.15a8.72 8.72 0 0 1 2.16-6.36 8.57 8.57 0 0 1 6.21-2.46 8.46 8.46 0 0 1 6.35 2 8.23 8.23 0 0 1 2.29 6.12 10.28 10.28 0 0 1-.9 4.78 7.15 7.15 0 0 1-2.77 3 9.3 9.3 0 0 1-4.55 1.18 10.27 10.27 0 0 1-4.61-.74 6.73 6.73 0 0 1-3-2.72 9.28 9.28 0 0 1-1.18-4.8Zm5.07-.14a5.49 5.49 0 0 0 1 3.56 3 3 0 0 0 2.52 1 3.18 3.18 0 0 0 2.52-1.15 6.22 6.22 0 0 0 .85-3.87 5 5 0 0 0-1-3.37 3.09 3.09 0 0 0-2.55-1 3.13 3.13 0 0 0-2.45 1.17 5.66 5.66 0 0 0-.89 3.65ZM263.51 81.29h6.67l2.3 10.07 2.83-10 6.67.06-.45 16.5h-4.16l.34-12.59-3.54 12.56h-3.76l-2.85-12.62-.34 12.59h-4.16ZM285.64 81.58l13.57.61-.21 3.52-8.5-.38-.17 2.67 7.88.35-.21 3.31-7.88-.35-.2 3.26 8.74.38-.24 3.74-13.82-.62Z" style="fill:#fafafa"/></svg>